<svg xmlns="http://www.w3.org/2000/svg" xmlns:xlink="http://www.w3.org/1999/xlink" version="1.1" class="marks" width="992" height="378" viewBox="0 0 992 378"><rect width="992" height="378" fill="white"/><g fill="none" stroke-miterlimit="10" transform="translate(246,41)"><g class="mark-group role-frame root" role="graphics-object" aria-roledescription="group mark container"><g transform="translate(0,0)"><path class="background" aria-hidden="true" d="M0.5,0.5h500v300h-500Z" stroke="#ddd"/><g><g class="mark-group role-axis" aria-hidden="true"><g transform="translate(0.5,0.5)"><path class="background" aria-hidden="true" d="M0,0h0v0h0Z" pointer-events="none"/><g><g class="mark-rule role-axis-grid" pointer-events="none"><line transform="translate(0,300)" x2="500" y2="0" stroke="#ddd" stroke-width="1" opacity="1"/><line transform="translate(0,257)" x2="500" y2="0" stroke="#ddd" stroke-width="1" opacity="1"/><line transform="translate(0,214)" x2="500" y2="0" stroke="#ddd" stroke-width="1" opacity="1"/><line transform="translate(0,171)" x2="500" y2="0" stroke="#ddd" stroke-width="1" opacity="1"/><line transform="translate(0,129)" x2="500" y2="0" stroke="#ddd" stroke-width="1" opacity="1"/><line transform="translate(0,86)" x2="500" y2="0" stroke="#ddd" stroke-width="1" opacity="1"/><line transform="translate(0,43)" x2="500" y2="0" stroke="#ddd" stroke-width="1" opacity="1"/><line transform="translate(0,0)" x2="500" y2="0" stroke="#ddd" stroke-width="1" opacity="1"/></g></g><path class="foreground" aria-hidden="true" d="" pointer-events="none" display="none"/></g></g><g class="mark-group role-axis" role="graphics-symbol" aria-roledescription="axis" aria-label="X-axis titled 'Sequence Length' for a linear scale with values from 0 to 1,800"><g transform="translate(0.5,300.5)"><path class="background" aria-hidden="true" d="M0,0h0v0h0Z" pointer-events="none"/><g><g class="mark-rule role-axis-tick" pointer-events="none"><line transform="translate(0,0)" x2="0" y2="5" stroke="#888" stroke-width="1" opacity="1"/><line transform="translate(28,0)" x2="0" y2="5" stroke="#888" stroke-width="1" opacity="1"/><line transform="translate(56,0)" x2="0" y2="5" stroke="#888" stroke-width="1" opacity="1"/><line transform="translate(83,0)" x2="0" y2="5" stroke="#888" stroke-width="1" opacity="1"/><line transform="translate(111,0)" x2="0" y2="5" stroke="#888" stroke-width="1" opacity="1"/><line transform="translate(139,0)" x2="0" y2="5" stroke="#888" stroke-width="1" opacity="1"/><line transform="translate(167,0)" x2="0" y2="5" stroke="#888" stroke-width="1" opacity="1"/><line transform="translate(194,0)" x2="0" y2="5" stroke="#888" stroke-width="1" opacity="1"/><line transform="translate(222,0)" x2="0" y2="5" stroke="#888" stroke-width="1" opacity="1"/><line transform="translate(250,0)" x2="0" y2="5" stroke="#888" stroke-width="1" opacity="1"/><line transform="translate(278,0)" x2="0" y2="5" stroke="#888" stroke-width="1" opacity="1"/><line transform="translate(306,0)" x2="0" y2="5" stroke="#888" stroke-width="1" opacity="1"/><line transform="translate(333,0)" x2="0" y2="5" stroke="#888" stroke-width="1" opacity="1"/><line transform="translate(361,0)" x2="0" y2="5" stroke="#888" stroke-width="1" opacity="1"/><line transform="translate(389,0)" x2="0" y2="5" stroke="#888" stroke-width="1" opacity="1"/><line transform="translate(417,0)" x2="0" y2="5" stroke="#888" stroke-width="1" opacity="1"/><line transform="translate(444,0)" x2="0" y2="5" stroke="#888" stroke-width="1" opacity="1"/><line transform="translate(472,0)" x2="0" y2="5" stroke="#888" stroke-width="1" opacity="1"/></g><g class="mark-text role-axis-label" pointer-events="none"><text text-anchor="start" transform="translate(0,15)" font-family="sans-serif" font-size="10px" fill="#000" opacity="1">0</text><text text-anchor="middle" transform="translate(27.777777777777775,15)" font-family="sans-serif" font-size="10px" fill="#000" opacity="1">100</text><text text-anchor="middle" transform="translate(55.55555555555555,15)" font-family="sans-serif" font-size="10px" fill="#000" opacity="1">200</text><text text-anchor="middle" transform="translate(83.33333333333333,15)" font-family="sans-serif" font-size="10px" fill="#000" opacity="1">300</text><text text-anchor="middle" transform="translate(111.1111111111111,15)" font-family="sans-serif" font-size="10px" fill="#000" opacity="1">400</text><text text-anchor="middle" transform="translate(138.88888888888889,15)" font-family="sans-serif" font-size="10px" fill="#000" opacity="1">500</text><text text-anchor="middle" transform="translate(166.66666666666666,15)" font-family="sans-serif" font-size="10px" fill="#000" opacity="1">600</text><text text-anchor="middle" transform="translate(194.44444444444446,15)" font-family="sans-serif" font-size="10px" fill="#000" opacity="1">700</text><text text-anchor="middle" transform="translate(222.2222222222222,15)" font-family="sans-serif" font-size="10px" fill="#000" opacity="1">800</text><text text-anchor="middle" transform="translate(250,15)" font-family="sans-serif" font-size="10px" fill="#000" opacity="1">900</text><text text-anchor="middle" transform="translate(277.77777777777777,15)" font-family="sans-serif" font-size="10px" fill="#000" opacity="1">1,000</text><text text-anchor="middle" transform="translate(305.5555555555556,15)" font-family="sans-serif" font-size="10px" fill="#000" opacity="1">1,100</text><text text-anchor="middle" transform="translate(333.3333333333333,15)" font-family="sans-serif" font-size="10px" fill="#000" opacity="1">1,200</text><text text-anchor="middle" transform="translate(361.1111111111111,15)" font-family="sans-serif" font-size="10px" fill="#000" opacity="1">1,300</text><text text-anchor="middle" transform="translate(388.8888888888889,15)" font-family="sans-serif" font-size="10px" fill="#000" opacity="1">1,400</text><text text-anchor="middle" transform="translate(416.6666666666667,15)" font-family="sans-serif" font-size="10px" fill="#000" opacity="1">1,500</text><text text-anchor="middle" transform="translate(444.4444444444444,15)" font-family="sans-serif" font-size="10px" fill="#000" opacity="1">1,600</text><text text-anchor="middle" transform="translate(472.22222222222223,15)" font-family="sans-serif" font-size="10px" fill="#000" opacity="1">1,700</text></g><g class="mark-rule role-axis-domain" pointer-events="none"><line transform="translate(0,0)" x2="500" y2="0" stroke="#888" stroke-width="1" opacity="1"/></g><g class="mark-text role-axis-title" pointer-events="none"><text text-anchor="middle" transform="translate(250,30)" font-family="sans-serif" font-size="11px" font-weight="bold" fill="#000" opacity="1">Sequence Length</text></g></g><path class="foreground" aria-hidden="true" d="" pointer-events="none" display="none"/></g></g><g class="mark-group role-axis" role="graphics-symbol" aria-roledescription="axis" aria-label="Y-axis titled 'Number of Sequences' for a linear scale with values from 0 to 3,500"><g transform="translate(0.5,0.5)"><path class="background" aria-hidden="true" d="M0,0h0v0h0Z" pointer-events="none"/><g><g class="mark-rule role-axis-tick" pointer-events="none"><line transform="translate(0,300)" x2="-5" y2="0" stroke="#888" stroke-width="1" opacity="1"/><line transform="translate(0,257)" x2="-5" y2="0" stroke="#888" stroke-width="1" opacity="1"/><line transform="translate(0,214)" x2="-5" y2="0" stroke="#888" stroke-width="1" opacity="1"/><line transform="translate(0,171)" x2="-5" y2="0" stroke="#888" stroke-width="1" opacity="1"/><line transform="translate(0,129)" x2="-5" y2="0" stroke="#888" stroke-width="1" opacity="1"/><line transform="translate(0,86)" x2="-5" y2="0" stroke="#888" stroke-width="1" opacity="1"/><line transform="translate(0,43)" x2="-5" y2="0" stroke="#888" stroke-width="1" opacity="1"/><line transform="translate(0,0)" x2="-5" y2="0" stroke="#888" stroke-width="1" opacity="1"/></g><g class="mark-text role-axis-label" pointer-events="none"><text text-anchor="end" transform="translate(-7,303)" font-family="sans-serif" font-size="10px" fill="#000" opacity="1">0</text><text text-anchor="end" transform="translate(-7,260.14285714285717)" font-family="sans-serif" font-size="10px" fill="#000" opacity="1">500</text><text text-anchor="end" transform="translate(-7,217.28571428571428)" font-family="sans-serif" font-size="10px" fill="#000" opacity="1">1,000</text><text text-anchor="end" transform="translate(-7,174.42857142857142)" font-family="sans-serif" font-size="10px" fill="#000" opacity="1">1,500</text><text text-anchor="end" transform="translate(-7,131.57142857142858)" font-family="sans-serif" font-size="10px" fill="#000" opacity="1">2,000</text><text text-anchor="end" transform="translate(-7,88.71428571428571)" font-family="sans-serif" font-size="10px" fill="#000" opacity="1">2,500</text><text text-anchor="end" transform="translate(-7,45.85714285714287)" font-family="sans-serif" font-size="10px" fill="#000" opacity="1">3,000</text><text text-anchor="end" transform="translate(-7,3)" font-family="sans-serif" font-size="10px" fill="#000" opacity="1">3,500</text></g><g class="mark-rule role-axis-domain" pointer-events="none"><line transform="translate(0,300)" x2="0" y2="-300" stroke="#888" stroke-width="1" opacity="1"/></g><g class="mark-text role-axis-title" pointer-events="none"><text text-anchor="middle" transform="translate(-36.0244140625,150) rotate(-90) translate(0,-2)" font-family="sans-serif" font-size="11px" font-weight="bold" fill="#000" opacity="1">Number of Sequences</text></g></g><path class="foreground" aria-hidden="true" d="" pointer-events="none" display="none"/></g></g><g class="mark-group role-scope layer_0_pathgroup" role="graphics-object" aria-roledescription="group mark container"><g transform="translate(0,0)"><path class="background" aria-hidden="true" d="M0,0h500v300h-500Z"/><g><g class="mark-area role-mark layer_0_marks" role="graphics-object" aria-roledescription="area mark container"><path aria-label="Sequence Length: 0 – 100; Number of Sequences: 1028; Split: train; Length Range: 0 – 100; Count: 1028" role="graphics-symbol" aria-roledescription="area mark" d="M13.889,211.886L27.778,211.886L27.778,17.743L55.556,17.743L55.556,94.029L83.333,94.029L83.333,167.314L111.111,167.314L111.111,236.143L138.889,236.143L138.889,270.943L166.667,270.943L166.667,287.314L194.444,287.314L194.444,290.914L222.222,290.914L222.222,296.914L250,296.914L250,297.514L277.778,297.514L277.778,298.543L305.556,298.543L305.556,299.229L333.333,299.229L333.333,299.657L361.111,299.657L361.111,299.829L388.889,299.829L388.889,299.743L416.667,299.743L416.667,299.914L444.444,299.914L444.444,299.914L458.333,299.914L458.333,300L444.444,300L444.444,300L416.667,300L416.667,300L388.889,300L388.889,300L361.111,300L361.111,300L333.333,300L333.333,300L305.556,300L305.556,300L277.778,300L277.778,300L250,300L250,300L222.222,300L222.222,300L194.444,300L194.444,300L166.667,300L166.667,300L138.889,300L138.889,300L111.111,300L111.111,300L83.333,300L83.333,300L55.556,300L55.556,300L27.778,300L27.778,300L13.889,300Z" fill="#4c78a8" opacity="0.4"/></g></g><path class="foreground" aria-hidden="true" d="" display="none"/></g><g transform="translate(0,0)"><path class="background" aria-hidden="true" d="M0,0h500v300h-500Z"/><g><g class="mark-area role-mark layer_0_marks" role="graphics-object" aria-roledescription="area mark container"><path aria-label="Sequence Length: 0 – 100; Number of Sequences: 124; Split: val; Length Range: 0 – 100; Count: 124" role="graphics-symbol" aria-roledescription="area mark" d="M13.889,289.371L27.778,289.371L27.778,270.257L55.556,270.257L55.556,278.4L83.333,278.4L83.333,284.657L111.111,284.657L111.111,291.686L138.889,291.686L138.889,297.429L166.667,297.429L166.667,298.029L194.444,298.029L194.444,298.714L222.222,298.714L222.222,299.486L250,299.486L250,299.914L277.778,299.914L277.778,299.829L305.556,299.829L305.556,299.829L333.333,299.829L333.333,299.914L361.111,299.914L361.111,299.914L375,299.914L375,300L361.111,300L361.111,300L333.333,300L333.333,300L305.556,300L305.556,300L277.778,300L277.778,300L250,300L250,300L222.222,300L222.222,300L194.444,300L194.444,300L166.667,300L166.667,300L138.889,300L138.889,300L111.111,300L111.111,300L83.333,300L83.333,300L55.556,300L55.556,300L27.778,300L27.778,300L13.889,300Z" fill="#f58518" opacity="0.4"/></g></g><path class="foreground" aria-hidden="true" d="" display="none"/></g><g transform="translate(0,0)"><path class="background" aria-hidden="true" d="M0,0h500v300h-500Z"/><g><g class="mark-area role-mark layer_0_marks" role="graphics-object" aria-roledescription="area mark container"><path aria-label="Sequence Length: 0 – 100; Number of Sequences: 79; Split: newPISCES364; Length Range: 0 – 100; Count: 79" role="graphics-symbol" aria-roledescription="area mark" d="M13.889,293.229L27.778,293.229L27.778,289.886L55.556,289.886L55.556,293.829L83.333,293.829L83.333,296.914L111.111,296.914L111.111,297.171L138.889,297.171L138.889,298.886L166.667,298.886L166.667,299.486L194.444,299.486L194.444,299.743L222.222,299.743L222.222,299.914L250,299.914L250,299.829L347.222,299.829L347.222,299.914L430.556,299.914L430.556,300L347.222,300L347.222,300L250,300L250,300L222.222,300L222.222,300L194.444,300L194.444,300L166.667,300L166.667,300L138.889,300L138.889,300L111.111,300L111.111,300L83.333,300L83.333,300L55.556,300L55.556,300L27.778,300L27.778,300L13.889,300Z" fill="#e45756" opacity="0.4"/></g></g><path class="foreground" aria-hidden="true" d="" display="none"/></g><g transform="translate(0,0)"><path class="background" aria-hidden="true" d="M0,0h500v300h-500Z"/><g><g class="mark-area role-mark layer_0_marks" role="graphics-object" aria-roledescription="area mark container"><path aria-label="Sequence Length: 0 – 100; Number of Sequences: 1; Split: casp12; Length Range: 0 – 100; Count: 1" role="graphics-symbol" aria-roledescription="area mark" d="M13.889,299.914L27.778,299.914L27.778,299.314L55.556,299.314L55.556,299.829L83.333,299.829L83.333,299.657L111.111,299.657L111.111,299.914L138.889,299.914L138.889,299.914L166.667,299.914L166.667,299.829L291.667,299.829L291.667,299.914L402.778,299.914L402.778,300L291.667,300L291.667,300L166.667,300L166.667,300L138.889,300L138.889,300L111.111,300L111.111,300L83.333,300L83.333,300L55.556,300L55.556,300L27.778,300L27.778,300L13.889,300Z" fill="#72b7b2" opacity="0.4"/></g></g><path class="foreground" aria-hidden="true" d="" display="none"/></g><g transform="translate(0,0)"><path class="background" aria-hidden="true" d="M0,0h500v300h-500Z"/><g><g class="mark-area role-mark layer_0_marks" role="graphics-object" aria-roledescription="area mark container"><path aria-label="Sequence Length: 0 – 100; Number of Sequences: 4; Split: casp13; Length Range: 0 – 100; Count: 4" role="graphics-symbol" aria-roledescription="area mark" d="M13.889,299.657L27.778,299.657L27.778,299.743L55.556,299.743L55.556,299.914L83.333,299.914L83.333,299.657L97.222,299.657L97.222,300L83.333,300L83.333,300L55.556,300L55.556,300L27.778,300L27.778,300L13.889,300Z" fill="#54a24b" opacity="0.4"/></g></g><path class="foreground" aria-hidden="true" d="" display="none"/></g><g transform="translate(0,0)"><path class="background" aria-hidden="true" d="M0,0h500v300h-500Z"/><g><g class="mark-area role-mark layer_0_marks" role="graphics-object" aria-roledescription="area mark container"><path aria-label="Sequence Length: 0 – 100; Number of Sequences: 2; Split: casp14; Length Range: 0 – 100; Count: 2" role="graphics-symbol" aria-roledescription="area mark" d="M13.889,299.829L27.778,299.829L27.778,299.057L55.556,299.057L55.556,299.829L97.222,299.829L97.222,299.914L194.444,299.914L194.444,299.914L263.889,299.914L263.889,300L194.444,300L194.444,300L97.222,300L97.222,300L55.556,300L55.556,300L27.778,300L27.778,300L13.889,300Z" fill="#eeca3b" opacity="0.4"/></g></g><path class="foreground" aria-hidden="true" d="" display="none"/></g></g><g class="mark-group role-scope layer_1_pathgroup" role="graphics-object" aria-roledescription="group mark container"><g transform="translate(0,0)"><path class="background" aria-hidden="true" d="M0,0h500v300h-500Z"/><g><g class="mark-line role-mark layer_1_marks" role="graphics-object" aria-roledescription="line mark container"><path aria-label="Sequence Length: 20; Density: 0.000402333216358; Split: train" role="graphics-symbol" aria-roledescription="line mark" d="M5.556,279.883L7.794,272.841L10.033,264.853L12.272,255.882L14.511,245.77L16.75,234.354L18.989,221.607L21.228,207.747L23.467,193.26L25.706,178.823L27.944,165.179L30.183,153L32.422,142.795L34.661,134.879L36.9,129.405L39.139,126.393L41.378,125.735L43.617,127.173L45.856,130.297L48.094,134.599L50.333,139.588L52.572,144.889L54.811,150.268L57.05,155.571L59.289,160.641L61.528,165.291L63.767,169.359L66.006,172.813L68.244,175.802L70.483,178.62L72.722,181.583L74.961,184.909L77.2,188.644L79.439,192.681L81.678,196.812L83.917,200.805L86.156,204.477L88.394,207.751L90.633,210.693L92.872,213.493L95.111,216.378L97.35,219.518L99.589,222.956L101.828,226.625L104.067,230.408L106.306,234.21L108.544,237.981L110.783,241.692L113.022,245.316L115.261,248.812L117.5,252.149L119.739,255.314L121.978,258.302L124.217,261.086L126.456,263.615L128.694,265.835L130.933,267.733L133.172,269.37L135.411,270.867L137.65,272.36L139.889,273.945L142.128,275.639L144.367,277.395L146.606,279.134L148.844,280.785L151.083,282.31L153.322,283.695L155.561,284.941L157.8,286.054L160.039,287.048L162.278,287.935L164.517,288.72L166.756,289.391L168.994,289.93L171.233,290.335L173.472,290.643L175.711,290.931L177.95,291.286L180.189,291.761L182.428,292.347L184.667,292.967L186.906,293.515L189.144,293.897L191.383,294.068L193.622,294.042L195.861,293.887L198.1,293.7L200.339,293.575L202.578,293.587L204.817,293.765L207.056,294.098L209.294,294.539L211.533,295.032L213.772,295.524L216.011,295.985L218.25,296.405L220.489,296.787L222.728,297.139L224.967,297.463L227.206,297.752L229.444,297.992L231.683,298.171L233.922,298.283L236.161,298.327L238.4,298.311L240.639,298.248L242.878,298.158L245.117,298.068L247.356,298.01L249.594,298.008L251.833,298.069L254.072,298.178L256.311,298.307L258.55,298.426L260.789,298.517L263.028,298.58L265.267,298.623L267.506,298.651L269.744,298.666L271.983,298.665L274.222,298.651L276.461,298.631L278.7,298.618L280.939,298.625L283.178,298.66L285.417,298.728L287.656,298.826L289.894,298.952L292.133,299.094L294.372,299.238L296.611,299.365L298.85,299.458L301.089,299.507L303.328,299.515L305.567,299.495L307.806,299.469L310.044,299.457L312.283,299.471L314.522,299.511L316.761,299.566L319,299.622L321.239,299.67L323.478,299.704L325.717,299.729L327.956,299.747L330.194,299.761L332.433,299.77L334.672,299.77L336.911,299.76L339.15,299.742L341.389,299.721L343.628,299.706L345.867,299.702L348.106,299.712L350.344,299.734L352.583,299.764L354.822,299.796L357.061,299.824L359.3,299.849L361.539,299.87L363.778,299.889L366.017,299.907L368.256,299.923L370.494,299.932L372.733,299.934L374.972,299.929L377.211,299.92L379.45,299.913L381.689,299.911L383.928,299.916L386.167,299.926L388.406,299.934L390.644,299.936L392.883,299.93L395.122,299.916L397.361,299.898L399.6,299.878L401.839,299.858L404.078,299.84L406.317,299.824L408.556,299.811L410.794,299.802L413.033,299.801L415.272,299.808L417.511,299.82L419.75,299.837L421.989,299.857L424.228,299.88L426.467,299.904L428.706,299.929L430.944,299.951L433.183,299.969L435.422,299.981L437.661,299.986L439.9,299.985L442.139,299.978L444.378,299.965L446.617,299.948L448.856,299.932L451.094,299.919L453.333,299.914" stroke="#4c78a8" stroke-width="2"/></g></g><path class="foreground" aria-hidden="true" d="" display="none"/></g><g transform="translate(0,0)"><path class="background" aria-hidden="true" d="M0,0h500v300h-500Z"/><g><g class="mark-line role-mark layer_1_marks" role="graphics-object" aria-roledescription="line mark container"><path aria-label="Sequence Length: 20; Density: 0.000586115284104; Split: val" role="graphics-symbol" aria-roledescription="line mark" d="M5.556,270.694L7.794,263.544L10.033,255.44L12.272,246.42L14.511,236.568L16.75,226.02L18.989,214.965L21.228,203.652L23.467,192.379L25.706,181.486L27.944,171.327L30.183,162.255L32.422,154.585L34.661,148.568L36.9,144.363L39.139,142.019L41.378,141.466L43.617,142.525L45.856,144.924L48.094,148.339L50.333,152.425L52.572,156.86L54.811,161.374L57.05,165.765L59.289,169.904L61.528,173.729L63.767,177.224L66.006,180.405L68.244,183.301L70.483,185.945L72.722,188.37L74.961,190.608L77.2,192.702L79.439,194.705L81.678,196.685L83.917,198.721L86.156,200.899L88.394,203.299L90.633,205.983L92.872,208.987L95.111,212.311L97.35,215.917L99.589,219.733L101.828,223.661L104.067,227.595L106.306,231.437L108.544,235.112L110.783,238.581L113.022,241.844L115.261,244.931L117.5,247.895L119.739,250.793L121.978,253.67L124.217,256.555L126.456,259.448L128.694,262.328L130.933,265.159L133.172,267.897L135.411,270.5L137.65,272.935L139.889,275.182L142.128,277.233L144.367,279.092L146.606,280.769L148.844,282.276L151.083,283.623L153.322,284.816L155.561,285.857L157.8,286.749L160.039,287.496L162.278,288.106L164.517,288.592L166.756,288.973L168.994,289.27L171.233,289.503L173.472,289.689L175.711,289.841L177.95,289.968L180.189,290.073L182.428,290.158L184.667,290.227L186.906,290.284L189.144,290.336L191.383,290.396L193.622,290.478L195.861,290.597L198.1,290.77L200.339,291.008L202.578,291.321L204.817,291.71L207.056,292.17L209.294,292.689L211.533,293.252L213.772,293.84L216.011,294.431L218.25,295.008L220.489,295.555L222.728,296.057L224.967,296.504L227.206,296.889L229.444,297.205L231.683,297.452L233.922,297.63L236.161,297.748L238.4,297.817L240.639,297.854L242.878,297.879L245.117,297.913L247.356,297.972L249.594,298.069L251.833,298.205L254.072,298.379L256.311,298.577L258.55,298.787L260.789,298.99L263.028,299.173L265.267,299.322L267.506,299.432L269.744,299.499L271.983,299.526L274.222,299.519L276.461,299.485L278.7,299.432L280.939,299.37L283.178,299.304L285.417,299.239L287.656,299.178L289.894,299.121L292.133,299.067L294.372,299.016L296.611,298.967L298.85,298.918L301.089,298.874L303.328,298.835L305.567,298.808L307.806,298.798L310.044,298.808L312.283,298.841L314.522,298.897L316.761,298.972L319,299.06L321.239,299.152L323.478,299.238L325.717,299.312L327.956,299.369L330.194,299.406L332.433,299.426L334.672,299.435L336.911,299.437L339.15,299.439L341.389,299.443L343.628,299.451L345.867,299.462L348.106,299.472L350.344,299.48L352.583,299.482L354.822,299.48L357.061,299.474L359.3,299.471L361.539,299.473L363.778,299.485L366.017,299.51L368.256,299.549L370.494,299.598L372.733,299.656L374.972,299.717L377.211,299.776L379.45,299.83L381.689,299.876L383.928,299.914L386.167,299.942L388.406,299.963L390.644,299.977L392.883,299.987L395.122,299.992L397.361,299.996L399.6,299.998L401.839,299.999L404.078,299.999L406.317,300L408.556,300L410.794,300L413.033,300L415.272,300L417.511,300L419.75,300L421.989,300L424.228,300L426.467,300L428.706,300L430.944,300L433.183,300L435.422,300L437.661,300L439.9,300L442.139,300L444.378,300L446.617,300L448.856,300L451.094,300L453.333,300" stroke="#f58518" stroke-width="2"/></g></g><path class="foreground" aria-hidden="true" d="" display="none"/></g><g transform="translate(0,0)"><path class="background" aria-hidden="true" d="M0,0h500v300h-500Z"/><g><g class="mark-line role-mark layer_1_marks" role="graphics-object" aria-roledescription="line mark container"><path aria-label="Sequence Length: 20; Density: 0.00124357910119; Split: newPISCES364" role="graphics-symbol" aria-roledescription="line mark" d="M5.556,237.821L7.794,225.818L10.033,213.248L12.272,200.487L14.511,187.944L16.75,176.037L18.989,165.159L21.228,155.651L23.467,147.776L25.706,141.705L27.944,137.514L30.183,135.181L32.422,134.603L34.661,135.606L36.9,137.967L39.139,141.434L41.378,145.744L43.617,150.64L45.856,155.886L48.094,161.272L50.333,166.628L52.572,171.82L54.811,176.756L57.05,181.383L59.289,185.686L61.528,189.681L63.767,193.413L66.006,196.944L68.244,200.353L70.483,203.717L72.722,207.11L74.961,210.588L77.2,214.187L79.439,217.912L81.678,221.739L83.917,225.612L86.156,229.453L88.394,233.167L90.633,236.653L92.872,239.818L95.111,242.586L97.35,244.911L99.589,246.777L101.828,248.208L104.067,249.258L106.306,250.012L108.544,250.57L110.783,251.041L113.022,251.529L115.261,252.124L117.5,252.897L119.739,253.891L121.978,255.126L124.217,256.596L126.456,258.277L128.694,260.132L130.933,262.116L133.172,264.185L135.411,266.297L137.65,268.414L139.889,270.507L142.128,272.551L144.367,274.527L146.606,276.419L148.844,278.212L151.083,279.894L153.322,281.457L155.561,282.892L157.8,284.196L160.039,285.37L162.278,286.42L164.517,287.356L166.756,288.193L168.994,288.95L171.233,289.643L173.472,290.292L175.711,290.913L177.95,291.516L180.189,292.108L182.428,292.69L184.667,293.257L186.906,293.799L189.144,294.307L191.383,294.768L193.622,295.173L195.861,295.517L198.1,295.798L200.339,296.021L202.578,296.194L204.817,296.328L207.056,296.438L209.294,296.536L211.533,296.634L213.772,296.74L216.011,296.859L218.25,296.989L220.489,297.127L222.728,297.266L224.967,297.398L227.206,297.514L229.444,297.607L231.683,297.672L233.922,297.708L236.161,297.716L238.4,297.702L240.639,297.671L242.878,297.633L245.117,297.595L247.356,297.564L249.594,297.546L251.833,297.545L254.072,297.562L256.311,297.597L258.55,297.65L260.789,297.719L263.028,297.804L265.267,297.903L267.506,298.015L269.744,298.14L271.983,298.278L274.222,298.427L276.461,298.585L278.7,298.749L280.939,298.914L283.178,299.076L285.417,299.231L287.656,299.374L289.894,299.503L292.133,299.615L294.372,299.709L296.611,299.785L298.85,299.846L301.089,299.892L303.328,299.927L305.567,299.952L307.806,299.969L310.044,299.98L312.283,299.988L314.522,299.993L316.761,299.996L319,299.998L321.239,299.999L323.478,299.999L325.717,300L327.956,300L330.194,300L332.433,300L334.672,300L336.911,300L339.15,300L341.389,300L343.628,300L345.867,300L348.106,300L350.344,300L352.583,300L354.822,300L357.061,300L359.3,300L361.539,300L363.778,300L366.017,300L368.256,300L370.494,300L372.733,300L374.972,300L377.211,300L379.45,300L381.689,300L383.928,300L386.167,300L388.406,300L390.644,299.999L392.883,299.998L395.122,299.997L397.361,299.995L399.6,299.992L401.839,299.986L404.078,299.977L406.317,299.964L408.556,299.945L410.794,299.918L413.033,299.881L415.272,299.832L417.511,299.77L419.75,299.694L421.989,299.604L424.228,299.501L426.467,299.39L428.706,299.274L430.944,299.16L433.183,299.056L435.422,298.968L437.661,298.903L439.9,298.866L442.139,298.861L444.378,298.887L446.617,298.943L448.856,299.024L451.094,299.124L453.333,299.236" stroke="#e45756" stroke-width="2"/></g></g><path class="foreground" aria-hidden="true" d="" display="none"/></g><g transform="translate(0,0)"><path class="background" aria-hidden="true" d="M0,0h500v300h-500Z"/><g><g class="mark-line role-mark layer_1_marks" role="graphics-object" aria-roledescription="line mark container"><path aria-label="Sequence Length: 20; Density: 0.00103135639441; Split: casp12" role="graphics-symbol" aria-roledescription="line mark" d="M5.556,248.432L7.794,244.047L10.033,239.615L12.272,235.179L14.511,230.784L16.75,226.477L18.989,222.305L21.228,218.314L23.467,214.548L25.706,211.05L27.944,207.855L30.183,204.997L32.422,202.501L34.661,200.386L36.9,198.664L39.139,197.342L41.378,196.415L43.617,195.875L45.856,195.704L48.094,195.881L50.333,196.378L52.572,197.164L54.811,198.204L57.05,199.461L59.289,200.9L61.528,202.483L63.767,204.177L66.006,205.95L68.244,207.774L70.483,209.626L72.722,211.485L74.961,213.338L77.2,215.176L79.439,216.992L81.678,218.787L83.917,220.563L86.156,222.325L88.394,224.083L90.633,225.843L92.872,227.616L95.111,229.411L97.35,231.234L99.589,233.092L101.828,234.988L104.067,236.922L106.306,238.891L108.544,240.891L110.783,242.911L113.022,244.942L115.261,246.969L117.5,248.976L119.739,250.949L121.978,252.869L124.217,254.719L126.456,256.484L128.694,258.148L130.933,259.7L133.172,261.129L135.411,262.428L137.65,263.593L139.889,264.623L142.128,265.52L144.367,266.291L146.606,266.943L148.844,267.489L151.083,267.942L153.322,268.318L155.561,268.634L157.8,268.908L160.039,269.158L162.278,269.403L164.517,269.658L166.756,269.942L168.994,270.267L171.233,270.648L173.472,271.093L175.711,271.612L177.95,272.21L180.189,272.889L182.428,273.651L184.667,274.494L186.906,275.413L189.144,276.402L191.383,277.454L193.622,278.56L195.861,279.708L198.1,280.889L200.339,282.091L202.578,283.302L204.817,284.512L207.056,285.708L209.294,286.881L211.533,288.021L213.772,289.121L216.011,290.173L218.25,291.171L220.489,292.112L222.728,292.991L224.967,293.806L227.206,294.557L229.444,295.244L231.683,295.867L233.922,296.429L236.161,296.932L238.4,297.379L240.639,297.774L242.878,298.12L245.117,298.421L247.356,298.682L249.594,298.906L251.833,299.097L254.072,299.259L256.311,299.396L258.55,299.51L260.789,299.605L263.028,299.684L265.267,299.748L267.506,299.8L269.744,299.843L271.983,299.877L274.222,299.904L276.461,299.926L278.7,299.943L280.939,299.956L283.178,299.967L285.417,299.975L287.656,299.981L289.894,299.985L292.133,299.989L294.372,299.991L296.611,299.993L298.85,299.994L301.089,299.994L303.328,299.994L305.567,299.993L307.806,299.991L310.044,299.989L312.283,299.986L314.522,299.982L316.761,299.976L319,299.969L321.239,299.959L323.478,299.947L325.717,299.932L327.956,299.913L330.194,299.89L332.433,299.861L334.672,299.826L336.911,299.782L339.15,299.73L341.389,299.667L343.628,299.593L345.867,299.504L348.106,299.401L350.344,299.28L352.583,299.14L354.822,298.979L357.061,298.796L359.3,298.588L361.539,298.356L363.778,298.097L366.017,297.811L368.256,297.497L370.494,297.157L372.733,296.79L374.972,296.399L377.211,295.986L379.45,295.552L381.689,295.103L383.928,294.642L386.167,294.174L388.406,293.705L390.644,293.241L392.883,292.787L395.122,292.351L397.361,291.939L399.6,291.558L401.839,291.215L404.078,290.914L406.317,290.662L408.556,290.462L410.794,290.319L413.033,290.235L415.272,290.212L417.511,290.25L419.75,290.348L421.989,290.506L424.228,290.718L426.467,290.983L428.706,291.295L430.944,291.648L433.183,292.037L435.422,292.455L437.661,292.896L439.9,293.353L442.139,293.819L444.378,294.288L446.617,294.755L448.856,295.214L451.094,295.659L453.333,296.088" stroke="#72b7b2" stroke-width="2"/></g></g><path class="foreground" aria-hidden="true" d="" display="none"/></g><g transform="translate(0,0)"><path class="background" aria-hidden="true" d="M0,0h500v300h-500Z"/><g><g class="mark-line role-mark layer_1_marks" role="graphics-object" aria-roledescription="line mark container"><path aria-label="Sequence Length: 20; Density: 0.00176659844361; Split: casp13" role="graphics-symbol" aria-roledescription="line mark" d="M5.556,211.67L7.794,205.014L10.033,198.625L12.272,192.615L14.511,187.089L16.75,182.144L18.989,177.866L21.228,174.328L23.467,171.582L25.706,169.663L27.944,168.584L30.183,168.334L32.422,168.884L34.661,170.18L36.9,172.153L39.139,174.714L41.378,177.762L43.617,181.185L45.856,184.868L48.094,188.688L50.333,192.529L52.572,196.278L54.811,199.83L57.05,203.093L59.289,205.992L61.528,208.465L63.767,210.472L66.006,211.99L68.244,213.019L70.483,213.576L72.722,213.698L74.961,213.441L77.2,212.874L79.439,212.079L81.678,211.149L83.917,210.183L86.156,209.282L88.394,208.545L90.633,208.067L92.872,207.933L95.111,208.215L97.35,208.973L99.589,210.247L101.828,212.06L104.067,214.414L106.306,217.294L108.544,220.666L110.783,224.481L113.022,228.677L115.261,233.181L117.5,237.913L119.739,242.79L121.978,247.728L124.217,252.647L126.456,257.472L128.694,262.137L130.933,266.584L133.172,270.768L135.411,274.654L137.65,278.219L139.889,281.448L142.128,284.34L144.367,286.899L146.606,289.139L148.844,291.077L151.083,292.734L153.322,294.138L155.561,295.313L157.8,296.286L160.039,297.084L162.278,297.731L164.517,298.251L166.756,298.664L168.994,298.988L171.233,299.241L173.472,299.436L175.711,299.584L177.95,299.697L180.189,299.781L182.428,299.843L184.667,299.888L186.906,299.921L189.144,299.945L191.383,299.962L193.622,299.974L195.861,299.982L198.1,299.988L200.339,299.992L202.578,299.995L204.817,299.997L207.056,299.998L209.294,299.999L211.533,299.999L213.772,299.999L216.011,300L218.25,300L220.489,300L222.728,300L224.967,300L227.206,300L229.444,300L231.683,300L233.922,300L236.161,300L238.4,300L240.639,300L242.878,300L245.117,300L247.356,300L249.594,300L251.833,300L254.072,300L256.311,300L258.55,300L260.789,300L263.028,300L265.267,300L267.506,300L269.744,300L271.983,300L274.222,300L276.461,300L278.7,300L280.939,300L283.178,300L285.417,300L287.656,300L289.894,300L292.133,300L294.372,300L296.611,300L298.85,300L301.089,300L303.328,300L305.567,300L307.806,300L310.044,300L312.283,300L314.522,300L316.761,300L319,300L321.239,300L323.478,300L325.717,300L327.956,300L330.194,300L332.433,300L334.672,300L336.911,300L339.15,300L341.389,300L343.628,300L345.867,300L348.106,300L350.344,300L352.583,300L354.822,300L357.061,300L359.3,300L361.539,300L363.778,300L366.017,300L368.256,300L370.494,300L372.733,300L374.972,300L377.211,300L379.45,300L381.689,300L383.928,300L386.167,300L388.406,300L390.644,300L392.883,300L395.122,300L397.361,300L399.6,300L401.839,300L404.078,300L406.317,300L408.556,300L410.794,300L413.033,300L415.272,300L417.511,300L419.75,300L421.989,300L424.228,300L426.467,300L428.706,300L430.944,300L433.183,300L435.422,300L437.661,300L439.9,300L442.139,300L444.378,300L446.617,300L448.856,300L451.094,300L453.333,300" stroke="#54a24b" stroke-width="2"/></g></g><path class="foreground" aria-hidden="true" d="" display="none"/></g><g transform="translate(0,0)"><path class="background" aria-hidden="true" d="M0,0h500v300h-500Z"/><g><g class="mark-line role-mark layer_1_marks" role="graphics-object" aria-roledescription="line mark container"><path aria-label="Sequence Length: 20; Density: 0.000495052914164; Split: casp14" role="graphics-symbol" aria-roledescription="line mark" d="M5.556,275.247L7.794,264.321L10.033,250.27L12.272,232.933L14.511,212.418L16.75,189.15L18.989,163.882L21.228,137.646L23.467,111.653L25.706,87.166L27.944,65.357L30.183,47.187L32.422,33.321L34.661,24.099L36.9,19.558L39.139,19.48L41.378,23.475L43.617,31.053L45.856,41.688L48.094,54.861L50.333,70.083L52.572,86.895L54.811,104.862L57.05,123.564L59.289,142.591L61.528,161.538L63.767,180.016L66.006,197.669L68.244,214.179L70.483,229.291L72.722,242.814L74.961,254.624L77.2,264.666L79.439,272.943L81.678,279.504L83.917,284.433L86.156,287.837L88.394,289.835L90.633,290.557L92.872,290.141L95.111,288.75L97.35,286.574L99.589,283.846L101.828,280.838L104.067,277.858L106.306,275.221L108.544,273.219L110.783,272.082L113.022,271.947L115.261,272.835L117.5,274.655L119.739,277.217L121.978,280.269L124.217,283.537L126.456,286.767L128.694,289.752L130.933,292.354L133.172,294.504L135.411,296.194L137.65,297.461L139.889,298.368L142.128,298.99L144.367,299.397L146.606,299.654L148.844,299.808L151.083,299.898L153.322,299.947L155.561,299.974L157.8,299.988L160.039,299.994L162.278,299.997L164.517,299.999L166.756,300L168.994,300L171.233,300L173.472,300L175.711,300L177.95,300L180.189,300L182.428,300L184.667,300L186.906,300L189.144,300L191.383,300L193.622,300L195.861,300L198.1,300L200.339,300L202.578,299.999L204.817,299.998L207.056,299.996L209.294,299.992L211.533,299.983L213.772,299.964L216.011,299.929L218.25,299.864L220.489,299.749L222.728,299.554L224.967,299.237L227.206,298.743L229.444,298.003L231.683,296.944L233.922,295.495L236.161,293.602L238.4,291.245L240.639,288.46L242.878,285.344L245.117,282.068L247.356,278.864L249.594,275.998L251.833,273.741L254.072,272.323L256.311,271.896L258.55,272.506L260.789,274.088L263.028,276.473L265.267,279.419L267.506,282.656L269.744,285.918L271.983,288.985L274.222,291.7L276.461,293.974L278.7,295.785L280.939,297.16L283.178,298.156L285.417,298.847L287.656,299.305L289.894,299.597L292.133,299.774L294.372,299.878L296.611,299.937L298.85,299.968L301.089,299.985L303.328,299.993L305.567,299.997L307.806,299.999L310.044,299.999L312.283,300L314.522,300L316.761,300L319,300L321.239,300L323.478,300L325.717,300L327.956,300L330.194,300L332.433,300L334.672,300L336.911,300L339.15,300L341.389,300L343.628,300L345.867,300L348.106,300L350.344,300L352.583,300L354.822,300L357.061,300L359.3,300L361.539,300L363.778,300L366.017,300L368.256,300L370.494,300L372.733,300L374.972,300L377.211,300L379.45,300L381.689,300L383.928,300L386.167,300L388.406,300L390.644,300L392.883,300L395.122,300L397.361,300L399.6,300L401.839,300L404.078,300L406.317,300L408.556,300L410.794,300L413.033,300L415.272,300L417.511,300L419.75,300L421.989,300L424.228,300L426.467,300L428.706,300L430.944,300L433.183,300L435.422,300L437.661,300L439.9,300L442.139,300L444.378,300L446.617,300L448.856,300L451.094,300L453.333,300" stroke="#eeca3b" stroke-width="2"/></g></g><path class="foreground" aria-hidden="true" d="" display="none"/></g></g><g class="mark-group role-legend" role="graphics-symbol" aria-roledescription="legend" aria-label="Symbol legend titled 'Split' for fill color and stroke color with 6 values: train, val, newPISCES364, casp12, casp13, casp14"><g transform="translate(518,0)"><path class="background" aria-hidden="true" d="M0,0h88v109h-88Z" pointer-events="none"/><g><g class="mark-group role-legend-entry"><g transform="translate(0,16)"><path class="background" aria-hidden="true" d="M0,0h0v0h0Z" pointer-events="none"/><g><g class="mark-group role-scope" role="graphics-object" aria-roledescription="group mark container"><g transform="translate(0,0)"><path class="background" aria-hidden="true" d="M0,0h87.708984375v12.5h-87.708984375Z" pointer-events="none" opacity="1"/><g><g class="mark-symbol role-legend-symbol" pointer-events="none"><path transform="translate(6,6)" d="M5,0A5,5,0,1,1,-5,0A5,5,0,1,1,5,0" fill="#4c78a8" stroke="#4c78a8" stroke-width="1.5" opacity="0.4"/></g><g class="mark-text role-legend-label" pointer-events="none"><text text-anchor="start" transform="translate(16,9)" font-family="sans-serif" font-size="10px" fill="#000" opacity="1">train</text></g></g><path class="foreground" aria-hidden="true" d="" pointer-events="none" display="none"/></g><g transform="translate(0,16)"><path class="background" aria-hidden="true" d="M0,0h87.708984375v12.5h-87.708984375Z" pointer-events="none" opacity="1"/><g><g class="mark-symbol role-legend-symbol" pointer-events="none"><path transform="translate(6,6)" d="M5,0A5,5,0,1,1,-5,0A5,5,0,1,1,5,0" fill="#f58518" stroke="#f58518" stroke-width="1.5" opacity="0.4"/></g><g class="mark-text role-legend-label" pointer-events="none"><text text-anchor="start" transform="translate(16,9)" font-family="sans-serif" font-size="10px" fill="#000" opacity="1">val</text></g></g><path class="foreground" aria-hidden="true" d="" pointer-events="none" display="none"/></g><g transform="translate(0,32)"><path class="background" aria-hidden="true" d="M0,0h87.708984375v12.5h-87.708984375Z" pointer-events="none" opacity="1"/><g><g class="mark-symbol role-legend-symbol" pointer-events="none"><path transform="translate(6,6)" d="M5,0A5,5,0,1,1,-5,0A5,5,0,1,1,5,0" fill="#e45756" stroke="#e45756" stroke-width="1.5" opacity="0.4"/></g><g class="mark-text role-legend-label" pointer-events="none"><text text-anchor="start" transform="translate(16,9)" font-family="sans-serif" font-size="10px" fill="#000" opacity="1">newPISCES364</text></g></g><path class="foreground" aria-hidden="true" d="" pointer-events="none" display="none"/></g><g transform="translate(0,48)"><path class="background" aria-hidden="true" d="M0,0h87.708984375v12.5h-87.708984375Z" pointer-events="none" opacity="1"/><g><g class="mark-symbol role-legend-symbol" pointer-events="none"><path transform="translate(6,6)" d="M5,0A5,5,0,1,1,-5,0A5,5,0,1,1,5,0" fill="#72b7b2" stroke="#72b7b2" stroke-width="1.5" opacity="0.4"/></g><g class="mark-text role-legend-label" pointer-events="none"><text text-anchor="start" transform="translate(16,9)" font-family="sans-serif" font-size="10px" fill="#000" opacity="1">casp12</text></g></g><path class="foreground" aria-hidden="true" d="" pointer-events="none" display="none"/></g><g transform="translate(0,64)"><path class="background" aria-hidden="true" d="M0,0h87.708984375v12.5h-87.708984375Z" pointer-events="none" opacity="1"/><g><g class="mark-symbol role-legend-symbol" pointer-events="none"><path transform="translate(6,6)" d="M5,0A5,5,0,1,1,-5,0A5,5,0,1,1,5,0" fill="#54a24b" stroke="#54a24b" stroke-width="1.5" opacity="0.4"/></g><g class="mark-text role-legend-label" pointer-events="none"><text text-anchor="start" transform="translate(16,9)" font-family="sans-serif" font-size="10px" fill="#000" opacity="1">casp13</text></g></g><path class="foreground" aria-hidden="true" d="" pointer-events="none" display="none"/></g><g transform="translate(0,80)"><path class="background" aria-hidden="true" d="M0,0h87.708984375v12.5h-87.708984375Z" pointer-events="none" opacity="1"/><g><g class="mark-symbol role-legend-symbol" pointer-events="none"><path transform="translate(6,6)" d="M5,0A5,5,0,1,1,-5,0A5,5,0,1,1,5,0" fill="#eeca3b" stroke="#eeca3b" stroke-width="1.5" opacity="0.4"/></g><g class="mark-text role-legend-label" pointer-events="none"><text text-anchor="start" transform="translate(16,9)" font-family="sans-serif" font-size="10px" fill="#000" opacity="1">casp14</text></g></g><path class="foreground" aria-hidden="true" d="" pointer-events="none" display="none"/></g></g></g><path class="foreground" aria-hidden="true" d="" pointer-events="none" display="none"/></g></g><g class="mark-text role-legend-title" pointer-events="none"><text text-anchor="start" transform="translate(0,9)" font-family="sans-serif" font-size="11px" font-weight="bold" fill="#000" opacity="1">Split</text></g></g><path class="foreground" aria-hidden="true" d="" pointer-events="none" display="none"/></g></g><g class="mark-group role-title"><g transform="translate(250,-36)"><path class="background" aria-hidden="true" d="M0,0h0v0h0Z" pointer-events="none"/><g><g class="mark-text role-title-text" role="graphics-symbol" aria-roledescription="title" aria-label="Title text 'Sequence Length Distribution'" pointer-events="none"><text text-anchor="middle" transform="translate(0,10)" font-family="sans-serif" font-size="13px" font-weight="bold" fill="#000" opacity="1">Sequence Length Distribution</text></g><g class="mark-text role-title-subtitle" role="graphics-symbol" aria-roledescription="subtitle" aria-label="Subtitle text 'casp12: μ=340.05, σ=324.52 | casp13: μ=198.58, σ=129.85 | casp14: μ=208.94, σ=198.50 | newPISCES364: μ=232.26, σ=177.53 | train: μ=255.33, σ=161.18 | val: μ=259.98, σ=168.55'" pointer-events="none"><text text-anchor="middle" transform="translate(0,25)" font-family="sans-serif" font-size="12px" fill="#000" opacity="1">casp12: μ=340.05, σ=324.52 | casp13: μ=198.58, σ=129.85 | casp14: μ=208.94, σ=198.50 | newPISCES364: μ=232.26, σ=177.53 | train: μ=255.33, σ=161.18 | val: μ=259.98, σ=168.55</text></g></g><path class="foreground" aria-hidden="true" d="" pointer-events="none" display="none"/></g></g></g><path class="foreground" aria-hidden="true" d="" display="none"/></g></g></g></svg>