<svg xmlns="http://www.w3.org/2000/svg" xmlns:xlink="http://www.w3.org/1999/xlink" version="1.1" class="marks" width="477" height="362" viewBox="0 0 477 362"><rect width="477" height="362" fill="white"/><g fill="none" stroke-miterlimit="10" transform="translate(72,22)"><g class="mark-group role-frame root" role="graphics-object" aria-roledescription="group mark container"><g transform="translate(0,0)"><path class="background" aria-hidden="true" d="M0.5,0.5h400v300h-400Z" stroke="#ddd"/><g><g class="mark-group role-axis" aria-hidden="true"><g transform="translate(0.5,0.5)"><path class="background" aria-hidden="true" d="M0,0h0v0h0Z" pointer-events="none"/><g><g class="mark-rule role-axis-grid" pointer-events="none"><line transform="translate(0,300)" x2="400" y2="0" stroke="#ddd" stroke-width="1" opacity="1"/><line transform="translate(0,254)" x2="400" y2="0" stroke="#ddd" stroke-width="1" opacity="1"/><line transform="translate(0,208)" x2="400" y2="0" stroke="#ddd" stroke-width="1" opacity="1"/><line transform="translate(0,162)" x2="400" y2="0" stroke="#ddd" stroke-width="1" opacity="1"/><line transform="translate(0,115)" x2="400" y2="0" stroke="#ddd" stroke-width="1" opacity="1"/><line transform="translate(0,69)" x2="400" y2="0" stroke="#ddd" stroke-width="1" opacity="1"/><line transform="translate(0,23)" x2="400" y2="0" stroke="#ddd" stroke-width="1" opacity="1"/></g></g><path class="foreground" aria-hidden="true" d="" pointer-events="none" display="none"/></g></g><g class="mark-group role-axis" role="graphics-symbol" aria-roledescription="axis" aria-label="X-axis titled 'Residue Label' for a discrete scale with 3 values: C, E, H"><g transform="translate(0.5,300.5)"><path class="background" aria-hidden="true" d="M0,0h0v0h0Z" pointer-events="none"/><g><g class="mark-rule role-axis-tick" pointer-events="none"><line transform="translate(66,0)" x2="0" y2="5" stroke="#888" stroke-width="1" opacity="1"/><line transform="translate(200,0)" x2="0" y2="5" stroke="#888" stroke-width="1" opacity="1"/><line transform="translate(333,0)" x2="0" y2="5" stroke="#888" stroke-width="1" opacity="1"/></g><g class="mark-text role-axis-label" pointer-events="none"><text text-anchor="end" transform="translate(66.16666666666666,7) rotate(315) translate(0,8)" font-family="sans-serif" font-size="10px" fill="#000" opacity="1">C</text><text text-anchor="end" transform="translate(199.5,7) rotate(315) translate(0,8)" font-family="sans-serif" font-size="10px" fill="#000" opacity="1">E</text><text text-anchor="end" transform="translate(332.83333333333337,7) rotate(315) translate(0,8)" font-family="sans-serif" font-size="10px" fill="#000" opacity="1">H</text></g><g class="mark-rule role-axis-domain" pointer-events="none"><line transform="translate(0,0)" x2="400" y2="0" stroke="#888" stroke-width="1" opacity="1"/></g><g class="mark-text role-axis-title" pointer-events="none"><text text-anchor="middle" transform="translate(200,32.1775664904539)" font-family="sans-serif" font-size="11px" font-weight="bold" fill="#000" opacity="1">Residue Label</text></g></g><path class="foreground" aria-hidden="true" d="" pointer-events="none" display="none"/></g></g><g class="mark-group role-axis" role="graphics-symbol" aria-roledescription="axis" aria-label="Y-axis titled 'Number of Residues' for a linear scale with values from 0 to 1,300,000"><g transform="translate(0.5,0.5)"><path class="background" aria-hidden="true" d="M0,0h0v0h0Z" pointer-events="none"/><g><g class="mark-rule role-axis-tick" pointer-events="none"><line transform="translate(0,300)" x2="-5" y2="0" stroke="#888" stroke-width="1" opacity="1"/><line transform="translate(0,254)" x2="-5" y2="0" stroke="#888" stroke-width="1" opacity="1"/><line transform="translate(0,208)" x2="-5" y2="0" stroke="#888" stroke-width="1" opacity="1"/><line transform="translate(0,162)" x2="-5" y2="0" stroke="#888" stroke-width="1" opacity="1"/><line transform="translate(0,115)" x2="-5" y2="0" stroke="#888" stroke-width="1" opacity="1"/><line transform="translate(0,69)" x2="-5" y2="0" stroke="#888" stroke-width="1" opacity="1"/><line transform="translate(0,23)" x2="-5" y2="0" stroke="#888" stroke-width="1" opacity="1"/></g><g class="mark-text role-axis-label" pointer-events="none"><text text-anchor="end" transform="translate(-7,303)" font-family="sans-serif" font-size="10px" fill="#000" opacity="1">0</text><text text-anchor="end" transform="translate(-7,256.8461538461538)" font-family="sans-serif" font-size="10px" fill="#000" opacity="1">200,000</text><text text-anchor="end" transform="translate(-7,210.69230769230768)" font-family="sans-serif" font-size="10px" fill="#000" opacity="1">400,000</text><text text-anchor="end" transform="translate(-7,164.53846153846152)" font-family="sans-serif" font-size="10px" fill="#000" opacity="1">600,000</text><text text-anchor="end" transform="translate(-7,118.38461538461537)" font-family="sans-serif" font-size="10px" fill="#000" opacity="1">800,000</text><text text-anchor="end" transform="translate(-7,72.23076923076921)" font-family="sans-serif" font-size="10px" fill="#000" opacity="1">1,000,000</text><text text-anchor="end" transform="translate(-7,26.076923076923062)" font-family="sans-serif" font-size="10px" fill="#000" opacity="1">1,200,000</text></g><g class="mark-rule role-axis-domain" pointer-events="none"><line transform="translate(0,300)" x2="0" y2="-300" stroke="#888" stroke-width="1" opacity="1"/></g><g class="mark-text role-axis-title" pointer-events="none"><text text-anchor="middle" transform="translate(-55.4873046875,150) rotate(-90) translate(0,-2)" font-family="sans-serif" font-size="11px" font-weight="bold" fill="#000" opacity="1">Number of Residues</text></g></g><path class="foreground" aria-hidden="true" d="" pointer-events="none" display="none"/></g></g><g class="mark-group role-scope" role="graphics-object" aria-roledescription="group mark container"><g transform="translate(6.666666666666657,18.832846153846162)"><path class="background" aria-hidden="true" d="M4,0L116.00000000000001,0C118.20766009797602,0,120.00000000000001,1.792339902024,120.00000000000001,4L120.00000000000001,277.16715384615384C120.00000000000001,279.3748139441298,118.20766009797602,281.16715384615384,116.00000000000001,281.16715384615384L4,281.16715384615384C1.792339902024,281.16715384615384,0,279.3748139441298,0,277.16715384615384L0,4C0,1.792339902024,1.792339902024,0,4,0Z"/><g clip-path="url(#clip143)"><g class="mark-group role-scope" role="graphics-object" aria-roledescription="group mark container"><g transform="translate(0,-18.832846153846162)"><path class="background" aria-hidden="true" d="M0,0h120.00000000000001v0h-120.00000000000001Z"/><g><g class="mark-rect role-mark marks" role="graphics-object" aria-roledescription="rect mark container"><path aria-label="Residue Label: C; Number of Residues: 1218391; label: C; Label: C; Count: 1218391; Percentage: 42.6" role="graphics-symbol" aria-roledescription="bar" d="M0,18.832846153846162h120.00000000000001v281.16715384615384h-120.00000000000001Z" fill="#4c78a8" opacity="0.8"/></g></g><path class="foreground" aria-hidden="true" d="" display="none"/></g></g></g><path class="foreground" aria-hidden="true" d="" display="none"/></g><g transform="translate(140,160.27592307692308)"><path class="background" aria-hidden="true" d="M4,0L116.00000000000001,0C118.20766009797602,0,120.00000000000001,1.792339902024,120.00000000000001,4L120.00000000000001,135.72407692307692C120.00000000000001,137.93173702105292,118.20766009797602,139.72407692307692,116.00000000000001,139.72407692307692L4,139.72407692307692C1.792339902024,139.72407692307692,0,137.93173702105292,0,135.72407692307692L0,4C0,1.792339902024,1.792339902024,0,4,0Z"/><g clip-path="url(#clip144)"><g class="mark-group role-scope" role="graphics-object" aria-roledescription="group mark container"><g transform="translate(0,-160.27592307692308)"><path class="background" aria-hidden="true" d="M0,0h120.00000000000001v0h-120.00000000000001Z"/><g><g class="mark-rect role-mark marks" role="graphics-object" aria-roledescription="rect mark container"><path aria-label="Residue Label: E; Number of Residues: 605471; label: E; Label: E; Count: 605471; Percentage: 21.2" role="graphics-symbol" aria-roledescription="bar" d="M0,160.27592307692308h120.00000000000001v139.72407692307692h-120.00000000000001Z" fill="#f58518" opacity="0.8"/></g></g><path class="foreground" aria-hidden="true" d="" display="none"/></g></g></g><path class="foreground" aria-hidden="true" d="" display="none"/></g><g transform="translate(273.33333333333337,61.39200000000001)"><path class="background" aria-hidden="true" d="M4,0L116.00000000000001,0C118.20766009797602,0,120.00000000000001,1.792339902024,120.00000000000001,4L120.00000000000001,234.608C120.00000000000001,236.815660097976,118.20766009797602,238.608,116.00000000000001,238.608L4,238.608C1.792339902024,238.608,0,236.815660097976,0,234.608L0,4C0,1.792339902024,1.792339902024,0,4,0Z"/><g clip-path="url(#clip145)"><g class="mark-group role-scope" role="graphics-object" aria-roledescription="group mark container"><g transform="translate(0,-61.39200000000001)"><path class="background" aria-hidden="true" d="M0,0h120.00000000000001v0h-120.00000000000001Z"/><g><g class="mark-rect role-mark marks" role="graphics-object" aria-roledescription="rect mark container"><path aria-label="Residue Label: H; Number of Residues: 1033968; label: H; Label: H; Count: 1033968; Percentage: 36.2" role="graphics-symbol" aria-roledescription="bar" d="M0,61.39200000000001h120.00000000000001v238.608h-120.00000000000001Z" fill="#e45756" opacity="0.8"/></g></g><path class="foreground" aria-hidden="true" d="" display="none"/></g></g></g><path class="foreground" aria-hidden="true" d="" display="none"/></g></g><g class="mark-group role-title"><g transform="translate(200,-17)"><path class="background" aria-hidden="true" d="M0,0h0v0h0Z" pointer-events="none"/><g><g class="mark-text role-title-text" role="graphics-symbol" aria-roledescription="title" aria-label="Title text 'Per-Residue Label Distribution'" pointer-events="none"><text text-anchor="middle" transform="translate(0,10)" font-family="sans-serif" font-size="13px" font-weight="bold" fill="#000" opacity="1">Per-Residue Label Distribution</text></g></g><path class="foreground" aria-hidden="true" d="" pointer-events="none" display="none"/></g></g></g><path class="foreground" aria-hidden="true" d="" display="none"/></g></g></g><defs><clipPath id="clip143"><path d="M4,0L116.00000000000001,0C118.20766009797602,0,120.00000000000001,1.792339902024,120.00000000000001,4L120.00000000000001,277.16715384615384C120.00000000000001,279.3748139441298,118.20766009797602,281.16715384615384,116.00000000000001,281.16715384615384L4,281.16715384615384C1.792339902024,281.16715384615384,0,279.3748139441298,0,277.16715384615384L0,4C0,1.792339902024,1.792339902024,0,4,0Z"/></clipPath><clipPath id="clip144"><path d="M4,0L116.00000000000001,0C118.20766009797602,0,120.00000000000001,1.792339902024,120.00000000000001,4L120.00000000000001,135.72407692307692C120.00000000000001,137.93173702105292,118.20766009797602,139.72407692307692,116.00000000000001,139.72407692307692L4,139.72407692307692C1.792339902024,139.72407692307692,0,137.93173702105292,0,135.72407692307692L0,4C0,1.792339902024,1.792339902024,0,4,0Z"/></clipPath><clipPath id="clip145"><path d="M4,0L116.00000000000001,0C118.20766009797602,0,120.00000000000001,1.792339902024,120.00000000000001,4L120.00000000000001,234.608C120.00000000000001,236.815660097976,118.20766009797602,238.608,116.00000000000001,238.608L4,238.608C1.792339902024,238.608,0,236.815660097976,0,234.608L0,4C0,1.792339902024,1.792339902024,0,4,0Z"/></clipPath></defs></svg>