<svg xmlns="http://www.w3.org/2000/svg" xmlns:xlink="http://www.w3.org/1999/xlink" version="1.1" class="marks" width="751" height="511" viewBox="0 0 751 511"><rect width="751" height="511" fill="white"/><g fill="none" stroke-miterlimit="10" transform="translate(70,56)"><g class="mark-group role-frame root" role="graphics-object" aria-roledescription="group mark container"><g transform="translate(0,0)"><path class="background" aria-hidden="true" d="M0.5,0.5h600v400h-600Z" stroke="#ddd"/><g><g class="mark-group role-axis" aria-hidden="true"><g transform="translate(0.5,0.5)"><path class="background" aria-hidden="true" d="M0,0h0v0h0Z" pointer-events="none"/><g><g class="mark-rule role-axis-grid" pointer-events="none"><line transform="translate(0,400)" x2="600" y2="0" stroke="#ddd" stroke-width="1" opacity="1"/><line transform="translate(0,367)" x2="600" y2="0" stroke="#ddd" stroke-width="1" opacity="1"/><line transform="translate(0,333)" x2="600" y2="0" stroke="#ddd" stroke-width="1" opacity="1"/><line transform="translate(0,300)" x2="600" y2="0" stroke="#ddd" stroke-width="1" opacity="1"/><line transform="translate(0,267)" x2="600" y2="0" stroke="#ddd" stroke-width="1" opacity="1"/><line transform="translate(0,233)" x2="600" y2="0" stroke="#ddd" stroke-width="1" opacity="1"/><line transform="translate(0,200)" x2="600" y2="0" stroke="#ddd" stroke-width="1" opacity="1"/><line transform="translate(0,167)" x2="600" y2="0" stroke="#ddd" stroke-width="1" opacity="1"/><line transform="translate(0,133)" x2="600" y2="0" stroke="#ddd" stroke-width="1" opacity="1"/><line transform="translate(0,100)" x2="600" y2="0" stroke="#ddd" stroke-width="1" opacity="1"/><line transform="translate(0,67)" x2="600" y2="0" stroke="#ddd" stroke-width="1" opacity="1"/><line transform="translate(0,33)" x2="600" y2="0" stroke="#ddd" stroke-width="1" opacity="1"/><line transform="translate(0,0)" x2="600" y2="0" stroke="#ddd" stroke-width="1" opacity="1"/></g></g><path class="foreground" aria-hidden="true" d="" pointer-events="none" display="none"/></g></g><g class="mark-group role-axis" role="graphics-symbol" aria-roledescription="axis" aria-label="X-axis titled 'Sequence Length' for a linear scale with values from 0 to 650"><g transform="translate(0.5,400.5)"><path class="background" aria-hidden="true" d="M0,0h0v0h0Z" pointer-events="none"/><g><g class="mark-rule role-axis-tick" pointer-events="none"><line transform="translate(18,0)" x2="0" y2="5" stroke="#888" stroke-width="1" opacity="1"/><line transform="translate(37,0)" x2="0" y2="5" stroke="#888" stroke-width="1" opacity="1"/><line transform="translate(55,0)" x2="0" y2="5" stroke="#888" stroke-width="1" opacity="1"/><line transform="translate(74,0)" x2="0" y2="5" stroke="#888" stroke-width="1" opacity="1"/><line transform="translate(92,0)" x2="0" y2="5" stroke="#888" stroke-width="1" opacity="1"/><line transform="translate(111,0)" x2="0" y2="5" stroke="#888" stroke-width="1" opacity="1"/><line transform="translate(129,0)" x2="0" y2="5" stroke="#888" stroke-width="1" opacity="1"/><line transform="translate(148,0)" x2="0" y2="5" stroke="#888" stroke-width="1" opacity="1"/><line transform="translate(166,0)" x2="0" y2="5" stroke="#888" stroke-width="1" opacity="1"/><line transform="translate(185,0)" x2="0" y2="5" stroke="#888" stroke-width="1" opacity="1"/><line transform="translate(203,0)" x2="0" y2="5" stroke="#888" stroke-width="1" opacity="1"/><line transform="translate(222,0)" x2="0" y2="5" stroke="#888" stroke-width="1" opacity="1"/><line transform="translate(240,0)" x2="0" y2="5" stroke="#888" stroke-width="1" opacity="1"/><line transform="translate(258,0)" x2="0" y2="5" stroke="#888" stroke-width="1" opacity="1"/><line transform="translate(277,0)" x2="0" y2="5" stroke="#888" stroke-width="1" opacity="1"/><line transform="translate(295,0)" x2="0" y2="5" stroke="#888" stroke-width="1" opacity="1"/><line transform="translate(314,0)" x2="0" y2="5" stroke="#888" stroke-width="1" opacity="1"/><line transform="translate(332,0)" x2="0" y2="5" stroke="#888" stroke-width="1" opacity="1"/><line transform="translate(351,0)" x2="0" y2="5" stroke="#888" stroke-width="1" opacity="1"/><line transform="translate(369,0)" x2="0" y2="5" stroke="#888" stroke-width="1" opacity="1"/><line transform="translate(388,0)" x2="0" y2="5" stroke="#888" stroke-width="1" opacity="1"/><line transform="translate(406,0)" x2="0" y2="5" stroke="#888" stroke-width="1" opacity="1"/><line transform="translate(425,0)" x2="0" y2="5" stroke="#888" stroke-width="1" opacity="1"/><line transform="translate(443,0)" x2="0" y2="5" stroke="#888" stroke-width="1" opacity="1"/><line transform="translate(462,0)" x2="0" y2="5" stroke="#888" stroke-width="1" opacity="1"/><line transform="translate(480,0)" x2="0" y2="5" stroke="#888" stroke-width="1" opacity="1"/><line transform="translate(498,0)" x2="0" y2="5" stroke="#888" stroke-width="1" opacity="1"/><line transform="translate(517,0)" x2="0" y2="5" stroke="#888" stroke-width="1" opacity="1"/><line transform="translate(535,0)" x2="0" y2="5" stroke="#888" stroke-width="1" opacity="1"/><line transform="translate(554,0)" x2="0" y2="5" stroke="#888" stroke-width="1" opacity="1"/><line transform="translate(572,0)" x2="0" y2="5" stroke="#888" stroke-width="1" opacity="1"/></g><g class="mark-text role-axis-label" pointer-events="none"><text text-anchor="middle" transform="translate(18.461538461538463,21)" font-family="sans-serif" font-size="18px" fill="#000" opacity="1">20</text><text text-anchor="middle" transform="translate(36.92307692307693,21)" font-family="sans-serif" font-size="18px" fill="#000" opacity="0">40</text><text text-anchor="middle" transform="translate(55.38461538461539,21)" font-family="sans-serif" font-size="18px" fill="#000" opacity="1">60</text><text text-anchor="middle" transform="translate(73.84615384615385,21)" font-family="sans-serif" font-size="18px" fill="#000" opacity="0">80</text><text text-anchor="middle" transform="translate(92.3076923076923,21)" font-family="sans-serif" font-size="18px" fill="#000" opacity="1">100</text><text text-anchor="middle" transform="translate(110.76923076923077,21)" font-family="sans-serif" font-size="18px" fill="#000" opacity="0">120</text><text text-anchor="middle" transform="translate(129.23076923076923,21)" font-family="sans-serif" font-size="18px" fill="#000" opacity="1">140</text><text text-anchor="middle" transform="translate(147.6923076923077,21)" font-family="sans-serif" font-size="18px" fill="#000" opacity="0">160</text><text text-anchor="middle" transform="translate(166.15384615384616,21)" font-family="sans-serif" font-size="18px" fill="#000" opacity="1">180</text><text text-anchor="middle" transform="translate(184.6153846153846,21)" font-family="sans-serif" font-size="18px" fill="#000" opacity="0">200</text><text text-anchor="middle" transform="translate(203.0769230769231,21)" font-family="sans-serif" font-size="18px" fill="#000" opacity="1">220</text><text text-anchor="middle" transform="translate(221.53846153846155,21)" font-family="sans-serif" font-size="18px" fill="#000" opacity="0">240</text><text text-anchor="middle" transform="translate(240,21)" font-family="sans-serif" font-size="18px" fill="#000" opacity="1">260</text><text text-anchor="middle" transform="translate(258.46153846153845,21)" font-family="sans-serif" font-size="18px" fill="#000" opacity="0">280</text><text text-anchor="middle" transform="translate(276.92307692307696,21)" font-family="sans-serif" font-size="18px" fill="#000" opacity="1">300</text><text text-anchor="middle" transform="translate(295.3846153846154,21)" font-family="sans-serif" font-size="18px" fill="#000" opacity="0">320</text><text text-anchor="middle" transform="translate(313.84615384615387,21)" font-family="sans-serif" font-size="18px" fill="#000" opacity="1">340</text><text text-anchor="middle" transform="translate(332.3076923076923,21)" font-family="sans-serif" font-size="18px" fill="#000" opacity="0">360</text><text text-anchor="middle" transform="translate(350.7692307692308,21)" font-family="sans-serif" font-size="18px" fill="#000" opacity="1">380</text><text text-anchor="middle" transform="translate(369.2307692307692,21)" font-family="sans-serif" font-size="18px" fill="#000" opacity="0">400</text><text text-anchor="middle" transform="translate(387.69230769230774,21)" font-family="sans-serif" font-size="18px" fill="#000" opacity="1">420</text><text text-anchor="middle" transform="translate(406.1538461538462,21)" font-family="sans-serif" font-size="18px" fill="#000" opacity="0">440</text><text text-anchor="middle" transform="translate(424.61538461538464,21)" font-family="sans-serif" font-size="18px" fill="#000" opacity="1">460</text><text text-anchor="middle" transform="translate(443.0769230769231,21)" font-family="sans-serif" font-size="18px" fill="#000" opacity="0">480</text><text text-anchor="middle" transform="translate(461.53846153846155,21)" font-family="sans-serif" font-size="18px" fill="#000" opacity="1">500</text><text text-anchor="middle" transform="translate(480,21)" font-family="sans-serif" font-size="18px" fill="#000" opacity="0">520</text><text text-anchor="middle" transform="translate(498.4615384615385,21)" font-family="sans-serif" font-size="18px" fill="#000" opacity="1">540</text><text text-anchor="middle" transform="translate(516.9230769230769,21)" font-family="sans-serif" font-size="18px" fill="#000" opacity="0">560</text><text text-anchor="middle" transform="translate(535.3846153846154,21)" font-family="sans-serif" font-size="18px" fill="#000" opacity="1">580</text><text text-anchor="middle" transform="translate(553.8461538461539,21)" font-family="sans-serif" font-size="18px" fill="#000" opacity="0">600</text><text text-anchor="middle" transform="translate(572.3076923076924,21)" font-family="sans-serif" font-size="18px" fill="#000" opacity="1">620</text></g><g class="mark-rule role-axis-domain" pointer-events="none"><line transform="translate(0,0)" x2="600" y2="0" stroke="#888" stroke-width="1" opacity="1"/></g><g class="mark-text role-axis-title" pointer-events="none"><text text-anchor="middle" transform="translate(300,46)" font-family="sans-serif" font-size="22px" font-weight="bold" fill="#000" opacity="1">Sequence Length</text></g></g><path class="foreground" aria-hidden="true" d="" pointer-events="none" display="none"/></g></g><g class="mark-group role-axis" role="graphics-symbol" aria-roledescription="axis" aria-label="Y-axis titled 'Number of Sequences' for a linear scale with values from 0 to 240"><g transform="translate(0.5,0.5)"><path class="background" aria-hidden="true" d="M0,0h0v0h0Z" pointer-events="none"/><g><g class="mark-rule role-axis-tick" pointer-events="none"><line transform="translate(0,400)" x2="-5" y2="0" stroke="#888" stroke-width="1" opacity="1"/><line transform="translate(0,367)" x2="-5" y2="0" stroke="#888" stroke-width="1" opacity="1"/><line transform="translate(0,333)" x2="-5" y2="0" stroke="#888" stroke-width="1" opacity="1"/><line transform="translate(0,300)" x2="-5" y2="0" stroke="#888" stroke-width="1" opacity="1"/><line transform="translate(0,267)" x2="-5" y2="0" stroke="#888" stroke-width="1" opacity="1"/><line transform="translate(0,233)" x2="-5" y2="0" stroke="#888" stroke-width="1" opacity="1"/><line transform="translate(0,200)" x2="-5" y2="0" stroke="#888" stroke-width="1" opacity="1"/><line transform="translate(0,167)" x2="-5" y2="0" stroke="#888" stroke-width="1" opacity="1"/><line transform="translate(0,133)" x2="-5" y2="0" stroke="#888" stroke-width="1" opacity="1"/><line transform="translate(0,100)" x2="-5" y2="0" stroke="#888" stroke-width="1" opacity="1"/><line transform="translate(0,67)" x2="-5" y2="0" stroke="#888" stroke-width="1" opacity="1"/><line transform="translate(0,33)" x2="-5" y2="0" stroke="#888" stroke-width="1" opacity="1"/><line transform="translate(0,0)" x2="-5" y2="0" stroke="#888" stroke-width="1" opacity="1"/></g><g class="mark-text role-axis-label" pointer-events="none"><text text-anchor="end" transform="translate(-7,405)" font-family="sans-serif" font-size="18px" fill="#000" opacity="1">0</text><text text-anchor="end" transform="translate(-7,371.66666666666663)" font-family="sans-serif" font-size="18px" fill="#000" opacity="1">20</text><text text-anchor="end" transform="translate(-7,338.33333333333337)" font-family="sans-serif" font-size="18px" fill="#000" opacity="1">40</text><text text-anchor="end" transform="translate(-7,305)" font-family="sans-serif" font-size="18px" fill="#000" opacity="1">60</text><text text-anchor="end" transform="translate(-7,271.6666666666667)" font-family="sans-serif" font-size="18px" fill="#000" opacity="1">80</text><text text-anchor="end" transform="translate(-7,238.33333333333331)" font-family="sans-serif" font-size="18px" fill="#000" opacity="1">100</text><text text-anchor="end" transform="translate(-7,205)" font-family="sans-serif" font-size="18px" fill="#000" opacity="1">120</text><text text-anchor="end" transform="translate(-7,171.66666666666666)" font-family="sans-serif" font-size="18px" fill="#000" opacity="1">140</text><text text-anchor="end" transform="translate(-7,138.33333333333334)" font-family="sans-serif" font-size="18px" fill="#000" opacity="1">160</text><text text-anchor="end" transform="translate(-7,105)" font-family="sans-serif" font-size="18px" fill="#000" opacity="1">180</text><text text-anchor="end" transform="translate(-7,71.66666666666666)" font-family="sans-serif" font-size="18px" fill="#000" opacity="1">200</text><text text-anchor="end" transform="translate(-7,38.33333333333335)" font-family="sans-serif" font-size="18px" fill="#000" opacity="1">220</text><text text-anchor="end" transform="translate(-7,5)" font-family="sans-serif" font-size="18px" fill="#000" opacity="1">240</text></g><g class="mark-rule role-axis-domain" pointer-events="none"><line transform="translate(0,400)" x2="0" y2="-400" stroke="#888" stroke-width="1" opacity="1"/></g><g class="mark-text role-axis-title" pointer-events="none"><text text-anchor="middle" transform="translate(-41.0322265625,200) rotate(-90) translate(0,-5)" font-family="sans-serif" font-size="22px" font-weight="bold" fill="#000" opacity="1">Number of Sequences</text></g></g><path class="foreground" aria-hidden="true" d="" pointer-events="none" display="none"/></g></g><g class="mark-group role-scope layer_0_pathgroup" role="graphics-object" aria-roledescription="group mark container"><g transform="translate(0,0)"><path class="background" aria-hidden="true" d="M0,0h600v400h-600Z"/><g><g class="mark-area role-mark layer_0_marks" role="graphics-object" aria-roledescription="area mark container"><path aria-label="Sequence Length: 20 – 40; Number of Sequences: 1; Split: train; Length Range: 20 – 40; Count: 1" role="graphics-symbol" aria-roledescription="area mark" d="M27.692,398.333L36.923,398.333L36.923,320L55.385,320L55.385,211.667L73.846,211.667L73.846,86.667L92.308,86.667L92.308,0L110.769,0L110.769,48.333L129.231,48.333L129.231,215L147.692,215L147.692,305L166.154,305L166.154,343.333L184.615,343.333L184.615,375L203.077,375L203.077,383.333L221.538,383.333L221.538,388.333L240,388.333L240,388.333L258.462,388.333L258.462,393.333L276.923,393.333L276.923,398.333L332.308,398.333L332.308,396.667L470.769,396.667L470.769,398.333L563.077,398.333L563.077,400L470.769,400L470.769,400L332.308,400L332.308,400L276.923,400L276.923,400L258.462,400L258.462,400L240,400L240,400L221.538,400L221.538,400L203.077,400L203.077,400L184.615,400L184.615,400L166.154,400L166.154,400L147.692,400L147.692,400L129.231,400L129.231,400L110.769,400L110.769,400L92.308,400L92.308,400L73.846,400L73.846,400L55.385,400L55.385,400L36.923,400L36.923,400L27.692,400Z" fill="#4c78a8" opacity="0.4"/></g></g><path class="foreground" aria-hidden="true" d="" display="none"/></g><g transform="translate(0,0)"><path class="background" aria-hidden="true" d="M0,0h600v400h-600Z"/><g><g class="mark-area role-mark layer_0_marks" role="graphics-object" aria-roledescription="area mark container"><path aria-label="Sequence Length: 40 – 60; Number of Sequences: 5; Split: val; Length Range: 40 – 60; Count: 5" role="graphics-symbol" aria-roledescription="area mark" d="M46.154,391.667L55.385,391.667L55.385,371.667L73.846,371.667L73.846,368.333L92.308,368.333L92.308,355L110.769,355L110.769,363.333L129.231,363.333L129.231,378.333L147.692,378.333L147.692,388.333L166.154,388.333L166.154,396.667L184.615,396.667L184.615,390L193.846,390L193.846,400L184.615,400L184.615,400L166.154,400L166.154,400L147.692,400L147.692,400L129.231,400L129.231,400L110.769,400L110.769,400L92.308,400L92.308,400L73.846,400L73.846,400L55.385,400L55.385,400L46.154,400Z" fill="#f58518" opacity="0.4"/></g></g><path class="foreground" aria-hidden="true" d="" display="none"/></g><g transform="translate(0,0)"><path class="background" aria-hidden="true" d="M0,0h600v400h-600Z"/><g><g class="mark-area role-mark layer_0_marks" role="graphics-object" aria-roledescription="area mark container"><path aria-label="Sequence Length: 40 – 60; Number of Sequences: 14; Split: test; Length Range: 40 – 60; Count: 14" role="graphics-symbol" aria-roledescription="area mark" d="M46.154,376.667L55.385,376.667L55.385,363.333L73.846,363.333L73.846,350L92.308,350L92.308,376.667L110.769,376.667L110.769,385L129.231,385L129.231,386.667L147.692,386.667L147.692,385L166.154,385L166.154,390L184.615,390L184.615,396.667L221.538,396.667L221.538,398.333L295.385,398.333L295.385,398.333L387.692,398.333L387.692,398.333L433.846,398.333L433.846,400L387.692,400L387.692,400L295.385,400L295.385,400L221.538,400L221.538,400L184.615,400L184.615,400L166.154,400L166.154,400L147.692,400L147.692,400L129.231,400L129.231,400L110.769,400L110.769,400L92.308,400L92.308,400L73.846,400L73.846,400L55.385,400L55.385,400L46.154,400Z" fill="#e45756" opacity="0.4"/></g></g><path class="foreground" aria-hidden="true" d="" display="none"/></g></g><g class="mark-group role-scope layer_1_pathgroup" role="graphics-object" aria-roledescription="group mark container"><g transform="translate(0,0)"><path class="background" aria-hidden="true" d="M0,0h600v400h-600Z"/><g><g class="mark-line role-mark layer_1_marks" role="graphics-object" aria-roledescription="line mark container"><path aria-label="Sequence Length: 39; Density: 0.000992608712421; Split: train" role="graphics-symbol" aria-roledescription="line mark" d="M36,366.913L38.658,356.012L41.317,343.914L43.975,331.071L46.634,317.891L49.292,304.6L51.951,291.136L54.609,277.175L57.268,262.274L59.926,246.078L62.585,228.495L65.243,209.772L67.902,190.455L70.56,171.266L73.218,152.909L75.877,135.865L78.535,120.22L81.194,105.651L83.852,91.618L86.511,77.729L89.169,64.102L91.828,51.469L94.486,40.94L97.145,33.479L99.803,29.426L102.462,28.362L105.12,29.44L107.778,32.015L110.437,36.173L113.095,42.819L115.754,53.221L118.412,68.264L121.071,87.847L123.729,110.76L126.388,135.097L129.046,158.944L131.705,180.968L134.363,200.641L137.022,218.085L139.68,233.731L142.338,247.993L144.997,261.107L147.655,273.138L150.314,284.058L152.972,293.83L155.631,302.458L158.289,309.998L160.948,316.585L163.606,322.441L166.265,327.865L168.923,333.165L171.582,338.561L174.24,344.1L176.898,349.651L179.557,354.977L182.215,359.854L184.874,364.149L187.532,367.83L190.191,370.917L192.849,373.455L195.508,375.511L198.166,377.204L200.825,378.698L203.483,380.161L206.142,381.695L208.8,383.285L211.458,384.814L214.117,386.118L216.775,387.065L219.434,387.606L222.092,387.788L224.751,387.713L227.409,387.503L230.068,387.261L232.726,387.073L235.385,387.021L238.043,387.189L240.702,387.654L243.36,388.449L246.018,389.535L248.677,390.798L251.335,392.074L253.994,393.192L256.652,394.017L259.311,394.481L261.969,394.599L264.628,394.468L267.286,394.24L269.945,394.08L272.603,394.119L275.262,394.419L277.92,394.97L280.578,395.705L283.237,396.532L285.895,397.358L288.554,398.107L291.212,398.73L293.871,399.205L296.529,399.539L299.188,399.753L301.846,399.878L304.505,399.945L307.163,399.977L309.822,399.991L312.48,399.997L315.138,399.999L317.797,400L320.455,400L323.114,400L325.772,400L328.431,400L331.089,400L333.748,400L336.406,400L339.065,399.999L341.723,399.997L344.382,399.99L347.04,399.974L349.698,399.937L352.357,399.859L355.015,399.717L357.674,399.481L360.332,399.134L362.991,398.687L365.649,398.188L368.308,397.725L370.966,397.401L373.625,397.298L376.283,397.444L378.942,397.801L381.6,398.278L384.258,398.773L386.917,399.205L389.575,399.531L392.234,399.749L394.892,399.877L397.551,399.946L400.209,399.978L402.868,399.992L405.526,399.997L408.185,399.999L410.843,400L413.502,400L416.16,400L418.818,400L421.477,400L424.135,400L426.794,400L429.452,400L432.111,400L434.769,400L437.428,400L440.086,400L442.745,400L445.403,400L448.062,400L450.72,400L453.378,400L456.037,400L458.695,400L461.354,400L464.012,400L466.671,400L469.329,400L471.988,400L474.646,400L477.305,400L479.963,400L482.622,400L485.28,400L487.938,400L490.597,400L493.255,400L495.914,400L498.572,400L501.231,400L503.889,400L506.548,400L509.206,400L511.865,400L514.523,400L517.182,400L519.84,400L522.498,400L525.157,400L527.815,400L530.474,400L533.132,400L535.791,399.999L538.449,399.996L541.108,399.989L543.766,399.973L546.425,399.939L549.083,399.873L551.742,399.761L554.4,399.593L557.058,399.37L559.717,399.115L562.375,398.872L565.034,398.695L567.692,398.631" stroke="#4c78a8" stroke-width="2"/></g></g><path class="foreground" aria-hidden="true" d="" display="none"/></g><g transform="translate(0,0)"><path class="background" aria-hidden="true" d="M0,0h600v400h-600Z"/><g><g class="mark-line role-mark layer_1_marks" role="graphics-object" aria-roledescription="line mark container"><path aria-label="Sequence Length: 39; Density: 0.00148386041559; Split: val" role="graphics-symbol" aria-roledescription="line mark" d="M36,350.538L38.658,339.799L41.317,327.774L43.975,314.512L46.634,300.112L49.292,284.72L51.951,268.54L54.609,251.83L57.268,234.898L59.926,218.087L62.585,201.75L65.243,186.22L67.902,171.771L70.56,158.589L73.218,146.748L75.877,136.201L78.535,126.797L81.194,118.312L83.852,110.497L86.511,103.13L89.169,96.067L91.828,89.282L94.486,82.878L97.145,77.087L99.803,72.245L102.462,68.747L105.12,67.001L107.778,67.374L110.437,70.149L113.095,75.49L115.754,83.416L118.412,93.797L121.071,106.363L123.729,120.724L126.388,136.41L129.046,152.914L131.705,169.745L134.363,186.474L137.022,202.765L139.68,218.4L142.338,233.268L144.997,247.348L147.655,260.666L150.314,273.259L152.972,285.134L155.631,296.249L158.289,306.504L160.948,315.755L163.606,323.841L166.265,330.62L168.923,335.998L171.582,339.965L174.24,342.606L176.898,344.114L179.557,344.773L182.215,344.939L184.874,345L187.532,345.335L190.191,346.268L192.849,348.027L195.508,350.722L198.166,354.335L200.825,358.732L203.483,363.688L206.142,368.926L208.8,374.162L211.458,379.137L214.117,383.65L216.775,387.567L219.434,390.83L222.092,393.441L224.751,395.451L227.409,396.941L230.068,398.006L232.726,398.741L235.385,399.229L238.043,399.542L240.702,399.737L243.36,399.853L246.018,399.921L248.677,399.959L251.335,399.979L253.994,399.99L256.652,399.995L259.311,399.998L261.969,399.999L264.628,400L267.286,400L269.945,400L272.603,400L275.262,400L277.92,400L280.578,400L283.237,400L285.895,400L288.554,400L291.212,400L293.871,400L296.529,400L299.188,400L301.846,400L304.505,400L307.163,400L309.822,400L312.48,400L315.138,400L317.797,400L320.455,400L323.114,400L325.772,400L328.431,400L331.089,400L333.748,400L336.406,400L339.065,400L341.723,400L344.382,400L347.04,400L349.698,400L352.357,400L355.015,400L357.674,400L360.332,400L362.991,400L365.649,400L368.308,400L370.966,400L373.625,400L376.283,400L378.942,400L381.6,400L384.258,400L386.917,400L389.575,400L392.234,400L394.892,400L397.551,400L400.209,400L402.868,400L405.526,400L408.185,400L410.843,400L413.502,400L416.16,400L418.818,400L421.477,400L424.135,400L426.794,400L429.452,400L432.111,400L434.769,400L437.428,400L440.086,400L442.745,400L445.403,400L448.062,400L450.72,400L453.378,400L456.037,400L458.695,400L461.354,400L464.012,400L466.671,400L469.329,400L471.988,400L474.646,400L477.305,400L479.963,400L482.622,400L485.28,400L487.938,400L490.597,400L493.255,400L495.914,400L498.572,400L501.231,400L503.889,400L506.548,400L509.206,400L511.865,400L514.523,400L517.182,400L519.84,400L522.498,400L525.157,400L527.815,400L530.474,400L533.132,400L535.791,400L538.449,400L541.108,400L543.766,400L546.425,400L549.083,400L551.742,400L554.4,400L557.058,400L559.717,400L562.375,400L565.034,400L567.692,400" stroke="#f58518" stroke-width="2"/></g></g><path class="foreground" aria-hidden="true" d="" display="none"/></g><g transform="translate(0,0)"><path class="background" aria-hidden="true" d="M0,0h600v400h-600Z"/><g><g class="mark-line role-mark layer_1_marks" role="graphics-object" aria-roledescription="line mark container"><path aria-label="Sequence Length: 39; Density: 0.0032905325667; Split: test" role="graphics-symbol" aria-roledescription="line mark" d="M36,290.316L38.658,273.251L41.317,255.396L43.975,237.032L46.634,218.467L49.292,200.016L51.951,181.997L54.609,164.714L57.268,148.456L59.926,133.492L62.585,120.066L65.243,108.401L67.902,98.693L70.56,91.113L73.218,85.794L75.877,82.832L78.535,82.274L81.194,84.109L83.852,88.264L86.511,94.6L89.169,102.911L91.828,112.936L94.486,124.362L97.145,136.847L99.803,150.029L102.462,163.55L105.12,177.068L107.778,190.271L110.437,202.891L113.095,214.705L115.754,225.544L118.412,235.29L121.071,243.877L123.729,251.289L126.388,257.552L129.046,262.736L131.705,266.947L134.363,270.321L137.022,273.019L139.68,275.219L142.338,277.108L144.997,278.871L147.655,280.685L150.314,282.706L152.972,285.067L155.631,287.865L158.289,291.165L160.948,294.996L163.606,299.348L166.265,304.185L168.923,309.441L171.582,315.031L174.24,320.858L176.898,326.82L179.557,332.814L182.215,338.744L184.874,344.527L187.532,350.091L190.191,355.38L192.849,360.35L195.508,364.974L198.166,369.233L200.825,373.118L203.483,376.626L206.142,379.758L208.8,382.517L211.458,384.912L214.117,386.952L216.775,388.65L219.434,390.026L222.092,391.105L224.751,391.918L227.409,392.502L230.068,392.9L232.726,393.157L235.385,393.322L238.043,393.439L240.702,393.549L243.36,393.686L246.018,393.874L248.677,394.13L251.335,394.458L253.994,394.854L256.652,395.306L259.311,395.799L261.969,396.313L264.628,396.828L267.286,397.325L269.945,397.789L272.603,398.208L275.262,398.574L277.92,398.884L280.578,399.135L283.237,399.331L285.895,399.472L288.554,399.562L291.212,399.603L293.871,399.596L296.529,399.541L299.188,399.436L301.846,399.28L304.505,399.069L307.163,398.801L309.822,398.475L312.48,398.095L315.138,397.665L317.797,397.195L320.455,396.699L323.114,396.196L325.772,395.708L328.431,395.258L331.089,394.869L333.748,394.564L336.406,394.362L339.065,394.274L341.723,394.305L344.382,394.455L347.04,394.713L349.698,395.065L352.357,395.488L355.015,395.961L357.674,396.459L360.332,396.96L362.991,397.441L365.649,397.888L368.308,398.288L370.966,398.631L373.625,398.914L376.283,399.134L378.942,399.292L381.6,399.388L384.258,399.423L386.917,399.397L389.575,399.311L392.234,399.162L394.892,398.952L397.551,398.678L400.209,398.344L402.868,397.953L405.526,397.512L408.185,397.035L410.843,396.536L413.502,396.036L416.16,395.558L418.818,395.125L421.477,394.761L424.135,394.488L426.794,394.321L429.452,394.271L432.111,394.341L434.769,394.527L437.428,394.817L440.086,395.194L442.745,395.636L445.403,396.121L448.062,396.623L450.72,397.122L453.378,397.598L456.037,398.038L458.695,398.43L461.354,398.77L464.012,399.057L466.671,399.292L469.329,399.479L471.988,399.625L474.646,399.736L477.305,399.817L479.963,399.877L482.622,399.918L485.28,399.947L487.938,399.966L490.597,399.979L493.255,399.987L495.914,399.992L498.572,399.996L501.231,399.997L503.889,399.999L506.548,399.999L509.206,400L511.865,400L514.523,400L517.182,400L519.84,400L522.498,400L525.157,400L527.815,400L530.474,400L533.132,400L535.791,400L538.449,400L541.108,400L543.766,400L546.425,400L549.083,400L551.742,400L554.4,400L557.058,400L559.717,400L562.375,400L565.034,400L567.692,400" stroke="#e45756" stroke-width="2"/></g></g><path class="foreground" aria-hidden="true" d="" display="none"/></g></g><g class="mark-group role-legend" role="graphics-symbol" aria-roledescription="legend" aria-label="Symbol legend titled 'Split' for fill color and stroke color with 3 values: train, val, test"><g transform="translate(618,0)"><path class="background" aria-hidden="true" d="M0,0h58v85h-58Z" pointer-events="none"/><g><g class="mark-group role-legend-entry"><g transform="translate(0,27)"><path class="background" aria-hidden="true" d="M0,0h0v0h0Z" pointer-events="none"/><g><g class="mark-group role-scope" role="graphics-object" aria-roledescription="group mark container"><g transform="translate(0,0)"><path class="background" aria-hidden="true" d="M0,0h57.015625v18h-57.015625Z" pointer-events="none" opacity="1"/><g><g class="mark-symbol role-legend-symbol" pointer-events="none"><path transform="translate(9,9)" d="M5,0A5,5,0,1,1,-5,0A5,5,0,1,1,5,0" fill="#4c78a8" stroke="#4c78a8" stroke-width="1.5" opacity="0.4"/></g><g class="mark-text role-legend-label" pointer-events="none"><text text-anchor="start" transform="translate(22,14)" font-family="sans-serif" font-size="18px" fill="#000" opacity="1">train</text></g></g><path class="foreground" aria-hidden="true" d="" pointer-events="none" display="none"/></g><g transform="translate(0,20)"><path class="background" aria-hidden="true" d="M0,0h57.015625v18h-57.015625Z" pointer-events="none" opacity="1"/><g><g class="mark-symbol role-legend-symbol" pointer-events="none"><path transform="translate(9,9)" d="M5,0A5,5,0,1,1,-5,0A5,5,0,1,1,5,0" fill="#f58518" stroke="#f58518" stroke-width="1.5" opacity="0.4"/></g><g class="mark-text role-legend-label" pointer-events="none"><text text-anchor="start" transform="translate(22,14)" font-family="sans-serif" font-size="18px" fill="#000" opacity="1">val</text></g></g><path class="foreground" aria-hidden="true" d="" pointer-events="none" display="none"/></g><g transform="translate(0,40)"><path class="background" aria-hidden="true" d="M0,0h57.015625v18h-57.015625Z" pointer-events="none" opacity="1"/><g><g class="mark-symbol role-legend-symbol" pointer-events="none"><path transform="translate(9,9)" d="M5,0A5,5,0,1,1,-5,0A5,5,0,1,1,5,0" fill="#e45756" stroke="#e45756" stroke-width="1.5" opacity="0.4"/></g><g class="mark-text role-legend-label" pointer-events="none"><text text-anchor="start" transform="translate(22,14)" font-family="sans-serif" font-size="18px" fill="#000" opacity="1">test</text></g></g><path class="foreground" aria-hidden="true" d="" pointer-events="none" display="none"/></g></g></g><path class="foreground" aria-hidden="true" d="" pointer-events="none" display="none"/></g></g><g class="mark-text role-legend-title" pointer-events="none"><text text-anchor="start" transform="translate(0,17)" font-family="sans-serif" font-size="22px" font-weight="bold" fill="#000" opacity="1">Split</text></g></g><path class="foreground" aria-hidden="true" d="" pointer-events="none" display="none"/></g></g><g class="mark-group role-title"><g transform="translate(300,-51)"><path class="background" aria-hidden="true" d="M0,0h0v0h0Z" pointer-events="none"/><g><g class="mark-text role-title-text" role="graphics-symbol" aria-roledescription="title" aria-label="Title text 'Sequence Length Distribution'" pointer-events="none"><text text-anchor="middle" transform="translate(0,19)" font-family="Liberation Sans" font-size="24px" font-weight="bold" fill="#000" opacity="1">Sequence Length Distribution</text></g><g class="mark-text role-title-subtitle" role="graphics-symbol" aria-roledescription="subtitle" aria-label="Subtitle text 'test: μ=111.70, σ=60.19 | train: μ=118.97, σ=45.84 | val: μ=115.69, σ=38.70'" pointer-events="none"><text text-anchor="middle" transform="translate(0,36)" font-family="sans-serif" font-size="12px" fill="#000" opacity="1">test: μ=111.70, σ=60.19 | train: μ=118.97, σ=45.84 | val: μ=115.69, σ=38.70</text></g></g><path class="foreground" aria-hidden="true" d="" pointer-events="none" display="none"/></g></g></g><path class="foreground" aria-hidden="true" d="" display="none"/></g></g></g></svg>