<svg xmlns="http://www.w3.org/2000/svg" xmlns:xlink="http://www.w3.org/1999/xlink" version="1.1" class="marks" width="515" height="489" viewBox="0 0 515 489"><rect width="515" height="489" fill="white"/><g fill="none" stroke-miterlimit="10" transform="translate(110,27)"><g class="mark-group role-frame root" role="graphics-object" aria-roledescription="group mark container"><g transform="translate(0,0)"><path class="background" aria-hidden="true" d="M0.5,0.5h400v300h-400Z" stroke="#ddd"/><g><g class="mark-group role-axis" aria-hidden="true"><g transform="translate(0.5,0.5)"><path class="background" aria-hidden="true" d="M0,0h0v0h0Z" pointer-events="none"/><g><g class="mark-rule role-axis-grid" pointer-events="none"><line transform="translate(0,300)" x2="400" y2="0" stroke="#ddd" stroke-width="1" opacity="1"/><line transform="translate(0,250)" x2="400" y2="0" stroke="#ddd" stroke-width="1" opacity="1"/><line transform="translate(0,200)" x2="400" y2="0" stroke="#ddd" stroke-width="1" opacity="1"/><line transform="translate(0,150)" x2="400" y2="0" stroke="#ddd" stroke-width="1" opacity="1"/><line transform="translate(0,100)" x2="400" y2="0" stroke="#ddd" stroke-width="1" opacity="1"/><line transform="translate(0,50)" x2="400" y2="0" stroke="#ddd" stroke-width="1" opacity="1"/><line transform="translate(0,0)" x2="400" y2="0" stroke="#ddd" stroke-width="1" opacity="1"/></g></g><path class="foreground" aria-hidden="true" d="" pointer-events="none" display="none"/></g></g><g class="mark-group role-axis" role="graphics-symbol" aria-roledescription="axis" aria-label="X-axis titled 'Class Label' for a discrete scale with 9 values: DNA_RNA_and_nucleotide_metabolism, connector, head_and_packaging, integration_and_excision, lysis, ending with transcription_regulation"><g transform="translate(0.5,300.5)"><path class="background" aria-hidden="true" d="M0,0h0v0h0Z" pointer-events="none"/><g><g class="mark-rule role-axis-tick" pointer-events="none"><line transform="translate(22,0)" x2="0" y2="5" stroke="#888" stroke-width="1" opacity="1"/><line transform="translate(66,0)" x2="0" y2="5" stroke="#888" stroke-width="1" opacity="1"/><line transform="translate(111,0)" x2="0" y2="5" stroke="#888" stroke-width="1" opacity="1"/><line transform="translate(155,0)" x2="0" y2="5" stroke="#888" stroke-width="1" opacity="1"/><line transform="translate(200,0)" x2="0" y2="5" stroke="#888" stroke-width="1" opacity="1"/><line transform="translate(244,0)" x2="0" y2="5" stroke="#888" stroke-width="1" opacity="1"/><line transform="translate(288,0)" x2="0" y2="5" stroke="#888" stroke-width="1" opacity="1"/><line transform="translate(333,0)" x2="0" y2="5" stroke="#888" stroke-width="1" opacity="1"/><line transform="translate(377,0)" x2="0" y2="5" stroke="#888" stroke-width="1" opacity="1"/></g><g class="mark-text role-axis-label" pointer-events="none"><text text-anchor="end" transform="translate(21.72222222222223,7) rotate(315) translate(0,8)" font-family="sans-serif" font-size="10px" fill="#000" opacity="1">DNA_RNA_and_nucleotide_metabolism</text><text text-anchor="end" transform="translate(66.16666666666667,7) rotate(315) translate(0,8)" font-family="sans-serif" font-size="10px" fill="#000" opacity="1">connector</text><text text-anchor="end" transform="translate(110.61111111111111,7) rotate(315) translate(0,8)" font-family="sans-serif" font-size="10px" fill="#000" opacity="1">head_and_packaging</text><text text-anchor="end" transform="translate(155.05555555555554,7) rotate(315) translate(0,8)" font-family="sans-serif" font-size="10px" fill="#000" opacity="1">integration_and_excision</text><text text-anchor="end" transform="translate(199.5,7) rotate(315) translate(0,8)" font-family="sans-serif" font-size="10px" fill="#000" opacity="1">lysis</text><text text-anchor="end" transform="translate(243.94444444444446,7) rotate(315) translate(0,8)" font-family="sans-serif" font-size="10px" fill="#000" opacity="1">moron_auxiliary_metabolic_gene_and…</text><text text-anchor="end" transform="translate(288.38888888888886,7) rotate(315) translate(0,8)" font-family="sans-serif" font-size="10px" fill="#000" opacity="1">other</text><text text-anchor="end" transform="translate(332.8333333333333,7) rotate(315) translate(0,8)" font-family="sans-serif" font-size="10px" fill="#000" opacity="1">tail</text><text text-anchor="end" transform="translate(377.27777777777777,7) rotate(315) translate(0,8)" font-family="sans-serif" font-size="10px" fill="#000" opacity="1">transcription_regulation</text></g><g class="mark-rule role-axis-domain" pointer-events="none"><line transform="translate(0,0)" x2="400" y2="0" stroke="#888" stroke-width="1" opacity="1"/></g><g class="mark-text role-axis-title" pointer-events="none"><text text-anchor="middle" transform="translate(200,154.35028842544406)" font-family="sans-serif" font-size="11px" font-weight="bold" fill="#000" opacity="1">Class Label</text></g></g><path class="foreground" aria-hidden="true" d="" pointer-events="none" display="none"/></g></g><g class="mark-group role-axis" role="graphics-symbol" aria-roledescription="axis" aria-label="Y-axis titled 'Number of Sequences' for a linear scale with values from 0 to 1,200"><g transform="translate(0.5,0.5)"><path class="background" aria-hidden="true" d="M0,0h0v0h0Z" pointer-events="none"/><g><g class="mark-rule role-axis-tick" pointer-events="none"><line transform="translate(0,300)" x2="-5" y2="0" stroke="#888" stroke-width="1" opacity="1"/><line transform="translate(0,250)" x2="-5" y2="0" stroke="#888" stroke-width="1" opacity="1"/><line transform="translate(0,200)" x2="-5" y2="0" stroke="#888" stroke-width="1" opacity="1"/><line transform="translate(0,150)" x2="-5" y2="0" stroke="#888" stroke-width="1" opacity="1"/><line transform="translate(0,100)" x2="-5" y2="0" stroke="#888" stroke-width="1" opacity="1"/><line transform="translate(0,50)" x2="-5" y2="0" stroke="#888" stroke-width="1" opacity="1"/><line transform="translate(0,0)" x2="-5" y2="0" stroke="#888" stroke-width="1" opacity="1"/></g><g class="mark-text role-axis-label" pointer-events="none"><text text-anchor="end" transform="translate(-7,303)" font-family="sans-serif" font-size="10px" fill="#000" opacity="1">0</text><text text-anchor="end" transform="translate(-7,253)" font-family="sans-serif" font-size="10px" fill="#000" opacity="1">200</text><text text-anchor="end" transform="translate(-7,203.00000000000003)" font-family="sans-serif" font-size="10px" fill="#000" opacity="1">400</text><text text-anchor="end" transform="translate(-7,153)" font-family="sans-serif" font-size="10px" fill="#000" opacity="1">600</text><text text-anchor="end" transform="translate(-7,103.00000000000001)" font-family="sans-serif" font-size="10px" fill="#000" opacity="1">800</text><text text-anchor="end" transform="translate(-7,52.999999999999986)" font-family="sans-serif" font-size="10px" fill="#000" opacity="1">1,000</text><text text-anchor="end" transform="translate(-7,3)" font-family="sans-serif" font-size="10px" fill="#000" opacity="1">1,200</text></g><g class="mark-rule role-axis-domain" pointer-events="none"><line transform="translate(0,300)" x2="0" y2="-300" stroke="#888" stroke-width="1" opacity="1"/></g><g class="mark-text role-axis-title" pointer-events="none"><text text-anchor="middle" transform="translate(-36.0244140625,150) rotate(-90) translate(0,-2)" font-family="sans-serif" font-size="11px" font-weight="bold" fill="#000" opacity="1">Number of Sequences</text></g></g><path class="foreground" aria-hidden="true" d="" pointer-events="none" display="none"/></g></g><g class="mark-group role-scope" role="graphics-object" aria-roledescription="group mark container"><g transform="translate(313.3333333333333,47.75)"><path class="background" aria-hidden="true" d="M4,0L36,0C38.207660097976,0,40,1.792339902024,40,4L40,248.25C40,250.457660097976,38.207660097976,252.25,36,252.25L4,252.25C1.792339902024,252.25,0,250.457660097976,0,248.25L0,4C0,1.792339902024,1.792339902024,0,4,0Z"/><g clip-path="url(#clip40)"><g class="mark-group role-scope" role="graphics-object" aria-roledescription="group mark container"><g transform="translate(0,-47.75)"><path class="background" aria-hidden="true" d="M0,0h40v0h-40Z"/><g><g class="mark-rect role-mark marks" role="graphics-object" aria-roledescription="rect mark container"><path aria-label="Class Label: tail; Number of Sequences: 1009; label: tail; Label: tail; Count: 1009; Percentage: 19.7" role="graphics-symbol" aria-roledescription="bar" d="M0,47.75h40v252.25h-40Z" fill="#ff9da6" opacity="0.8"/></g></g><path class="foreground" aria-hidden="true" d="" display="none"/></g></g></g><path class="foreground" aria-hidden="true" d="" display="none"/></g><g transform="translate(91.11111111111111,99.25)"><path class="background" aria-hidden="true" d="M4,0L36,0C38.207660097976,0,40,1.792339902024,40,4L40,196.75C40,198.957660097976,38.207660097976,200.75,36,200.75L4,200.75C1.792339902024,200.75,0,198.957660097976,0,196.75L0,4C0,1.792339902024,1.792339902024,0,4,0Z"/><g clip-path="url(#clip41)"><g class="mark-group role-scope" role="graphics-object" aria-roledescription="group mark container"><g transform="translate(0,-99.25)"><path class="background" aria-hidden="true" d="M0,0h40v0h-40Z"/><g><g class="mark-rect role-mark marks" role="graphics-object" aria-roledescription="rect mark container"><path aria-label="Class Label: head_and_packaging; Number of Sequences: 803; label: head_and_packaging; Label: head_and_packaging; Count: 803; Percentage: 15.6" role="graphics-symbol" aria-roledescription="bar" d="M0,99.25h40v200.75h-40Z" fill="#e45756" opacity="0.8"/></g></g><path class="foreground" aria-hidden="true" d="" display="none"/></g></g></g><path class="foreground" aria-hidden="true" d="" display="none"/></g><g transform="translate(2.2222222222222285,17.25)"><path class="background" aria-hidden="true" d="M4,0L36,0C38.207660097976,0,40,1.792339902024,40,4L40,278.75C40,280.957660097976,38.207660097976,282.75,36,282.75L4,282.75C1.792339902024,282.75,0,280.957660097976,0,278.75L0,4C0,1.792339902024,1.792339902024,0,4,0Z"/><g clip-path="url(#clip42)"><g class="mark-group role-scope" role="graphics-object" aria-roledescription="group mark container"><g transform="translate(0,-17.25)"><path class="background" aria-hidden="true" d="M0,0h40v0h-40Z"/><g><g class="mark-rect role-mark marks" role="graphics-object" aria-roledescription="rect mark container"><path aria-label="Class Label: DNA_RNA_and_nucleotide_metabolism; Number of Sequences: 1131; label: DNA_RNA_and_nucleotide_metabolism; Label: DNA_RNA_and_nucleotide_metabolism; Count: 1131; Percentage: 22.0" role="graphics-symbol" aria-roledescription="bar" d="M0,17.25h40v282.75h-40Z" fill="#4c78a8" opacity="0.8"/></g></g><path class="foreground" aria-hidden="true" d="" display="none"/></g></g></g><path class="foreground" aria-hidden="true" d="" display="none"/></g><g transform="translate(180,215.49999999999997)"><path class="background" aria-hidden="true" d="M4,0L36,0C38.207660097976,0,40,1.792339902024,40,4L40,80.50000000000003C40,82.70766009797603,38.207660097976,84.50000000000003,36,84.50000000000003L4,84.50000000000003C1.792339902024,84.50000000000003,0,82.70766009797603,0,80.50000000000003L0,4C0,1.792339902024,1.792339902024,0,4,0Z"/><g clip-path="url(#clip43)"><g class="mark-group role-scope" role="graphics-object" aria-roledescription="group mark container"><g transform="translate(0,-215.49999999999997)"><path class="background" aria-hidden="true" d="M0,0h40v0h-40Z"/><g><g class="mark-rect role-mark marks" role="graphics-object" aria-roledescription="rect mark container"><path aria-label="Class Label: lysis; Number of Sequences: 338; label: lysis; Label: lysis; Count: 338; Percentage: 6.6" role="graphics-symbol" aria-roledescription="bar" d="M0,215.49999999999997h40v84.50000000000003h-40Z" fill="#54a24b" opacity="0.8"/></g></g><path class="foreground" aria-hidden="true" d="" display="none"/></g></g></g><path class="foreground" aria-hidden="true" d="" display="none"/></g><g transform="translate(224.44444444444446,170.25)"><path class="background" aria-hidden="true" d="M4,0L36,0C38.207660097976,0,40,1.792339902024,40,4L40,125.75C40,127.957660097976,38.207660097976,129.75,36,129.75L4,129.75C1.792339902024,129.75,0,127.957660097976,0,125.75L0,4C0,1.792339902024,1.792339902024,0,4,0Z"/><g clip-path="url(#clip44)"><g class="mark-group role-scope" role="graphics-object" aria-roledescription="group mark container"><g transform="translate(0,-170.25)"><path class="background" aria-hidden="true" d="M0,0h40v0h-40Z"/><g><g class="mark-rect role-mark marks" role="graphics-object" aria-roledescription="rect mark container"><path aria-label="Class Label: moron_auxiliary_metabolic_gene_and_host_takeover; Number of Sequences: 519; label: moron_auxiliary_metabolic_gene_and_host_takeover; Label: moron_auxiliary_metabolic_gene_and_host_takeover; Count: 519; Percentage: 10.1" role="graphics-symbol" aria-roledescription="bar" d="M0,170.25h40v129.75h-40Z" fill="#eeca3b" opacity="0.8"/></g></g><path class="foreground" aria-hidden="true" d="" display="none"/></g></g></g><path class="foreground" aria-hidden="true" d="" display="none"/></g><g transform="translate(135.55555555555554,261.75)"><path class="background" aria-hidden="true" d="M4,0L36,0C38.207660097976,0,40,1.792339902024,40,4L40,34.25C40,36.457660097976,38.207660097976,38.25,36,38.25L4,38.25C1.792339902024,38.25,0,36.457660097976,0,34.25L0,4C0,1.792339902024,1.792339902024,0,4,0Z"/><g clip-path="url(#clip45)"><g class="mark-group role-scope" role="graphics-object" aria-roledescription="group mark container"><g transform="translate(0,-261.75)"><path class="background" aria-hidden="true" d="M0,0h40v0h-40Z"/><g><g class="mark-rect role-mark marks" role="graphics-object" aria-roledescription="rect mark container"><path aria-label="Class Label: integration_and_excision; Number of Sequences: 153; label: integration_and_excision; Label: integration_and_excision; Count: 153; Percentage: 3.0" role="graphics-symbol" aria-roledescription="bar" d="M0,261.75h40v38.25h-40Z" fill="#72b7b2" opacity="0.8"/></g></g><path class="foreground" aria-hidden="true" d="" display="none"/></g></g></g><path class="foreground" aria-hidden="true" d="" display="none"/></g><g transform="translate(268.88888888888886,139.75)"><path class="background" aria-hidden="true" d="M4,0L36,0C38.207660097976,0,40,1.792339902024,40,4L40,156.25C40,158.457660097976,38.207660097976,160.25,36,160.25L4,160.25C1.792339902024,160.25,0,158.457660097976,0,156.25L0,4C0,1.792339902024,1.792339902024,0,4,0Z"/><g clip-path="url(#clip46)"><g class="mark-group role-scope" role="graphics-object" aria-roledescription="group mark container"><g transform="translate(0,-139.75)"><path class="background" aria-hidden="true" d="M0,0h40v0h-40Z"/><g><g class="mark-rect role-mark marks" role="graphics-object" aria-roledescription="rect mark container"><path aria-label="Class Label: other; Number of Sequences: 641; label: other; Label: other; Count: 641; Percentage: 12.5" role="graphics-symbol" aria-roledescription="bar" d="M0,139.75h40v160.25h-40Z" fill="#b279a2" opacity="0.8"/></g></g><path class="foreground" aria-hidden="true" d="" display="none"/></g></g></g><path class="foreground" aria-hidden="true" d="" display="none"/></g><g transform="translate(357.77777777777777,203.75)"><path class="background" aria-hidden="true" d="M4,0L36,0C38.207660097976,0,40,1.792339902024,40,4L40,92.25C40,94.457660097976,38.207660097976,96.25,36,96.25L4,96.25C1.792339902024,96.25,0,94.457660097976,0,92.25L0,4C0,1.792339902024,1.792339902024,0,4,0Z"/><g clip-path="url(#clip47)"><g class="mark-group role-scope" role="graphics-object" aria-roledescription="group mark container"><g transform="translate(0,-203.75)"><path class="background" aria-hidden="true" d="M0,0h40v0h-40Z"/><g><g class="mark-rect role-mark marks" role="graphics-object" aria-roledescription="rect mark container"><path aria-label="Class Label: transcription_regulation; Number of Sequences: 385; label: transcription_regulation; Label: transcription_regulation; Count: 385; Percentage: 7.5" role="graphics-symbol" aria-roledescription="bar" d="M0,203.75h40v96.25h-40Z" fill="#9d755d" opacity="0.8"/></g></g><path class="foreground" aria-hidden="true" d="" display="none"/></g></g></g><path class="foreground" aria-hidden="true" d="" display="none"/></g><g transform="translate(46.66666666666667,262)"><path class="background" aria-hidden="true" d="M4,0L36,0C38.207660097976,0,40,1.792339902024,40,4L40,34C40,36.207660097976,38.207660097976,38,36,38L4,38C1.792339902024,38,0,36.207660097976,0,34L0,4C0,1.792339902024,1.792339902024,0,4,0Z"/><g clip-path="url(#clip48)"><g class="mark-group role-scope" role="graphics-object" aria-roledescription="group mark container"><g transform="translate(0,-262)"><path class="background" aria-hidden="true" d="M0,0h40v0h-40Z"/><g><g class="mark-rect role-mark marks" role="graphics-object" aria-roledescription="rect mark container"><path aria-label="Class Label: connector; Number of Sequences: 152; label: connector; Label: connector; Count: 152; Percentage: 3.0" role="graphics-symbol" aria-roledescription="bar" d="M0,262h40v38h-40Z" fill="#f58518" opacity="0.8"/></g></g><path class="foreground" aria-hidden="true" d="" display="none"/></g></g></g><path class="foreground" aria-hidden="true" d="" display="none"/></g></g><g class="mark-group role-title"><g transform="translate(200,-22)"><path class="background" aria-hidden="true" d="M0,0h0v0h0Z" pointer-events="none"/><g><g class="mark-text role-title-text" role="graphics-symbol" aria-roledescription="title" aria-label="Title text 'Label Distribution'" pointer-events="none"><text text-anchor="middle" transform="translate(0,10)" font-family="sans-serif" font-size="13px" font-weight="bold" fill="#000" opacity="1">Label Distribution</text></g></g><path class="foreground" aria-hidden="true" d="" pointer-events="none" display="none"/></g></g></g><path class="foreground" aria-hidden="true" d="" display="none"/></g></g></g><defs><clipPath id="clip40"><path d="M4,0L36,0C38.207660097976,0,40,1.792339902024,40,4L40,248.25C40,250.457660097976,38.207660097976,252.25,36,252.25L4,252.25C1.792339902024,252.25,0,250.457660097976,0,248.25L0,4C0,1.792339902024,1.792339902024,0,4,0Z"/></clipPath><clipPath id="clip41"><path d="M4,0L36,0C38.207660097976,0,40,1.792339902024,40,4L40,196.75C40,198.957660097976,38.207660097976,200.75,36,200.75L4,200.75C1.792339902024,200.75,0,198.957660097976,0,196.75L0,4C0,1.792339902024,1.792339902024,0,4,0Z"/></clipPath><clipPath id="clip42"><path d="M4,0L36,0C38.207660097976,0,40,1.792339902024,40,4L40,278.75C40,280.957660097976,38.207660097976,282.75,36,282.75L4,282.75C1.792339902024,282.75,0,280.957660097976,0,278.75L0,4C0,1.792339902024,1.792339902024,0,4,0Z"/></clipPath><clipPath id="clip43"><path d="M4,0L36,0C38.207660097976,0,40,1.792339902024,40,4L40,80.50000000000003C40,82.70766009797603,38.207660097976,84.50000000000003,36,84.50000000000003L4,84.50000000000003C1.792339902024,84.50000000000003,0,82.70766009797603,0,80.50000000000003L0,4C0,1.792339902024,1.792339902024,0,4,0Z"/></clipPath><clipPath id="clip44"><path d="M4,0L36,0C38.207660097976,0,40,1.792339902024,40,4L40,125.75C40,127.957660097976,38.207660097976,129.75,36,129.75L4,129.75C1.792339902024,129.75,0,127.957660097976,0,125.75L0,4C0,1.792339902024,1.792339902024,0,4,0Z"/></clipPath><clipPath id="clip45"><path d="M4,0L36,0C38.207660097976,0,40,1.792339902024,40,4L40,34.25C40,36.457660097976,38.207660097976,38.25,36,38.25L4,38.25C1.792339902024,38.25,0,36.457660097976,0,34.25L0,4C0,1.792339902024,1.792339902024,0,4,0Z"/></clipPath><clipPath id="clip46"><path d="M4,0L36,0C38.207660097976,0,40,1.792339902024,40,4L40,156.25C40,158.457660097976,38.207660097976,160.25,36,160.25L4,160.25C1.792339902024,160.25,0,158.457660097976,0,156.25L0,4C0,1.792339902024,1.792339902024,0,4,0Z"/></clipPath><clipPath id="clip47"><path d="M4,0L36,0C38.207660097976,0,40,1.792339902024,40,4L40,92.25C40,94.457660097976,38.207660097976,96.25,36,96.25L4,96.25C1.792339902024,96.25,0,94.457660097976,0,92.25L0,4C0,1.792339902024,1.792339902024,0,4,0Z"/></clipPath><clipPath id="clip48"><path d="M4,0L36,0C38.207660097976,0,40,1.792339902024,40,4L40,34C40,36.207660097976,38.207660097976,38,36,38L4,38C1.792339902024,38,0,36.207660097976,0,34L0,4C0,1.792339902024,1.792339902024,0,4,0Z"/></clipPath></defs></svg>