<svg xmlns="http://www.w3.org/2000/svg" xmlns:xlink="http://www.w3.org/1999/xlink" version="1.1" class="marks" width="690" height="517" viewBox="0 0 690 517"><rect width="690" height="517" fill="white"/><g fill="none" stroke-miterlimit="10" transform="translate(85,42)"><g class="mark-group role-frame root" role="graphics-object" aria-roledescription="group mark container"><g transform="translate(0,0)"><path class="background" aria-hidden="true" d="M0.5,0.5h600v400h-600Z" stroke="#ddd"/><g><g class="mark-group role-axis" aria-hidden="true"><g transform="translate(0.5,0.5)"><path class="background" aria-hidden="true" d="M0,0h0v0h0Z" pointer-events="none"/><g><g class="mark-rule role-axis-grid" pointer-events="none"><line transform="translate(0,400)" x2="600" y2="0" stroke="#ddd" stroke-width="1" opacity="1"/><line transform="translate(0,350)" x2="600" y2="0" stroke="#ddd" stroke-width="1" opacity="1"/><line transform="translate(0,300)" x2="600" y2="0" stroke="#ddd" stroke-width="1" opacity="1"/><line transform="translate(0,250)" x2="600" y2="0" stroke="#ddd" stroke-width="1" opacity="1"/><line transform="translate(0,200)" x2="600" y2="0" stroke="#ddd" stroke-width="1" opacity="1"/><line transform="translate(0,150)" x2="600" y2="0" stroke="#ddd" stroke-width="1" opacity="1"/><line transform="translate(0,100)" x2="600" y2="0" stroke="#ddd" stroke-width="1" opacity="1"/><line transform="translate(0,50)" x2="600" y2="0" stroke="#ddd" stroke-width="1" opacity="1"/><line transform="translate(0,0)" x2="600" y2="0" stroke="#ddd" stroke-width="1" opacity="1"/></g></g><path class="foreground" aria-hidden="true" d="" pointer-events="none" display="none"/></g></g><g class="mark-group role-axis" role="graphics-symbol" aria-roledescription="axis" aria-label="X-axis titled 'Split' for a discrete scale with 3 values: train, val, test"><g transform="translate(0.5,400.5)"><path class="background" aria-hidden="true" d="M0,0h0v0h0Z" pointer-events="none"/><g><g class="mark-rule role-axis-tick" pointer-events="none"><line transform="translate(100,0)" x2="0" y2="5" stroke="#888" stroke-width="1" opacity="1"/><line transform="translate(300,0)" x2="0" y2="5" stroke="#888" stroke-width="1" opacity="1"/><line transform="translate(500,0)" x2="0" y2="5" stroke="#888" stroke-width="1" opacity="1"/></g><g class="mark-text role-axis-label" pointer-events="none"><text text-anchor="end" transform="translate(99.5,7) rotate(315) translate(0,14)" font-family="sans-serif" font-size="18px" fill="#000" opacity="1">train</text><text text-anchor="end" transform="translate(299.5,7) rotate(315) translate(0,14)" font-family="sans-serif" font-size="18px" fill="#000" opacity="1">val</text><text text-anchor="end" transform="translate(499.5,7) rotate(315) translate(0,14)" font-family="sans-serif" font-size="18px" fill="#000" opacity="1">test</text></g><g class="mark-rule role-axis-domain" pointer-events="none"><line transform="translate(0,0)" x2="600" y2="0" stroke="#888" stroke-width="1" opacity="1"/></g><g class="mark-text role-axis-title" pointer-events="none"><text text-anchor="middle" transform="translate(300,65.48770794634306)" font-family="sans-serif" font-size="22px" font-weight="bold" fill="#000" opacity="1">Split</text></g></g><path class="foreground" aria-hidden="true" d="" pointer-events="none" display="none"/></g></g><g class="mark-group role-axis" role="graphics-symbol" aria-roledescription="axis" aria-label="Y-axis titled 'Number of Sequences' for a linear scale with values from 0 to 4,000"><g transform="translate(0.5,0.5)"><path class="background" aria-hidden="true" d="M0,0h0v0h0Z" pointer-events="none"/><g><g class="mark-rule role-axis-tick" pointer-events="none"><line transform="translate(0,400)" x2="-5" y2="0" stroke="#888" stroke-width="1" opacity="1"/><line transform="translate(0,350)" x2="-5" y2="0" stroke="#888" stroke-width="1" opacity="1"/><line transform="translate(0,300)" x2="-5" y2="0" stroke="#888" stroke-width="1" opacity="1"/><line transform="translate(0,250)" x2="-5" y2="0" stroke="#888" stroke-width="1" opacity="1"/><line transform="translate(0,200)" x2="-5" y2="0" stroke="#888" stroke-width="1" opacity="1"/><line transform="translate(0,150)" x2="-5" y2="0" stroke="#888" stroke-width="1" opacity="1"/><line transform="translate(0,100)" x2="-5" y2="0" stroke="#888" stroke-width="1" opacity="1"/><line transform="translate(0,50)" x2="-5" y2="0" stroke="#888" stroke-width="1" opacity="1"/><line transform="translate(0,0)" x2="-5" y2="0" stroke="#888" stroke-width="1" opacity="1"/></g><g class="mark-text role-axis-label" pointer-events="none"><text text-anchor="end" transform="translate(-7,405)" font-family="sans-serif" font-size="18px" fill="#000" opacity="1">0</text><text text-anchor="end" transform="translate(-7,355)" font-family="sans-serif" font-size="18px" fill="#000" opacity="1">500</text><text text-anchor="end" transform="translate(-7,305)" font-family="sans-serif" font-size="18px" fill="#000" opacity="1">1,000</text><text text-anchor="end" transform="translate(-7,255)" font-family="sans-serif" font-size="18px" fill="#000" opacity="1">1,500</text><text text-anchor="end" transform="translate(-7,205)" font-family="sans-serif" font-size="18px" fill="#000" opacity="1">2,000</text><text text-anchor="end" transform="translate(-7,155)" font-family="sans-serif" font-size="18px" fill="#000" opacity="1">2,500</text><text text-anchor="end" transform="translate(-7,105)" font-family="sans-serif" font-size="18px" fill="#000" opacity="1">3,000</text><text text-anchor="end" transform="translate(-7,55)" font-family="sans-serif" font-size="18px" fill="#000" opacity="1">3,500</text><text text-anchor="end" transform="translate(-7,5)" font-family="sans-serif" font-size="18px" fill="#000" opacity="1">4,000</text></g><g class="mark-rule role-axis-domain" pointer-events="none"><line transform="translate(0,400)" x2="0" y2="-400" stroke="#888" stroke-width="1" opacity="1"/></g><g class="mark-text role-axis-title" pointer-events="none"><text text-anchor="middle" transform="translate(-56.0439453125,200) rotate(-90) translate(0,-5)" font-family="sans-serif" font-size="22px" font-weight="bold" fill="#000" opacity="1">Number of Sequences</text></g></g><path class="foreground" aria-hidden="true" d="" pointer-events="none" display="none"/></g></g><g class="mark-group role-scope" role="graphics-object" aria-roledescription="group mark container"><g transform="translate(10,15.300000000000002)"><path class="background" aria-hidden="true" d="M4,0L176,0C178.207660097976,0,180,1.792339902024,180,4L180,380.7C180,382.90766009797596,178.207660097976,384.7,176,384.7L4,384.7C1.792339902024,384.7,0,382.90766009797596,0,380.7L0,4C0,1.792339902024,1.792339902024,0,4,0Z"/><g clip-path="url(#clip49)"><g class="mark-group role-scope" role="graphics-object" aria-roledescription="group mark container"><g transform="translate(0,-15.300000000000002)"><path class="background" aria-hidden="true" d="M0,0h180v0h-180Z"/><g><g class="mark-rect role-mark marks" role="graphics-object" aria-roledescription="rect mark container"><path aria-label="Split: train; Number of Sequences: 3847; split: train; Count: 3847; Percentage: 75.0" role="graphics-symbol" aria-roledescription="bar" d="M0,15.300000000000002h180v384.7h-180Z" fill="#f58518" opacity="0.8"/></g></g><path class="foreground" aria-hidden="true" d="" display="none"/></g></g></g><path class="foreground" aria-hidden="true" d="" display="none"/></g><g transform="translate(210,323)"><path class="background" aria-hidden="true" d="M4,0L176,0C178.207660097976,0,180,1.792339902024,180,4L180,73C180,75.207660097976,178.207660097976,77,176,77L4,77C1.792339902024,77,0,75.207660097976,0,73L0,4C0,1.792339902024,1.792339902024,0,4,0Z"/><g clip-path="url(#clip50)"><g class="mark-group role-scope" role="graphics-object" aria-roledescription="group mark container"><g transform="translate(0,-323)"><path class="background" aria-hidden="true" d="M0,0h180v0h-180Z"/><g><g class="mark-rect role-mark marks" role="graphics-object" aria-roledescription="rect mark container"><path aria-label="Split: val; Number of Sequences: 770; split: val; Count: 770; Percentage: 15.0" role="graphics-symbol" aria-roledescription="bar" d="M0,323h180v77h-180Z" fill="#e45756" opacity="0.8"/></g></g><path class="foreground" aria-hidden="true" d="" display="none"/></g></g></g><path class="foreground" aria-hidden="true" d="" display="none"/></g><g transform="translate(410,348.59999999999997)"><path class="background" aria-hidden="true" d="M4,0L176,0C178.207660097976,0,180,1.792339902024,180,4L180,47.400000000000034C180,49.60766009797604,178.207660097976,51.400000000000034,176,51.400000000000034L4,51.400000000000034C1.792339902024,51.400000000000034,0,49.60766009797604,0,47.400000000000034L0,4C0,1.792339902024,1.792339902024,0,4,0Z"/><g clip-path="url(#clip51)"><g class="mark-group role-scope" role="graphics-object" aria-roledescription="group mark container"><g transform="translate(0,-348.59999999999997)"><path class="background" aria-hidden="true" d="M0,0h180v0h-180Z"/><g><g class="mark-rect role-mark marks" role="graphics-object" aria-roledescription="rect mark container"><path aria-label="Split: test; Number of Sequences: 514; split: test; Count: 514; Percentage: 10.0" role="graphics-symbol" aria-roledescription="bar" d="M0,348.59999999999997h180v51.400000000000034h-180Z" fill="#4c78a8" opacity="0.8"/></g></g><path class="foreground" aria-hidden="true" d="" display="none"/></g></g></g><path class="foreground" aria-hidden="true" d="" display="none"/></g></g><g class="mark-group role-title"><g transform="translate(300,-37)"><path class="background" aria-hidden="true" d="M0,0h0v0h0Z" pointer-events="none"/><g><g class="mark-text role-title-text" role="graphics-symbol" aria-roledescription="title" aria-label="Title text 'Split Distribution'" pointer-events="none"><text text-anchor="middle" transform="translate(0,19)" font-family="Liberation Sans" font-size="24px" font-weight="bold" fill="#000" opacity="1">Split Distribution</text></g></g><path class="foreground" aria-hidden="true" d="" pointer-events="none" display="none"/></g></g></g><path class="foreground" aria-hidden="true" d="" display="none"/></g></g></g><defs><clipPath id="clip49"><path d="M4,0L176,0C178.207660097976,0,180,1.792339902024,180,4L180,380.7C180,382.90766009797596,178.207660097976,384.7,176,384.7L4,384.7C1.792339902024,384.7,0,382.90766009797596,0,380.7L0,4C0,1.792339902024,1.792339902024,0,4,0Z"/></clipPath><clipPath id="clip50"><path d="M4,0L176,0C178.207660097976,0,180,1.792339902024,180,4L180,73C180,75.207660097976,178.207660097976,77,176,77L4,77C1.792339902024,77,0,75.207660097976,0,73L0,4C0,1.792339902024,1.792339902024,0,4,0Z"/></clipPath><clipPath id="clip51"><path d="M4,0L176,0C178.207660097976,0,180,1.792339902024,180,4L180,47.400000000000034C180,49.60766009797604,178.207660097976,51.400000000000034,176,51.400000000000034L4,51.400000000000034C1.792339902024,51.400000000000034,0,49.60766009797604,0,47.400000000000034L0,4C0,1.792339902024,1.792339902024,0,4,0Z"/></clipPath></defs></svg>