<svg xmlns="http://www.w3.org/2000/svg" xmlns:xlink="http://www.w3.org/1999/xlink" version="1.1" class="marks" width="598" height="366" viewBox="0 0 598 366"><rect width="598" height="366" fill="white"/><g fill="none" stroke-miterlimit="10" transform="translate(39,27)"><g class="mark-group role-frame root" role="graphics-object" aria-roledescription="group mark container"><g transform="translate(0,0)"><path class="background" aria-hidden="true" d="M0.5,0.5h500v300h-500Z" stroke="#ddd"/><g><g class="mark-group role-axis" aria-hidden="true"><g transform="translate(0.5,0.5)"><path class="background" aria-hidden="true" d="M0,0h0v0h0Z" pointer-events="none"/><g><g class="mark-rule role-axis-grid" pointer-events="none"><line transform="translate(0,300)" x2="500" y2="0" stroke="#ddd" stroke-width="1" opacity="1"/><line transform="translate(0,257)" x2="500" y2="0" stroke="#ddd" stroke-width="1" opacity="1"/><line transform="translate(0,214)" x2="500" y2="0" stroke="#ddd" stroke-width="1" opacity="1"/><line transform="translate(0,171)" x2="500" y2="0" stroke="#ddd" stroke-width="1" opacity="1"/><line transform="translate(0,129)" x2="500" y2="0" stroke="#ddd" stroke-width="1" opacity="1"/><line transform="translate(0,86)" x2="500" y2="0" stroke="#ddd" stroke-width="1" opacity="1"/><line transform="translate(0,43)" x2="500" y2="0" stroke="#ddd" stroke-width="1" opacity="1"/><line transform="translate(0,0)" x2="500" y2="0" stroke="#ddd" stroke-width="1" opacity="1"/></g></g><path class="foreground" aria-hidden="true" d="" pointer-events="none" display="none"/></g></g><g class="mark-group role-axis" role="graphics-symbol" aria-roledescription="axis" aria-label="X-axis titled 'Residue Label' for a discrete scale with 9 values: 1, 2, 3, 4, 5, ending with 9"><g transform="translate(0.5,300.5)"><path class="background" aria-hidden="true" d="M0,0h0v0h0Z" pointer-events="none"/><g><g class="mark-rule role-axis-tick" pointer-events="none"><line transform="translate(32,0)" x2="0" y2="5" stroke="#888" stroke-width="1" opacity="1"/><line transform="translate(86,0)" x2="0" y2="5" stroke="#888" stroke-width="1" opacity="1"/><line transform="translate(141,0)" x2="0" y2="5" stroke="#888" stroke-width="1" opacity="1"/><line transform="translate(195,0)" x2="0" y2="5" stroke="#888" stroke-width="1" opacity="1"/><line transform="translate(250,0)" x2="0" y2="5" stroke="#888" stroke-width="1" opacity="1"/><line transform="translate(304,0)" x2="0" y2="5" stroke="#888" stroke-width="1" opacity="1"/><line transform="translate(358,0)" x2="0" y2="5" stroke="#888" stroke-width="1" opacity="1"/><line transform="translate(413,0)" x2="0" y2="5" stroke="#888" stroke-width="1" opacity="1"/><line transform="translate(467,0)" x2="0" y2="5" stroke="#888" stroke-width="1" opacity="1"/></g><g class="mark-text role-axis-label" pointer-events="none"><text text-anchor="end" transform="translate(32.10869565217392,7) rotate(315) translate(0,8)" font-family="sans-serif" font-size="10px" fill="#000" opacity="1">1</text><text text-anchor="end" transform="translate(86.45652173913044,7) rotate(315) translate(0,8)" font-family="sans-serif" font-size="10px" fill="#000" opacity="1">2</text><text text-anchor="end" transform="translate(140.80434782608694,7) rotate(315) translate(0,8)" font-family="sans-serif" font-size="10px" fill="#000" opacity="1">3</text><text text-anchor="end" transform="translate(195.1521739130435,7) rotate(315) translate(0,8)" font-family="sans-serif" font-size="10px" fill="#000" opacity="1">4</text><text text-anchor="end" transform="translate(249.5,7) rotate(315) translate(0,8)" font-family="sans-serif" font-size="10px" fill="#000" opacity="1">5</text><text text-anchor="end" transform="translate(303.8478260869565,7) rotate(315) translate(0,8)" font-family="sans-serif" font-size="10px" fill="#000" opacity="1">6</text><text text-anchor="end" transform="translate(358.19565217391306,7) rotate(315) translate(0,8)" font-family="sans-serif" font-size="10px" fill="#000" opacity="1">7</text><text text-anchor="end" transform="translate(412.54347826086956,7) rotate(315) translate(0,8)" font-family="sans-serif" font-size="10px" fill="#000" opacity="1">8</text><text text-anchor="end" transform="translate(466.89130434782606,7) rotate(315) translate(0,8)" font-family="sans-serif" font-size="10px" fill="#000" opacity="1">9</text></g><g class="mark-rule role-axis-domain" pointer-events="none"><line transform="translate(0,0)" x2="500" y2="0" stroke="#888" stroke-width="1" opacity="1"/></g><g class="mark-text role-axis-title" pointer-events="none"><text text-anchor="middle" transform="translate(250,31.003658748249677)" font-family="sans-serif" font-size="11px" font-weight="bold" fill="#000" opacity="1">Residue Label</text></g></g><path class="foreground" aria-hidden="true" d="" pointer-events="none" display="none"/></g></g><g class="mark-group role-axis" role="graphics-symbol" aria-roledescription="axis" aria-label="Y-axis titled 'Percentage within Split' for a linear scale with values from 0 to 14"><g transform="translate(0.5,0.5)"><path class="background" aria-hidden="true" d="M0,0h0v0h0Z" pointer-events="none"/><g><g class="mark-rule role-axis-tick" pointer-events="none"><line transform="translate(0,300)" x2="-5" y2="0" stroke="#888" stroke-width="1" opacity="1"/><line transform="translate(0,257)" x2="-5" y2="0" stroke="#888" stroke-width="1" opacity="1"/><line transform="translate(0,214)" x2="-5" y2="0" stroke="#888" stroke-width="1" opacity="1"/><line transform="translate(0,171)" x2="-5" y2="0" stroke="#888" stroke-width="1" opacity="1"/><line transform="translate(0,129)" x2="-5" y2="0" stroke="#888" stroke-width="1" opacity="1"/><line transform="translate(0,86)" x2="-5" y2="0" stroke="#888" stroke-width="1" opacity="1"/><line transform="translate(0,43)" x2="-5" y2="0" stroke="#888" stroke-width="1" opacity="1"/><line transform="translate(0,0)" x2="-5" y2="0" stroke="#888" stroke-width="1" opacity="1"/></g><g class="mark-text role-axis-label" pointer-events="none"><text text-anchor="end" transform="translate(-7,303)" font-family="sans-serif" font-size="10px" fill="#000" opacity="1">0</text><text text-anchor="end" transform="translate(-7,260.14285714285717)" font-family="sans-serif" font-size="10px" fill="#000" opacity="1">2</text><text text-anchor="end" transform="translate(-7,217.28571428571428)" font-family="sans-serif" font-size="10px" fill="#000" opacity="1">4</text><text text-anchor="end" transform="translate(-7,174.42857142857142)" font-family="sans-serif" font-size="10px" fill="#000" opacity="1">6</text><text text-anchor="end" transform="translate(-7,131.57142857142858)" font-family="sans-serif" font-size="10px" fill="#000" opacity="1">8</text><text text-anchor="end" transform="translate(-7,88.71428571428571)" font-family="sans-serif" font-size="10px" fill="#000" opacity="1">10</text><text text-anchor="end" transform="translate(-7,45.85714285714287)" font-family="sans-serif" font-size="10px" fill="#000" opacity="1">12</text><text text-anchor="end" transform="translate(-7,3)" font-family="sans-serif" font-size="10px" fill="#000" opacity="1">14</text></g><g class="mark-rule role-axis-domain" pointer-events="none"><line transform="translate(0,300)" x2="0" y2="-300" stroke="#888" stroke-width="1" opacity="1"/></g><g class="mark-text role-axis-title" pointer-events="none"><text text-anchor="middle" transform="translate(-22.123046875,150) rotate(-90) translate(0,-2)" font-family="sans-serif" font-size="11px" font-weight="bold" fill="#000" opacity="1">Percentage within Split</text></g></g><path class="foreground" aria-hidden="true" d="" pointer-events="none" display="none"/></g></g><g class="mark-group role-scope" role="graphics-object" aria-roledescription="group mark container"><g transform="translate(39.855072463768124,29.999999999999993)"><path class="background" aria-hidden="true" d="M4,0L10.492753623188406,0C12.700413721164406,0,14.492753623188406,1.792339902024,14.492753623188406,4L14.492753623188406,266C14.492753623188406,268.207660097976,12.700413721164406,270,10.492753623188406,270L4,270C1.792339902024,270,0,268.207660097976,0,266L0,4C0,1.792339902024,1.792339902024,0,4,0Z"/><g clip-path="url(#clip13)"><g class="mark-group role-scope" role="graphics-object" aria-roledescription="group mark container"><g transform="translate(0,-29.999999999999993)"><path class="background" aria-hidden="true" d="M0,0h14.492753623188406v0h-14.492753623188406Z"/><g><g class="mark-rect role-mark marks" role="graphics-object" aria-roledescription="rect mark container"><path aria-label="Residue Label: 1; Percentage within Split: 12.6; split: test; Split: test; Label: 1; Count: 16814; Percentage: 12.6" role="graphics-symbol" aria-roledescription="bar" d="M0,29.999999999999993h14.492753623188406v270h-14.492753623188406Z" fill="#e45756" opacity="0.8"/></g></g><path class="foreground" aria-hidden="true" d="" display="none"/></g></g></g><path class="foreground" aria-hidden="true" d="" display="none"/></g><g transform="translate(94.20289855072464,152.14285714285714)"><path class="background" aria-hidden="true" d="M4,0L10.492753623188406,0C12.700413721164406,0,14.492753623188406,1.792339902024,14.492753623188406,4L14.492753623188406,143.85714285714286C14.492753623188406,146.06480295511886,12.700413721164406,147.85714285714286,10.492753623188406,147.85714285714286L4,147.85714285714286C1.792339902024,147.85714285714286,0,146.06480295511886,0,143.85714285714286L0,4C0,1.792339902024,1.792339902024,0,4,0Z"/><g clip-path="url(#clip14)"><g class="mark-group role-scope" role="graphics-object" aria-roledescription="group mark container"><g transform="translate(0,-152.14285714285714)"><path class="background" aria-hidden="true" d="M0,0h14.492753623188406v0h-14.492753623188406Z"/><g><g class="mark-rect role-mark marks" role="graphics-object" aria-roledescription="rect mark container"><path aria-label="Residue Label: 2; Percentage within Split: 6.9; split: test; Split: test; Label: 2; Count: 9220; Percentage: 6.9" role="graphics-symbol" aria-roledescription="bar" d="M0,152.14285714285714h14.492753623188406v147.85714285714286h-14.492753623188406Z" fill="#e45756" opacity="0.8"/></g></g><path class="foreground" aria-hidden="true" d="" display="none"/></g></g></g><path class="foreground" aria-hidden="true" d="" display="none"/></g><g transform="translate(148.55072463768116,111.4285714285714)"><path class="background" aria-hidden="true" d="M4,0L10.492753623188406,0C12.700413721164406,0,14.492753623188406,1.792339902024,14.492753623188406,4L14.492753623188406,184.5714285714286C14.492753623188406,186.77908866940462,12.700413721164406,188.5714285714286,10.492753623188406,188.5714285714286L4,188.5714285714286C1.792339902024,188.5714285714286,0,186.77908866940462,0,184.5714285714286L0,4C0,1.792339902024,1.792339902024,0,4,0Z"/><g clip-path="url(#clip15)"><g class="mark-group role-scope" role="graphics-object" aria-roledescription="group mark container"><g transform="translate(0,-111.4285714285714)"><path class="background" aria-hidden="true" d="M0,0h14.492753623188406v0h-14.492753623188406Z"/><g><g class="mark-rect role-mark marks" role="graphics-object" aria-roledescription="rect mark container"><path aria-label="Residue Label: 3; Percentage within Split: 8.8; split: test; Split: test; Label: 3; Count: 11730; Percentage: 8.8" role="graphics-symbol" aria-roledescription="bar" d="M0,111.4285714285714h14.492753623188406v188.5714285714286h-14.492753623188406Z" fill="#e45756" opacity="0.8"/></g></g><path class="foreground" aria-hidden="true" d="" display="none"/></g></g></g><path class="foreground" aria-hidden="true" d="" display="none"/></g><g transform="translate(202.8985507246377,75)"><path class="background" aria-hidden="true" d="M4,0L10.492753623188406,0C12.700413721164406,0,14.492753623188406,1.792339902024,14.492753623188406,4L14.492753623188406,221C14.492753623188406,223.207660097976,12.700413721164406,225,10.492753623188406,225L4,225C1.792339902024,225,0,223.207660097976,0,221L0,4C0,1.792339902024,1.792339902024,0,4,0Z"/><g clip-path="url(#clip16)"><g class="mark-group role-scope" role="graphics-object" aria-roledescription="group mark container"><g transform="translate(0,-75)"><path class="background" aria-hidden="true" d="M0,0h14.492753623188406v0h-14.492753623188406Z"/><g><g class="mark-rect role-mark marks" role="graphics-object" aria-roledescription="rect mark container"><path aria-label="Residue Label: 4; Percentage within Split: 10.5; split: test; Split: test; Label: 4; Count: 14102; Percentage: 10.5" role="graphics-symbol" aria-roledescription="bar" d="M0,75h14.492753623188406v225h-14.492753623188406Z" fill="#e45756" opacity="0.8"/></g></g><path class="foreground" aria-hidden="true" d="" display="none"/></g></g></g><path class="foreground" aria-hidden="true" d="" display="none"/></g><g transform="translate(257.2463768115942,42.85714285714287)"><path class="background" aria-hidden="true" d="M4,0L10.492753623188406,0C12.700413721164406,0,14.492753623188406,1.792339902024,14.492753623188406,4L14.492753623188406,253.1428571428571C14.492753623188406,255.3505172408331,12.700413721164406,257.1428571428571,10.492753623188406,257.1428571428571L4,257.1428571428571C1.792339902024,257.1428571428571,0,255.3505172408331,0,253.1428571428571L0,4C0,1.792339902024,1.792339902024,0,4,0Z"/><g clip-path="url(#clip17)"><g class="mark-group role-scope" role="graphics-object" aria-roledescription="group mark container"><g transform="translate(0,-42.85714285714287)"><path class="background" aria-hidden="true" d="M0,0h14.492753623188406v0h-14.492753623188406Z"/><g><g class="mark-rect role-mark marks" role="graphics-object" aria-roledescription="rect mark container"><path aria-label="Residue Label: 5; Percentage within Split: 12; split: test; Split: test; Label: 5; Count: 16118; Percentage: 12.0" role="graphics-symbol" aria-roledescription="bar" d="M0,42.85714285714287h14.492753623188406v257.1428571428571h-14.492753623188406Z" fill="#e45756" opacity="0.8"/></g></g><path class="foreground" aria-hidden="true" d="" display="none"/></g></g></g><path class="foreground" aria-hidden="true" d="" display="none"/></g><g transform="translate(311.5942028985507,0)"><path class="background" aria-hidden="true" d="M4,0L10.492753623188406,0C12.700413721164406,0,14.492753623188406,1.792339902024,14.492753623188406,4L14.492753623188406,296C14.492753623188406,298.207660097976,12.700413721164406,300,10.492753623188406,300L4,300C1.792339902024,300,0,298.207660097976,0,296L0,4C0,1.792339902024,1.792339902024,0,4,0Z"/><g clip-path="url(#clip18)"><g class="mark-group role-scope" role="graphics-object" aria-roledescription="group mark container"><g transform="translate(0,0)"><path class="background" aria-hidden="true" d="M0,0h14.492753623188406v0h-14.492753623188406Z"/><g><g class="mark-rect role-mark marks" role="graphics-object" aria-roledescription="rect mark container"><path aria-label="Residue Label: 6; Percentage within Split: 14; split: test; Split: test; Label: 6; Count: 18789; Percentage: 14.0" role="graphics-symbol" aria-roledescription="bar" d="M0,0h14.492753623188406v300h-14.492753623188406Z" fill="#e45756" opacity="0.8"/></g></g><path class="foreground" aria-hidden="true" d="" display="none"/></g></g></g><path class="foreground" aria-hidden="true" d="" display="none"/></g><g transform="translate(365.94202898550725,19.285714285714285)"><path class="background" aria-hidden="true" d="M4,0L10.492753623188406,0C12.700413721164406,0,14.492753623188406,1.792339902024,14.492753623188406,4L14.492753623188406,276.7142857142857C14.492753623188406,278.9219458122617,12.700413721164406,280.7142857142857,10.492753623188406,280.7142857142857L4,280.7142857142857C1.792339902024,280.7142857142857,0,278.9219458122617,0,276.7142857142857L0,4C0,1.792339902024,1.792339902024,0,4,0Z"/><g clip-path="url(#clip19)"><g class="mark-group role-scope" role="graphics-object" aria-roledescription="group mark container"><g transform="translate(0,-19.285714285714285)"><path class="background" aria-hidden="true" d="M0,0h14.492753623188406v0h-14.492753623188406Z"/><g><g class="mark-rect role-mark marks" role="graphics-object" aria-roledescription="rect mark container"><path aria-label="Residue Label: 7; Percentage within Split: 13.1; split: test; Split: test; Label: 7; Count: 17600; Percentage: 13.1" role="graphics-symbol" aria-roledescription="bar" d="M0,19.285714285714285h14.492753623188406v280.7142857142857h-14.492753623188406Z" fill="#e45756" opacity="0.8"/></g></g><path class="foreground" aria-hidden="true" d="" display="none"/></g></g></g><path class="foreground" aria-hidden="true" d="" display="none"/></g><g transform="translate(420.28985507246375,62.14285714285715)"><path class="background" aria-hidden="true" d="M4,0L10.492753623188406,0C12.700413721164406,0,14.492753623188406,1.792339902024,14.492753623188406,4L14.492753623188406,233.85714285714283C14.492753623188406,236.06480295511884,12.700413721164406,237.85714285714283,10.492753623188406,237.85714285714283L4,237.85714285714283C1.792339902024,237.85714285714283,0,236.06480295511884,0,233.85714285714283L0,4C0,1.792339902024,1.792339902024,0,4,0Z"/><g clip-path="url(#clip20)"><g class="mark-group role-scope" role="graphics-object" aria-roledescription="group mark container"><g transform="translate(0,-62.14285714285715)"><path class="background" aria-hidden="true" d="M0,0h14.492753623188406v0h-14.492753623188406Z"/><g><g class="mark-rect role-mark marks" role="graphics-object" aria-roledescription="rect mark container"><path aria-label="Residue Label: 8; Percentage within Split: 11.1; split: test; Split: test; Label: 8; Count: 14883; Percentage: 11.1" role="graphics-symbol" aria-roledescription="bar" d="M0,62.14285714285715h14.492753623188406v237.85714285714283h-14.492753623188406Z" fill="#e45756" opacity="0.8"/></g></g><path class="foreground" aria-hidden="true" d="" display="none"/></g></g></g><path class="foreground" aria-hidden="true" d="" display="none"/></g><g transform="translate(474.63768115942025,66.42857142857143)"><path class="background" aria-hidden="true" d="M4,0L10.492753623188406,0C12.700413721164406,0,14.492753623188406,1.792339902024,14.492753623188406,4L14.492753623188406,229.57142857142856C14.492753623188406,231.77908866940456,12.700413721164406,233.57142857142856,10.492753623188406,233.57142857142856L4,233.57142857142856C1.792339902024,233.57142857142856,0,231.77908866940456,0,229.57142857142856L0,4C0,1.792339902024,1.792339902024,0,4,0Z"/><g clip-path="url(#clip21)"><g class="mark-group role-scope" role="graphics-object" aria-roledescription="group mark container"><g transform="translate(0,-66.42857142857143)"><path class="background" aria-hidden="true" d="M0,0h14.492753623188406v0h-14.492753623188406Z"/><g><g class="mark-rect role-mark marks" role="graphics-object" aria-roledescription="rect mark container"><path aria-label="Residue Label: 9; Percentage within Split: 10.9; split: test; Split: test; Label: 9; Count: 14601; Percentage: 10.9" role="graphics-symbol" aria-roledescription="bar" d="M0,66.42857142857143h14.492753623188406v233.57142857142856h-14.492753623188406Z" fill="#e45756" opacity="0.8"/></g></g><path class="foreground" aria-hidden="true" d="" display="none"/></g></g></g><path class="foreground" aria-hidden="true" d="" display="none"/></g><g transform="translate(10.869565217391312,21.42857142857142)"><path class="background" aria-hidden="true" d="M4,0L10.492753623188406,0C12.700413721164406,0,14.492753623188406,1.792339902024,14.492753623188406,4L14.492753623188406,274.57142857142856C14.492753623188406,276.77908866940453,12.700413721164406,278.57142857142856,10.492753623188406,278.57142857142856L4,278.57142857142856C1.792339902024,278.57142857142856,0,276.77908866940453,0,274.57142857142856L0,4C0,1.792339902024,1.792339902024,0,4,0Z"/><g clip-path="url(#clip22)"><g class="mark-group role-scope" role="graphics-object" aria-roledescription="group mark container"><g transform="translate(0,-21.42857142857142)"><path class="background" aria-hidden="true" d="M0,0h14.492753623188406v0h-14.492753623188406Z"/><g><g class="mark-rect role-mark marks" role="graphics-object" aria-roledescription="rect mark container"><path aria-label="Residue Label: 1; Percentage within Split: 13; split: train; Split: train; Label: 1; Count: 318065; Percentage: 13.0" role="graphics-symbol" aria-roledescription="bar" d="M0,21.42857142857142h14.492753623188406v278.57142857142856h-14.492753623188406Z" fill="#4c78a8" opacity="0.8"/></g></g><path class="foreground" aria-hidden="true" d="" display="none"/></g></g></g><path class="foreground" aria-hidden="true" d="" display="none"/></g><g transform="translate(65.21739130434783,156.42857142857142)"><path class="background" aria-hidden="true" d="M4,0L10.492753623188406,0C12.700413721164406,0,14.492753623188406,1.792339902024,14.492753623188406,4L14.492753623188406,139.57142857142858C14.492753623188406,141.7790886694046,12.700413721164406,143.57142857142858,10.492753623188406,143.57142857142858L4,143.57142857142858C1.792339902024,143.57142857142858,0,141.7790886694046,0,139.57142857142858L0,4C0,1.792339902024,1.792339902024,0,4,0Z"/><g clip-path="url(#clip23)"><g class="mark-group role-scope" role="graphics-object" aria-roledescription="group mark container"><g transform="translate(0,-156.42857142857142)"><path class="background" aria-hidden="true" d="M0,0h14.492753623188406v0h-14.492753623188406Z"/><g><g class="mark-rect role-mark marks" role="graphics-object" aria-roledescription="rect mark container"><path aria-label="Residue Label: 2; Percentage within Split: 6.7; split: train; Split: train; Label: 2; Count: 163297; Percentage: 6.7" role="graphics-symbol" aria-roledescription="bar" d="M0,156.42857142857142h14.492753623188406v143.57142857142858h-14.492753623188406Z" fill="#4c78a8" opacity="0.8"/></g></g><path class="foreground" aria-hidden="true" d="" display="none"/></g></g></g><path class="foreground" aria-hidden="true" d="" display="none"/></g><g transform="translate(119.56521739130434,117.85714285714288)"><path class="background" aria-hidden="true" d="M4,0L10.492753623188406,0C12.700413721164406,0,14.492753623188406,1.792339902024,14.492753623188406,4L14.492753623188406,178.1428571428571C14.492753623188406,180.3505172408331,12.700413721164406,182.1428571428571,10.492753623188406,182.1428571428571L4,182.1428571428571C1.792339902024,182.1428571428571,0,180.3505172408331,0,178.1428571428571L0,4C0,1.792339902024,1.792339902024,0,4,0Z"/><g clip-path="url(#clip24)"><g class="mark-group role-scope" role="graphics-object" aria-roledescription="group mark container"><g transform="translate(0,-117.85714285714288)"><path class="background" aria-hidden="true" d="M0,0h14.492753623188406v0h-14.492753623188406Z"/><g><g class="mark-rect role-mark marks" role="graphics-object" aria-roledescription="rect mark container"><path aria-label="Residue Label: 3; Percentage within Split: 8.5; split: train; Split: train; Label: 3; Count: 208619; Percentage: 8.5" role="graphics-symbol" aria-roledescription="bar" d="M0,117.85714285714288h14.492753623188406v182.1428571428571h-14.492753623188406Z" fill="#4c78a8" opacity="0.8"/></g></g><path class="foreground" aria-hidden="true" d="" display="none"/></g></g></g><path class="foreground" aria-hidden="true" d="" display="none"/></g><g transform="translate(173.91304347826087,81.42857142857144)"><path class="background" aria-hidden="true" d="M4,0L10.492753623188406,0C12.700413721164406,0,14.492753623188406,1.792339902024,14.492753623188406,4L14.492753623188406,214.57142857142856C14.492753623188406,216.77908866940456,12.700413721164406,218.57142857142856,10.492753623188406,218.57142857142856L4,218.57142857142856C1.792339902024,218.57142857142856,0,216.77908866940456,0,214.57142857142856L0,4C0,1.792339902024,1.792339902024,0,4,0Z"/><g clip-path="url(#clip25)"><g class="mark-group role-scope" role="graphics-object" aria-roledescription="group mark container"><g transform="translate(0,-81.42857142857144)"><path class="background" aria-hidden="true" d="M0,0h14.492753623188406v0h-14.492753623188406Z"/><g><g class="mark-rect role-mark marks" role="graphics-object" aria-roledescription="rect mark container"><path aria-label="Residue Label: 4; Percentage within Split: 10.2; split: train; Split: train; Label: 4; Count: 249834; Percentage: 10.2" role="graphics-symbol" aria-roledescription="bar" d="M0,81.42857142857144h14.492753623188406v218.57142857142856h-14.492753623188406Z" fill="#4c78a8" opacity="0.8"/></g></g><path class="foreground" aria-hidden="true" d="" display="none"/></g></g></g><path class="foreground" aria-hidden="true" d="" display="none"/></g><g transform="translate(228.26086956521738,47.14285714285714)"><path class="background" aria-hidden="true" d="M4,0L10.492753623188406,0C12.700413721164406,0,14.492753623188406,1.792339902024,14.492753623188406,4L14.492753623188406,248.85714285714286C14.492753623188406,251.06480295511886,12.700413721164406,252.85714285714286,10.492753623188406,252.85714285714286L4,252.85714285714286C1.792339902024,252.85714285714286,0,251.06480295511886,0,248.85714285714286L0,4C0,1.792339902024,1.792339902024,0,4,0Z"/><g clip-path="url(#clip26)"><g class="mark-group role-scope" role="graphics-object" aria-roledescription="group mark container"><g transform="translate(0,-47.14285714285714)"><path class="background" aria-hidden="true" d="M0,0h14.492753623188406v0h-14.492753623188406Z"/><g><g class="mark-rect role-mark marks" role="graphics-object" aria-roledescription="rect mark container"><path aria-label="Residue Label: 5; Percentage within Split: 11.8; split: train; Split: train; Label: 5; Count: 287881; Percentage: 11.8" role="graphics-symbol" aria-roledescription="bar" d="M0,47.14285714285714h14.492753623188406v252.85714285714286h-14.492753623188406Z" fill="#4c78a8" opacity="0.8"/></g></g><path class="foreground" aria-hidden="true" d="" display="none"/></g></g></g><path class="foreground" aria-hidden="true" d="" display="none"/></g><g transform="translate(282.6086956521739,2.1428571428571352)"><path class="background" aria-hidden="true" d="M4,0L10.492753623188406,0C12.700413721164406,0,14.492753623188406,1.792339902024,14.492753623188406,4L14.492753623188406,293.8571428571429C14.492753623188406,296.06480295511886,12.700413721164406,297.8571428571429,10.492753623188406,297.8571428571429L4,297.8571428571429C1.792339902024,297.8571428571429,0,296.06480295511886,0,293.8571428571429L0,4C0,1.792339902024,1.792339902024,0,4,0Z"/><g clip-path="url(#clip27)"><g class="mark-group role-scope" role="graphics-object" aria-roledescription="group mark container"><g transform="translate(0,-2.1428571428571352)"><path class="background" aria-hidden="true" d="M0,0h14.492753623188406v0h-14.492753623188406Z"/><g><g class="mark-rect role-mark marks" role="graphics-object" aria-roledescription="rect mark container"><path aria-label="Residue Label: 6; Percentage within Split: 13.9; split: train; Split: train; Label: 6; Count: 338900; Percentage: 13.9" role="graphics-symbol" aria-roledescription="bar" d="M0,2.1428571428571352h14.492753623188406v297.8571428571429h-14.492753623188406Z" fill="#4c78a8" opacity="0.8"/></g></g><path class="foreground" aria-hidden="true" d="" display="none"/></g></g></g><path class="foreground" aria-hidden="true" d="" display="none"/></g><g transform="translate(336.95652173913044,17.14285714285715)"><path class="background" aria-hidden="true" d="M4,0L10.492753623188406,0C12.700413721164406,0,14.492753623188406,1.792339902024,14.492753623188406,4L14.492753623188406,278.85714285714283C14.492753623188406,281.0648029551188,12.700413721164406,282.85714285714283,10.492753623188406,282.85714285714283L4,282.85714285714283C1.792339902024,282.85714285714283,0,281.0648029551188,0,278.85714285714283L0,4C0,1.792339902024,1.792339902024,0,4,0Z"/><g clip-path="url(#clip28)"><g class="mark-group role-scope" role="graphics-object" aria-roledescription="group mark container"><g transform="translate(0,-17.14285714285715)"><path class="background" aria-hidden="true" d="M0,0h14.492753623188406v0h-14.492753623188406Z"/><g><g class="mark-rect role-mark marks" role="graphics-object" aria-roledescription="rect mark container"><path aria-label="Residue Label: 7; Percentage within Split: 13.2; split: train; Split: train; Label: 7; Count: 321176; Percentage: 13.2" role="graphics-symbol" aria-roledescription="bar" d="M0,17.14285714285715h14.492753623188406v282.85714285714283h-14.492753623188406Z" fill="#4c78a8" opacity="0.8"/></g></g><path class="foreground" aria-hidden="true" d="" display="none"/></g></g></g><path class="foreground" aria-hidden="true" d="" display="none"/></g><g transform="translate(391.30434782608694,60.00000000000002)"><path class="background" aria-hidden="true" d="M4,0L10.492753623188406,0C12.700413721164406,0,14.492753623188406,1.792339902024,14.492753623188406,4L14.492753623188406,235.99999999999997C14.492753623188406,238.20766009797597,12.700413721164406,239.99999999999997,10.492753623188406,239.99999999999997L4,239.99999999999997C1.792339902024,239.99999999999997,0,238.20766009797597,0,235.99999999999997L0,4C0,1.792339902024,1.792339902024,0,4,0Z"/><g clip-path="url(#clip29)"><g class="mark-group role-scope" role="graphics-object" aria-roledescription="group mark container"><g transform="translate(0,-60.00000000000002)"><path class="background" aria-hidden="true" d="M0,0h14.492753623188406v0h-14.492753623188406Z"/><g><g class="mark-rect role-mark marks" role="graphics-object" aria-roledescription="rect mark container"><path aria-label="Residue Label: 8; Percentage within Split: 11.2; split: train; Split: train; Label: 8; Count: 272187; Percentage: 11.2" role="graphics-symbol" aria-roledescription="bar" d="M0,60.00000000000002h14.492753623188406v239.99999999999997h-14.492753623188406Z" fill="#4c78a8" opacity="0.8"/></g></g><path class="foreground" aria-hidden="true" d="" display="none"/></g></g></g><path class="foreground" aria-hidden="true" d="" display="none"/></g><g transform="translate(445.65217391304344,53.571428571428584)"><path class="background" aria-hidden="true" d="M4,0L10.492753623188406,0C12.700413721164406,0,14.492753623188406,1.792339902024,14.492753623188406,4L14.492753623188406,242.42857142857142C14.492753623188406,244.63623152654742,12.700413721164406,246.42857142857142,10.492753623188406,246.42857142857142L4,246.42857142857142C1.792339902024,246.42857142857142,0,244.63623152654742,0,242.42857142857142L0,4C0,1.792339902024,1.792339902024,0,4,0Z"/><g clip-path="url(#clip30)"><g class="mark-group role-scope" role="graphics-object" aria-roledescription="group mark container"><g transform="translate(0,-53.571428571428584)"><path class="background" aria-hidden="true" d="M0,0h14.492753623188406v0h-14.492753623188406Z"/><g><g class="mark-rect role-mark marks" role="graphics-object" aria-roledescription="rect mark container"><path aria-label="Residue Label: 9; Percentage within Split: 11.5; split: train; Split: train; Label: 9; Count: 280547; Percentage: 11.5" role="graphics-symbol" aria-roledescription="bar" d="M0,53.571428571428584h14.492753623188406v246.42857142857142h-14.492753623188406Z" fill="#4c78a8" opacity="0.8"/></g></g><path class="foreground" aria-hidden="true" d="" display="none"/></g></g></g><path class="foreground" aria-hidden="true" d="" display="none"/></g><g transform="translate(25.362318840579718,23.571428571428555)"><path class="background" aria-hidden="true" d="M4,0L10.492753623188406,0C12.700413721164406,0,14.492753623188406,1.792339902024,14.492753623188406,4L14.492753623188406,272.42857142857144C14.492753623188406,274.6362315265474,12.700413721164406,276.42857142857144,10.492753623188406,276.42857142857144L4,276.42857142857144C1.792339902024,276.42857142857144,0,274.6362315265474,0,272.42857142857144L0,4C0,1.792339902024,1.792339902024,0,4,0Z"/><g clip-path="url(#clip31)"><g class="mark-group role-scope" role="graphics-object" aria-roledescription="group mark container"><g transform="translate(0,-23.571428571428555)"><path class="background" aria-hidden="true" d="M0,0h14.492753623188406v0h-14.492753623188406Z"/><g><g class="mark-rect role-mark marks" role="graphics-object" aria-roledescription="rect mark container"><path aria-label="Residue Label: 1; Percentage within Split: 12.9; split: val; Split: val; Label: 1; Count: 18277; Percentage: 12.9" role="graphics-symbol" aria-roledescription="bar" d="M0,23.571428571428555h14.492753623188406v276.42857142857144h-14.492753623188406Z" fill="#f58518" opacity="0.8"/></g></g><path class="foreground" aria-hidden="true" d="" display="none"/></g></g></g><path class="foreground" aria-hidden="true" d="" display="none"/></g><g transform="translate(79.71014492753623,156.42857142857142)"><path class="background" aria-hidden="true" d="M4,0L10.492753623188406,0C12.700413721164406,0,14.492753623188406,1.792339902024,14.492753623188406,4L14.492753623188406,139.57142857142858C14.492753623188406,141.7790886694046,12.700413721164406,143.57142857142858,10.492753623188406,143.57142857142858L4,143.57142857142858C1.792339902024,143.57142857142858,0,141.7790886694046,0,139.57142857142858L0,4C0,1.792339902024,1.792339902024,0,4,0Z"/><g clip-path="url(#clip32)"><g class="mark-group role-scope" role="graphics-object" aria-roledescription="group mark container"><g transform="translate(0,-156.42857142857142)"><path class="background" aria-hidden="true" d="M0,0h14.492753623188406v0h-14.492753623188406Z"/><g><g class="mark-rect role-mark marks" role="graphics-object" aria-roledescription="rect mark container"><path aria-label="Residue Label: 2; Percentage within Split: 6.7; split: val; Split: val; Label: 2; Count: 9451; Percentage: 6.7" role="graphics-symbol" aria-roledescription="bar" d="M0,156.42857142857142h14.492753623188406v143.57142857142858h-14.492753623188406Z" fill="#f58518" opacity="0.8"/></g></g><path class="foreground" aria-hidden="true" d="" display="none"/></g></g></g><path class="foreground" aria-hidden="true" d="" display="none"/></g><g transform="translate(134.05797101449275,113.5714285714286)"><path class="background" aria-hidden="true" d="M4,0L10.492753623188406,0C12.700413721164406,0,14.492753623188406,1.792339902024,14.492753623188406,4L14.492753623188406,182.4285714285714C14.492753623188406,184.6362315265474,12.700413721164406,186.4285714285714,10.492753623188406,186.4285714285714L4,186.4285714285714C1.792339902024,186.4285714285714,0,184.6362315265474,0,182.4285714285714L0,4C0,1.792339902024,1.792339902024,0,4,0Z"/><g clip-path="url(#clip33)"><g class="mark-group role-scope" role="graphics-object" aria-roledescription="group mark container"><g transform="translate(0,-113.5714285714286)"><path class="background" aria-hidden="true" d="M0,0h14.492753623188406v0h-14.492753623188406Z"/><g><g class="mark-rect role-mark marks" role="graphics-object" aria-roledescription="rect mark container"><path aria-label="Residue Label: 3; Percentage within Split: 8.7; split: val; Split: val; Label: 3; Count: 12375; Percentage: 8.7" role="graphics-symbol" aria-roledescription="bar" d="M0,113.5714285714286h14.492753623188406v186.4285714285714h-14.492753623188406Z" fill="#f58518" opacity="0.8"/></g></g><path class="foreground" aria-hidden="true" d="" display="none"/></g></g></g><path class="foreground" aria-hidden="true" d="" display="none"/></g><g transform="translate(188.40579710144928,79.28571428571428)"><path class="background" aria-hidden="true" d="M4,0L10.492753623188406,0C12.700413721164406,0,14.492753623188406,1.792339902024,14.492753623188406,4L14.492753623188406,216.71428571428572C14.492753623188406,218.92194581226173,12.700413721164406,220.71428571428572,10.492753623188406,220.71428571428572L4,220.71428571428572C1.792339902024,220.71428571428572,0,218.92194581226173,0,216.71428571428572L0,4C0,1.792339902024,1.792339902024,0,4,0Z"/><g clip-path="url(#clip34)"><g class="mark-group role-scope" role="graphics-object" aria-roledescription="group mark container"><g transform="translate(0,-79.28571428571428)"><path class="background" aria-hidden="true" d="M0,0h14.492753623188406v0h-14.492753623188406Z"/><g><g class="mark-rect role-mark marks" role="graphics-object" aria-roledescription="rect mark container"><path aria-label="Residue Label: 4; Percentage within Split: 10.3; split: val; Split: val; Label: 4; Count: 14545; Percentage: 10.3" role="graphics-symbol" aria-roledescription="bar" d="M0,79.28571428571428h14.492753623188406v220.71428571428572h-14.492753623188406Z" fill="#f58518" opacity="0.8"/></g></g><path class="foreground" aria-hidden="true" d="" display="none"/></g></g></g><path class="foreground" aria-hidden="true" d="" display="none"/></g><g transform="translate(242.75362318840578,47.14285714285714)"><path class="background" aria-hidden="true" d="M4,0L10.492753623188406,0C12.700413721164406,0,14.492753623188406,1.792339902024,14.492753623188406,4L14.492753623188406,248.85714285714286C14.492753623188406,251.06480295511886,12.700413721164406,252.85714285714286,10.492753623188406,252.85714285714286L4,252.85714285714286C1.792339902024,252.85714285714286,0,251.06480295511886,0,248.85714285714286L0,4C0,1.792339902024,1.792339902024,0,4,0Z"/><g clip-path="url(#clip35)"><g class="mark-group role-scope" role="graphics-object" aria-roledescription="group mark container"><g transform="translate(0,-47.14285714285714)"><path class="background" aria-hidden="true" d="M0,0h14.492753623188406v0h-14.492753623188406Z"/><g><g class="mark-rect role-mark marks" role="graphics-object" aria-roledescription="rect mark container"><path aria-label="Residue Label: 5; Percentage within Split: 11.8; split: val; Split: val; Label: 5; Count: 16638; Percentage: 11.8" role="graphics-symbol" aria-roledescription="bar" d="M0,47.14285714285714h14.492753623188406v252.85714285714286h-14.492753623188406Z" fill="#f58518" opacity="0.8"/></g></g><path class="foreground" aria-hidden="true" d="" display="none"/></g></g></g><path class="foreground" aria-hidden="true" d="" display="none"/></g><g transform="translate(297.10144927536226,2.1428571428571352)"><path class="background" aria-hidden="true" d="M4,0L10.492753623188406,0C12.700413721164406,0,14.492753623188406,1.792339902024,14.492753623188406,4L14.492753623188406,293.8571428571429C14.492753623188406,296.06480295511886,12.700413721164406,297.8571428571429,10.492753623188406,297.8571428571429L4,297.8571428571429C1.792339902024,297.8571428571429,0,296.06480295511886,0,293.8571428571429L0,4C0,1.792339902024,1.792339902024,0,4,0Z"/><g clip-path="url(#clip36)"><g class="mark-group role-scope" role="graphics-object" aria-roledescription="group mark container"><g transform="translate(0,-2.1428571428571352)"><path class="background" aria-hidden="true" d="M0,0h14.492753623188406v0h-14.492753623188406Z"/><g><g class="mark-rect role-mark marks" role="graphics-object" aria-roledescription="rect mark container"><path aria-label="Residue Label: 6; Percentage within Split: 13.9; split: val; Split: val; Label: 6; Count: 19598; Percentage: 13.9" role="graphics-symbol" aria-roledescription="bar" d="M0,2.1428571428571352h14.492753623188406v297.8571428571429h-14.492753623188406Z" fill="#f58518" opacity="0.8"/></g></g><path class="foreground" aria-hidden="true" d="" display="none"/></g></g></g><path class="foreground" aria-hidden="true" d="" display="none"/></g><g transform="translate(351.4492753623189,21.42857142857142)"><path class="background" aria-hidden="true" d="M4,0L10.492753623188406,0C12.700413721164406,0,14.492753623188406,1.792339902024,14.492753623188406,4L14.492753623188406,274.57142857142856C14.492753623188406,276.77908866940453,12.700413721164406,278.57142857142856,10.492753623188406,278.57142857142856L4,278.57142857142856C1.792339902024,278.57142857142856,0,276.77908866940453,0,274.57142857142856L0,4C0,1.792339902024,1.792339902024,0,4,0Z"/><g clip-path="url(#clip37)"><g class="mark-group role-scope" role="graphics-object" aria-roledescription="group mark container"><g transform="translate(0,-21.42857142857142)"><path class="background" aria-hidden="true" d="M0,0h14.492753623188406v0h-14.492753623188406Z"/><g><g class="mark-rect role-mark marks" role="graphics-object" aria-roledescription="rect mark container"><path aria-label="Residue Label: 7; Percentage within Split: 13; split: val; Split: val; Label: 7; Count: 18398; Percentage: 13.0" role="graphics-symbol" aria-roledescription="bar" d="M0,21.42857142857142h14.492753623188406v278.57142857142856h-14.492753623188406Z" fill="#f58518" opacity="0.8"/></g></g><path class="foreground" aria-hidden="true" d="" display="none"/></g></g></g><path class="foreground" aria-hidden="true" d="" display="none"/></g><g transform="translate(405.7971014492754,64.28571428571429)"><path class="background" aria-hidden="true" d="M4,0L10.492753623188406,0C12.700413721164406,0,14.492753623188406,1.792339902024,14.492753623188406,4L14.492753623188406,231.71428571428572C14.492753623188406,233.92194581226173,12.700413721164406,235.71428571428572,10.492753623188406,235.71428571428572L4,235.71428571428572C1.792339902024,235.71428571428572,0,233.92194581226173,0,231.71428571428572L0,4C0,1.792339902024,1.792339902024,0,4,0Z"/><g clip-path="url(#clip38)"><g class="mark-group role-scope" role="graphics-object" aria-roledescription="group mark container"><g transform="translate(0,-64.28571428571429)"><path class="background" aria-hidden="true" d="M0,0h14.492753623188406v0h-14.492753623188406Z"/><g><g class="mark-rect role-mark marks" role="graphics-object" aria-roledescription="rect mark container"><path aria-label="Residue Label: 8; Percentage within Split: 11; split: val; Split: val; Label: 8; Count: 15597; Percentage: 11.0" role="graphics-symbol" aria-roledescription="bar" d="M0,64.28571428571429h14.492753623188406v235.71428571428572h-14.492753623188406Z" fill="#f58518" opacity="0.8"/></g></g><path class="foreground" aria-hidden="true" d="" display="none"/></g></g></g><path class="foreground" aria-hidden="true" d="" display="none"/></g><g transform="translate(460.1449275362319,49.28571428571431)"><path class="background" aria-hidden="true" d="M4,0L10.492753623188406,0C12.700413721164406,0,14.492753623188406,1.792339902024,14.492753623188406,4L14.492753623188406,246.7142857142857C14.492753623188406,248.9219458122617,12.700413721164406,250.7142857142857,10.492753623188406,250.7142857142857L4,250.7142857142857C1.792339902024,250.7142857142857,0,248.9219458122617,0,246.7142857142857L0,4C0,1.792339902024,1.792339902024,0,4,0Z"/><g clip-path="url(#clip39)"><g class="mark-group role-scope" role="graphics-object" aria-roledescription="group mark container"><g transform="translate(0,-49.28571428571431)"><path class="background" aria-hidden="true" d="M0,0h14.492753623188406v0h-14.492753623188406Z"/><g><g class="mark-rect role-mark marks" role="graphics-object" aria-roledescription="rect mark container"><path aria-label="Residue Label: 9; Percentage within Split: 11.7; split: val; Split: val; Label: 9; Count: 16572; Percentage: 11.7" role="graphics-symbol" aria-roledescription="bar" d="M0,49.28571428571431h14.492753623188406v250.7142857142857h-14.492753623188406Z" fill="#f58518" opacity="0.8"/></g></g><path class="foreground" aria-hidden="true" d="" display="none"/></g></g></g><path class="foreground" aria-hidden="true" d="" display="none"/></g></g><g class="mark-group role-legend" role="graphics-symbol" aria-roledescription="legend" aria-label="Symbol legend titled 'Split' for fill color with 3 values: train, val, test"><g transform="translate(518,0)"><path class="background" aria-hidden="true" d="M0,0h36v53h-36Z" pointer-events="none"/><g><g class="mark-group role-legend-entry"><g transform="translate(0,16)"><path class="background" aria-hidden="true" d="M0,0h0v0h0Z" pointer-events="none"/><g><g class="mark-group role-scope" role="graphics-object" aria-roledescription="group mark container"><g transform="translate(0,0)"><path class="background" aria-hidden="true" d="M0,0h35.453125v11h-35.453125Z" pointer-events="none" opacity="1"/><g><g class="mark-symbol role-legend-symbol" pointer-events="none"><path transform="translate(6,6)" d="M-5,-5h10v10h-10Z" fill="#4c78a8" stroke-width="1.5" opacity="0.8"/></g><g class="mark-text role-legend-label" pointer-events="none"><text text-anchor="start" transform="translate(16,9)" font-family="sans-serif" font-size="10px" fill="#000" opacity="1">train</text></g></g><path class="foreground" aria-hidden="true" d="" pointer-events="none" display="none"/></g><g transform="translate(0,13)"><path class="background" aria-hidden="true" d="M0,0h35.453125v11h-35.453125Z" pointer-events="none" opacity="1"/><g><g class="mark-symbol role-legend-symbol" pointer-events="none"><path transform="translate(6,6)" d="M-5,-5h10v10h-10Z" fill="#f58518" stroke-width="1.5" opacity="0.8"/></g><g class="mark-text role-legend-label" pointer-events="none"><text text-anchor="start" transform="translate(16,9)" font-family="sans-serif" font-size="10px" fill="#000" opacity="1">val</text></g></g><path class="foreground" aria-hidden="true" d="" pointer-events="none" display="none"/></g><g transform="translate(0,26)"><path class="background" aria-hidden="true" d="M0,0h35.453125v11h-35.453125Z" pointer-events="none" opacity="1"/><g><g class="mark-symbol role-legend-symbol" pointer-events="none"><path transform="translate(6,6)" d="M-5,-5h10v10h-10Z" fill="#e45756" stroke-width="1.5" opacity="0.8"/></g><g class="mark-text role-legend-label" pointer-events="none"><text text-anchor="start" transform="translate(16,9)" font-family="sans-serif" font-size="10px" fill="#000" opacity="1">test</text></g></g><path class="foreground" aria-hidden="true" d="" pointer-events="none" display="none"/></g></g></g><path class="foreground" aria-hidden="true" d="" pointer-events="none" display="none"/></g></g><g class="mark-text role-legend-title" pointer-events="none"><text text-anchor="start" transform="translate(0,9)" font-family="sans-serif" font-size="11px" font-weight="bold" fill="#000" opacity="1">Split</text></g></g><path class="foreground" aria-hidden="true" d="" pointer-events="none" display="none"/></g></g><g class="mark-group role-title"><g transform="translate(250,-22)"><path class="background" aria-hidden="true" d="M0,0h0v0h0Z" pointer-events="none"/><g><g class="mark-text role-title-text" role="graphics-symbol" aria-roledescription="title" aria-label="Title text 'Per-Residue Label Distribution by Split'" pointer-events="none"><text text-anchor="middle" transform="translate(0,10)" font-family="sans-serif" font-size="13px" font-weight="bold" fill="#000" opacity="1">Per-Residue Label Distribution by Split</text></g></g><path class="foreground" aria-hidden="true" d="" pointer-events="none" display="none"/></g></g></g><path class="foreground" aria-hidden="true" d="" display="none"/></g></g></g><defs><clipPath id="clip13"><path d="M4,0L10.492753623188406,0C12.700413721164406,0,14.492753623188406,1.792339902024,14.492753623188406,4L14.492753623188406,266C14.492753623188406,268.207660097976,12.700413721164406,270,10.492753623188406,270L4,270C1.792339902024,270,0,268.207660097976,0,266L0,4C0,1.792339902024,1.792339902024,0,4,0Z"/></clipPath><clipPath id="clip14"><path d="M4,0L10.492753623188406,0C12.700413721164406,0,14.492753623188406,1.792339902024,14.492753623188406,4L14.492753623188406,143.85714285714286C14.492753623188406,146.06480295511886,12.700413721164406,147.85714285714286,10.492753623188406,147.85714285714286L4,147.85714285714286C1.792339902024,147.85714285714286,0,146.06480295511886,0,143.85714285714286L0,4C0,1.792339902024,1.792339902024,0,4,0Z"/></clipPath><clipPath id="clip15"><path d="M4,0L10.492753623188406,0C12.700413721164406,0,14.492753623188406,1.792339902024,14.492753623188406,4L14.492753623188406,184.5714285714286C14.492753623188406,186.77908866940462,12.700413721164406,188.5714285714286,10.492753623188406,188.5714285714286L4,188.5714285714286C1.792339902024,188.5714285714286,0,186.77908866940462,0,184.5714285714286L0,4C0,1.792339902024,1.792339902024,0,4,0Z"/></clipPath><clipPath id="clip16"><path d="M4,0L10.492753623188406,0C12.700413721164406,0,14.492753623188406,1.792339902024,14.492753623188406,4L14.492753623188406,221C14.492753623188406,223.207660097976,12.700413721164406,225,10.492753623188406,225L4,225C1.792339902024,225,0,223.207660097976,0,221L0,4C0,1.792339902024,1.792339902024,0,4,0Z"/></clipPath><clipPath id="clip17"><path d="M4,0L10.492753623188406,0C12.700413721164406,0,14.492753623188406,1.792339902024,14.492753623188406,4L14.492753623188406,253.1428571428571C14.492753623188406,255.3505172408331,12.700413721164406,257.1428571428571,10.492753623188406,257.1428571428571L4,257.1428571428571C1.792339902024,257.1428571428571,0,255.3505172408331,0,253.1428571428571L0,4C0,1.792339902024,1.792339902024,0,4,0Z"/></clipPath><clipPath id="clip18"><path d="M4,0L10.492753623188406,0C12.700413721164406,0,14.492753623188406,1.792339902024,14.492753623188406,4L14.492753623188406,296C14.492753623188406,298.207660097976,12.700413721164406,300,10.492753623188406,300L4,300C1.792339902024,300,0,298.207660097976,0,296L0,4C0,1.792339902024,1.792339902024,0,4,0Z"/></clipPath><clipPath id="clip19"><path d="M4,0L10.492753623188406,0C12.700413721164406,0,14.492753623188406,1.792339902024,14.492753623188406,4L14.492753623188406,276.7142857142857C14.492753623188406,278.9219458122617,12.700413721164406,280.7142857142857,10.492753623188406,280.7142857142857L4,280.7142857142857C1.792339902024,280.7142857142857,0,278.9219458122617,0,276.7142857142857L0,4C0,1.792339902024,1.792339902024,0,4,0Z"/></clipPath><clipPath id="clip20"><path d="M4,0L10.492753623188406,0C12.700413721164406,0,14.492753623188406,1.792339902024,14.492753623188406,4L14.492753623188406,233.85714285714283C14.492753623188406,236.06480295511884,12.700413721164406,237.85714285714283,10.492753623188406,237.85714285714283L4,237.85714285714283C1.792339902024,237.85714285714283,0,236.06480295511884,0,233.85714285714283L0,4C0,1.792339902024,1.792339902024,0,4,0Z"/></clipPath><clipPath id="clip21"><path d="M4,0L10.492753623188406,0C12.700413721164406,0,14.492753623188406,1.792339902024,14.492753623188406,4L14.492753623188406,229.57142857142856C14.492753623188406,231.77908866940456,12.700413721164406,233.57142857142856,10.492753623188406,233.57142857142856L4,233.57142857142856C1.792339902024,233.57142857142856,0,231.77908866940456,0,229.57142857142856L0,4C0,1.792339902024,1.792339902024,0,4,0Z"/></clipPath><clipPath id="clip22"><path d="M4,0L10.492753623188406,0C12.700413721164406,0,14.492753623188406,1.792339902024,14.492753623188406,4L14.492753623188406,274.57142857142856C14.492753623188406,276.77908866940453,12.700413721164406,278.57142857142856,10.492753623188406,278.57142857142856L4,278.57142857142856C1.792339902024,278.57142857142856,0,276.77908866940453,0,274.57142857142856L0,4C0,1.792339902024,1.792339902024,0,4,0Z"/></clipPath><clipPath id="clip23"><path d="M4,0L10.492753623188406,0C12.700413721164406,0,14.492753623188406,1.792339902024,14.492753623188406,4L14.492753623188406,139.57142857142858C14.492753623188406,141.7790886694046,12.700413721164406,143.57142857142858,10.492753623188406,143.57142857142858L4,143.57142857142858C1.792339902024,143.57142857142858,0,141.7790886694046,0,139.57142857142858L0,4C0,1.792339902024,1.792339902024,0,4,0Z"/></clipPath><clipPath id="clip24"><path d="M4,0L10.492753623188406,0C12.700413721164406,0,14.492753623188406,1.792339902024,14.492753623188406,4L14.492753623188406,178.1428571428571C14.492753623188406,180.3505172408331,12.700413721164406,182.1428571428571,10.492753623188406,182.1428571428571L4,182.1428571428571C1.792339902024,182.1428571428571,0,180.3505172408331,0,178.1428571428571L0,4C0,1.792339902024,1.792339902024,0,4,0Z"/></clipPath><clipPath id="clip25"><path d="M4,0L10.492753623188406,0C12.700413721164406,0,14.492753623188406,1.792339902024,14.492753623188406,4L14.492753623188406,214.57142857142856C14.492753623188406,216.77908866940456,12.700413721164406,218.57142857142856,10.492753623188406,218.57142857142856L4,218.57142857142856C1.792339902024,218.57142857142856,0,216.77908866940456,0,214.57142857142856L0,4C0,1.792339902024,1.792339902024,0,4,0Z"/></clipPath><clipPath id="clip26"><path d="M4,0L10.492753623188406,0C12.700413721164406,0,14.492753623188406,1.792339902024,14.492753623188406,4L14.492753623188406,248.85714285714286C14.492753623188406,251.06480295511886,12.700413721164406,252.85714285714286,10.492753623188406,252.85714285714286L4,252.85714285714286C1.792339902024,252.85714285714286,0,251.06480295511886,0,248.85714285714286L0,4C0,1.792339902024,1.792339902024,0,4,0Z"/></clipPath><clipPath id="clip27"><path d="M4,0L10.492753623188406,0C12.700413721164406,0,14.492753623188406,1.792339902024,14.492753623188406,4L14.492753623188406,293.8571428571429C14.492753623188406,296.06480295511886,12.700413721164406,297.8571428571429,10.492753623188406,297.8571428571429L4,297.8571428571429C1.792339902024,297.8571428571429,0,296.06480295511886,0,293.8571428571429L0,4C0,1.792339902024,1.792339902024,0,4,0Z"/></clipPath><clipPath id="clip28"><path d="M4,0L10.492753623188406,0C12.700413721164406,0,14.492753623188406,1.792339902024,14.492753623188406,4L14.492753623188406,278.85714285714283C14.492753623188406,281.0648029551188,12.700413721164406,282.85714285714283,10.492753623188406,282.85714285714283L4,282.85714285714283C1.792339902024,282.85714285714283,0,281.0648029551188,0,278.85714285714283L0,4C0,1.792339902024,1.792339902024,0,4,0Z"/></clipPath><clipPath id="clip29"><path d="M4,0L10.492753623188406,0C12.700413721164406,0,14.492753623188406,1.792339902024,14.492753623188406,4L14.492753623188406,235.99999999999997C14.492753623188406,238.20766009797597,12.700413721164406,239.99999999999997,10.492753623188406,239.99999999999997L4,239.99999999999997C1.792339902024,239.99999999999997,0,238.20766009797597,0,235.99999999999997L0,4C0,1.792339902024,1.792339902024,0,4,0Z"/></clipPath><clipPath id="clip30"><path d="M4,0L10.492753623188406,0C12.700413721164406,0,14.492753623188406,1.792339902024,14.492753623188406,4L14.492753623188406,242.42857142857142C14.492753623188406,244.63623152654742,12.700413721164406,246.42857142857142,10.492753623188406,246.42857142857142L4,246.42857142857142C1.792339902024,246.42857142857142,0,244.63623152654742,0,242.42857142857142L0,4C0,1.792339902024,1.792339902024,0,4,0Z"/></clipPath><clipPath id="clip31"><path d="M4,0L10.492753623188406,0C12.700413721164406,0,14.492753623188406,1.792339902024,14.492753623188406,4L14.492753623188406,272.42857142857144C14.492753623188406,274.6362315265474,12.700413721164406,276.42857142857144,10.492753623188406,276.42857142857144L4,276.42857142857144C1.792339902024,276.42857142857144,0,274.6362315265474,0,272.42857142857144L0,4C0,1.792339902024,1.792339902024,0,4,0Z"/></clipPath><clipPath id="clip32"><path d="M4,0L10.492753623188406,0C12.700413721164406,0,14.492753623188406,1.792339902024,14.492753623188406,4L14.492753623188406,139.57142857142858C14.492753623188406,141.7790886694046,12.700413721164406,143.57142857142858,10.492753623188406,143.57142857142858L4,143.57142857142858C1.792339902024,143.57142857142858,0,141.7790886694046,0,139.57142857142858L0,4C0,1.792339902024,1.792339902024,0,4,0Z"/></clipPath><clipPath id="clip33"><path d="M4,0L10.492753623188406,0C12.700413721164406,0,14.492753623188406,1.792339902024,14.492753623188406,4L14.492753623188406,182.4285714285714C14.492753623188406,184.6362315265474,12.700413721164406,186.4285714285714,10.492753623188406,186.4285714285714L4,186.4285714285714C1.792339902024,186.4285714285714,0,184.6362315265474,0,182.4285714285714L0,4C0,1.792339902024,1.792339902024,0,4,0Z"/></clipPath><clipPath id="clip34"><path d="M4,0L10.492753623188406,0C12.700413721164406,0,14.492753623188406,1.792339902024,14.492753623188406,4L14.492753623188406,216.71428571428572C14.492753623188406,218.92194581226173,12.700413721164406,220.71428571428572,10.492753623188406,220.71428571428572L4,220.71428571428572C1.792339902024,220.71428571428572,0,218.92194581226173,0,216.71428571428572L0,4C0,1.792339902024,1.792339902024,0,4,0Z"/></clipPath><clipPath id="clip35"><path d="M4,0L10.492753623188406,0C12.700413721164406,0,14.492753623188406,1.792339902024,14.492753623188406,4L14.492753623188406,248.85714285714286C14.492753623188406,251.06480295511886,12.700413721164406,252.85714285714286,10.492753623188406,252.85714285714286L4,252.85714285714286C1.792339902024,252.85714285714286,0,251.06480295511886,0,248.85714285714286L0,4C0,1.792339902024,1.792339902024,0,4,0Z"/></clipPath><clipPath id="clip36"><path d="M4,0L10.492753623188406,0C12.700413721164406,0,14.492753623188406,1.792339902024,14.492753623188406,4L14.492753623188406,293.8571428571429C14.492753623188406,296.06480295511886,12.700413721164406,297.8571428571429,10.492753623188406,297.8571428571429L4,297.8571428571429C1.792339902024,297.8571428571429,0,296.06480295511886,0,293.8571428571429L0,4C0,1.792339902024,1.792339902024,0,4,0Z"/></clipPath><clipPath id="clip37"><path d="M4,0L10.492753623188406,0C12.700413721164406,0,14.492753623188406,1.792339902024,14.492753623188406,4L14.492753623188406,274.57142857142856C14.492753623188406,276.77908866940453,12.700413721164406,278.57142857142856,10.492753623188406,278.57142857142856L4,278.57142857142856C1.792339902024,278.57142857142856,0,276.77908866940453,0,274.57142857142856L0,4C0,1.792339902024,1.792339902024,0,4,0Z"/></clipPath><clipPath id="clip38"><path d="M4,0L10.492753623188406,0C12.700413721164406,0,14.492753623188406,1.792339902024,14.492753623188406,4L14.492753623188406,231.71428571428572C14.492753623188406,233.92194581226173,12.700413721164406,235.71428571428572,10.492753623188406,235.71428571428572L4,235.71428571428572C1.792339902024,235.71428571428572,0,233.92194581226173,0,231.71428571428572L0,4C0,1.792339902024,1.792339902024,0,4,0Z"/></clipPath><clipPath id="clip39"><path d="M4,0L10.492753623188406,0C12.700413721164406,0,14.492753623188406,1.792339902024,14.492753623188406,4L14.492753623188406,246.7142857142857C14.492753623188406,248.9219458122617,12.700413721164406,250.7142857142857,10.492753623188406,250.7142857142857L4,250.7142857142857C1.792339902024,250.7142857142857,0,248.9219458122617,0,246.7142857142857L0,4C0,1.792339902024,1.792339902024,0,4,0Z"/></clipPath></defs></svg>