<svg xmlns="http://www.w3.org/2000/svg" xmlns:xlink="http://www.w3.org/1999/xlink" version="1.1" class="marks" width="766" height="511" viewBox="0 0 766 511"><rect width="766" height="511" fill="white"/><g fill="none" stroke-miterlimit="10" transform="translate(85,56)"><g class="mark-group role-frame root" role="graphics-object" aria-roledescription="group mark container"><g transform="translate(0,0)"><path class="background" aria-hidden="true" d="M0.5,0.5h600v400h-600Z" stroke="#ddd"/><g><g class="mark-group role-axis" aria-hidden="true"><g transform="translate(0.5,0.5)"><path class="background" aria-hidden="true" d="M0,0h0v0h0Z" pointer-events="none"/><g><g class="mark-rule role-axis-grid" pointer-events="none"><line transform="translate(0,400)" x2="600" y2="0" stroke="#ddd" stroke-width="1" opacity="1"/><line transform="translate(0,343)" x2="600" y2="0" stroke="#ddd" stroke-width="1" opacity="1"/><line transform="translate(0,286)" x2="600" y2="0" stroke="#ddd" stroke-width="1" opacity="1"/><line transform="translate(0,229)" x2="600" y2="0" stroke="#ddd" stroke-width="1" opacity="1"/><line transform="translate(0,171)" x2="600" y2="0" stroke="#ddd" stroke-width="1" opacity="1"/><line transform="translate(0,114)" x2="600" y2="0" stroke="#ddd" stroke-width="1" opacity="1"/><line transform="translate(0,57)" x2="600" y2="0" stroke="#ddd" stroke-width="1" opacity="1"/><line transform="translate(0,0)" x2="600" y2="0" stroke="#ddd" stroke-width="1" opacity="1"/></g></g><path class="foreground" aria-hidden="true" d="" pointer-events="none" display="none"/></g></g><g class="mark-group role-axis" role="graphics-symbol" aria-roledescription="axis" aria-label="X-axis titled 'Sequence Length' for a linear scale with values from 0 to 2,200"><g transform="translate(0.5,400.5)"><path class="background" aria-hidden="true" d="M0,0h0v0h0Z" pointer-events="none"/><g><g class="mark-rule role-axis-tick" pointer-events="none"><line transform="translate(0,0)" x2="0" y2="5" stroke="#888" stroke-width="1" opacity="1"/><line transform="translate(27,0)" x2="0" y2="5" stroke="#888" stroke-width="1" opacity="1"/><line transform="translate(55,0)" x2="0" y2="5" stroke="#888" stroke-width="1" opacity="1"/><line transform="translate(82,0)" x2="0" y2="5" stroke="#888" stroke-width="1" opacity="1"/><line transform="translate(109,0)" x2="0" y2="5" stroke="#888" stroke-width="1" opacity="1"/><line transform="translate(136,0)" x2="0" y2="5" stroke="#888" stroke-width="1" opacity="1"/><line transform="translate(164,0)" x2="0" y2="5" stroke="#888" stroke-width="1" opacity="1"/><line transform="translate(191,0)" x2="0" y2="5" stroke="#888" stroke-width="1" opacity="1"/><line transform="translate(218,0)" x2="0" y2="5" stroke="#888" stroke-width="1" opacity="1"/><line transform="translate(245,0)" x2="0" y2="5" stroke="#888" stroke-width="1" opacity="1"/><line transform="translate(273,0)" x2="0" y2="5" stroke="#888" stroke-width="1" opacity="1"/><line transform="translate(300,0)" x2="0" y2="5" stroke="#888" stroke-width="1" opacity="1"/><line transform="translate(327,0)" x2="0" y2="5" stroke="#888" stroke-width="1" opacity="1"/><line transform="translate(355,0)" x2="0" y2="5" stroke="#888" stroke-width="1" opacity="1"/><line transform="translate(382,0)" x2="0" y2="5" stroke="#888" stroke-width="1" opacity="1"/><line transform="translate(409,0)" x2="0" y2="5" stroke="#888" stroke-width="1" opacity="1"/><line transform="translate(436,0)" x2="0" y2="5" stroke="#888" stroke-width="1" opacity="1"/><line transform="translate(464,0)" x2="0" y2="5" stroke="#888" stroke-width="1" opacity="1"/><line transform="translate(491,0)" x2="0" y2="5" stroke="#888" stroke-width="1" opacity="1"/><line transform="translate(518,0)" x2="0" y2="5" stroke="#888" stroke-width="1" opacity="1"/><line transform="translate(545,0)" x2="0" y2="5" stroke="#888" stroke-width="1" opacity="1"/><line transform="translate(573,0)" x2="0" y2="5" stroke="#888" stroke-width="1" opacity="1"/><line transform="translate(600,0)" x2="0" y2="5" stroke="#888" stroke-width="1" opacity="1"/></g><g class="mark-text role-axis-label" pointer-events="none"><text text-anchor="start" transform="translate(0,21)" font-family="sans-serif" font-size="18px" fill="#000" opacity="1">0</text><text text-anchor="middle" transform="translate(27.272727272727273,21)" font-family="sans-serif" font-size="18px" fill="#000" opacity="0">100</text><text text-anchor="middle" transform="translate(54.54545454545455,21)" font-family="sans-serif" font-size="18px" fill="#000" opacity="0">200</text><text text-anchor="middle" transform="translate(81.81818181818181,21)" font-family="sans-serif" font-size="18px" fill="#000" opacity="0">300</text><text text-anchor="middle" transform="translate(109.0909090909091,21)" font-family="sans-serif" font-size="18px" fill="#000" opacity="1">400</text><text text-anchor="middle" transform="translate(136.36363636363635,21)" font-family="sans-serif" font-size="18px" fill="#000" opacity="0">500</text><text text-anchor="middle" transform="translate(163.63636363636363,21)" font-family="sans-serif" font-size="18px" fill="#000" opacity="0">600</text><text text-anchor="middle" transform="translate(190.9090909090909,21)" font-family="sans-serif" font-size="18px" fill="#000" opacity="0">700</text><text text-anchor="middle" transform="translate(218.1818181818182,21)" font-family="sans-serif" font-size="18px" fill="#000" opacity="1">800</text><text text-anchor="middle" transform="translate(245.45454545454547,21)" font-family="sans-serif" font-size="18px" fill="#000" opacity="0">900</text><text text-anchor="middle" transform="translate(272.7272727272727,21)" font-family="sans-serif" font-size="18px" fill="#000" opacity="0">1,000</text><text text-anchor="middle" transform="translate(300,21)" font-family="sans-serif" font-size="18px" fill="#000" opacity="0">1,100</text><text text-anchor="middle" transform="translate(327.27272727272725,21)" font-family="sans-serif" font-size="18px" fill="#000" opacity="1">1,200</text><text text-anchor="middle" transform="translate(354.54545454545456,21)" font-family="sans-serif" font-size="18px" fill="#000" opacity="0">1,300</text><text text-anchor="middle" transform="translate(381.8181818181818,21)" font-family="sans-serif" font-size="18px" fill="#000" opacity="0">1,400</text><text text-anchor="middle" transform="translate(409.09090909090907,21)" font-family="sans-serif" font-size="18px" fill="#000" opacity="0">1,500</text><text text-anchor="middle" transform="translate(436.3636363636364,21)" font-family="sans-serif" font-size="18px" fill="#000" opacity="1">1,600</text><text text-anchor="middle" transform="translate(463.6363636363636,21)" font-family="sans-serif" font-size="18px" fill="#000" opacity="0">1,700</text><text text-anchor="middle" transform="translate(490.90909090909093,21)" font-family="sans-serif" font-size="18px" fill="#000" opacity="0">1,800</text><text text-anchor="middle" transform="translate(518.1818181818182,21)" font-family="sans-serif" font-size="18px" fill="#000" opacity="0">1,900</text><text text-anchor="middle" transform="translate(545.4545454545454,21)" font-family="sans-serif" font-size="18px" fill="#000" opacity="1">2,000</text><text text-anchor="middle" transform="translate(572.7272727272727,21)" font-family="sans-serif" font-size="18px" fill="#000" opacity="0">2,100</text><text text-anchor="end" transform="translate(600,21)" font-family="sans-serif" font-size="18px" fill="#000" opacity="0">2,200</text></g><g class="mark-rule role-axis-domain" pointer-events="none"><line transform="translate(0,0)" x2="600" y2="0" stroke="#888" stroke-width="1" opacity="1"/></g><g class="mark-text role-axis-title" pointer-events="none"><text text-anchor="middle" transform="translate(300,46)" font-family="sans-serif" font-size="22px" font-weight="bold" fill="#000" opacity="1">Sequence Length</text></g></g><path class="foreground" aria-hidden="true" d="" pointer-events="none" display="none"/></g></g><g class="mark-group role-axis" role="graphics-symbol" aria-roledescription="axis" aria-label="Y-axis titled 'Number of Sequences' for a linear scale with values from 0 to 3,500"><g transform="translate(0.5,0.5)"><path class="background" aria-hidden="true" d="M0,0h0v0h0Z" pointer-events="none"/><g><g class="mark-rule role-axis-tick" pointer-events="none"><line transform="translate(0,400)" x2="-5" y2="0" stroke="#888" stroke-width="1" opacity="1"/><line transform="translate(0,343)" x2="-5" y2="0" stroke="#888" stroke-width="1" opacity="1"/><line transform="translate(0,286)" x2="-5" y2="0" stroke="#888" stroke-width="1" opacity="1"/><line transform="translate(0,229)" x2="-5" y2="0" stroke="#888" stroke-width="1" opacity="1"/><line transform="translate(0,171)" x2="-5" y2="0" stroke="#888" stroke-width="1" opacity="1"/><line transform="translate(0,114)" x2="-5" y2="0" stroke="#888" stroke-width="1" opacity="1"/><line transform="translate(0,57)" x2="-5" y2="0" stroke="#888" stroke-width="1" opacity="1"/><line transform="translate(0,0)" x2="-5" y2="0" stroke="#888" stroke-width="1" opacity="1"/></g><g class="mark-text role-axis-label" pointer-events="none"><text text-anchor="end" transform="translate(-7,405)" font-family="sans-serif" font-size="18px" fill="#000" opacity="1">0</text><text text-anchor="end" transform="translate(-7,347.8571428571429)" font-family="sans-serif" font-size="18px" fill="#000" opacity="1">500</text><text text-anchor="end" transform="translate(-7,290.7142857142857)" font-family="sans-serif" font-size="18px" fill="#000" opacity="1">1,000</text><text text-anchor="end" transform="translate(-7,233.57142857142856)" font-family="sans-serif" font-size="18px" fill="#000" opacity="1">1,500</text><text text-anchor="end" transform="translate(-7,176.42857142857144)" font-family="sans-serif" font-size="18px" fill="#000" opacity="1">2,000</text><text text-anchor="end" transform="translate(-7,119.28571428571428)" font-family="sans-serif" font-size="18px" fill="#000" opacity="1">2,500</text><text text-anchor="end" transform="translate(-7,62.14285714285716)" font-family="sans-serif" font-size="18px" fill="#000" opacity="1">3,000</text><text text-anchor="end" transform="translate(-7,5)" font-family="sans-serif" font-size="18px" fill="#000" opacity="1">3,500</text></g><g class="mark-rule role-axis-domain" pointer-events="none"><line transform="translate(0,400)" x2="0" y2="-400" stroke="#888" stroke-width="1" opacity="1"/></g><g class="mark-text role-axis-title" pointer-events="none"><text text-anchor="middle" transform="translate(-56.0439453125,200) rotate(-90) translate(0,-5)" font-family="sans-serif" font-size="22px" font-weight="bold" fill="#000" opacity="1">Number of Sequences</text></g></g><path class="foreground" aria-hidden="true" d="" pointer-events="none" display="none"/></g></g><g class="mark-group role-scope layer_0_pathgroup" role="graphics-object" aria-roledescription="group mark container"><g transform="translate(0,0)"><path class="background" aria-hidden="true" d="M0,0h600v400h-600Z"/><g><g class="mark-area role-mark layer_0_marks" role="graphics-object" aria-roledescription="area mark container"><path aria-label="Sequence Length: 0 – 100; Number of Sequences: 944; Split: train; Length Range: 0 – 100; Count: 944" role="graphics-symbol" aria-roledescription="area mark" d="M13.636,292.114L27.273,292.114L27.273,43.657L54.545,43.657L54.545,135.086L81.818,135.086L81.818,222.971L109.091,222.971L109.091,311.429L136.364,311.429L136.364,361.257L163.636,361.257L163.636,382.514L190.909,382.514L190.909,389.143L218.182,389.143L218.182,395.543L245.455,395.543L245.455,397.486L272.727,397.486L272.727,397.829L300,397.829L300,399.086L327.273,399.086L327.273,399.429L354.545,399.429L354.545,399.771L381.818,399.771L381.818,399.771L409.091,399.771L409.091,399.886L450,399.886L450,399.886L490.909,399.886L490.909,399.886L545.455,399.886L545.455,399.886L586.364,399.886L586.364,400L545.455,400L545.455,400L490.909,400L490.909,400L450,400L450,400L409.091,400L409.091,400L381.818,400L381.818,400L354.545,400L354.545,400L327.273,400L327.273,400L300,400L300,400L272.727,400L272.727,400L245.455,400L245.455,400L218.182,400L218.182,400L190.909,400L190.909,400L163.636,400L163.636,400L136.364,400L136.364,400L109.091,400L109.091,400L81.818,400L81.818,400L54.545,400L54.545,400L27.273,400L27.273,400L13.636,400Z" fill="#4c78a8" opacity="0.4"/></g></g><path class="foreground" aria-hidden="true" d="" display="none"/></g><g transform="translate(0,0)"><path class="background" aria-hidden="true" d="M0,0h600v400h-600Z"/><g><g class="mark-area role-mark layer_0_marks" role="graphics-object" aria-roledescription="area mark container"><path aria-label="Sequence Length: 0 – 100; Number of Sequences: 58; Split: val; Length Range: 0 – 100; Count: 58" role="graphics-symbol" aria-roledescription="area mark" d="M13.636,393.371L27.273,393.371L27.273,380.229L54.545,380.229L54.545,383.314L81.818,383.314L81.818,388.686L109.091,388.686L109.091,394.857L136.364,394.857L136.364,398.171L163.636,398.171L163.636,399.086L190.909,399.086L190.909,399.314L218.182,399.314L218.182,399.657L245.455,399.657L245.455,399.886L259.091,399.886L259.091,400L245.455,400L245.455,400L218.182,400L218.182,400L190.909,400L190.909,400L163.636,400L163.636,400L136.364,400L136.364,400L109.091,400L109.091,400L81.818,400L81.818,400L54.545,400L54.545,400L27.273,400L27.273,400L13.636,400Z" fill="#f58518" opacity="0.4"/></g></g><path class="foreground" aria-hidden="true" d="" display="none"/></g><g transform="translate(0,0)"><path class="background" aria-hidden="true" d="M0,0h600v400h-600Z"/><g><g class="mark-area role-mark layer_0_marks" role="graphics-object" aria-roledescription="area mark container"><path aria-label="Sequence Length: 0 – 100; Number of Sequences: 49; Split: test; Length Range: 0 – 100; Count: 49" role="graphics-symbol" aria-roledescription="area mark" d="M13.636,394.4L27.273,394.4L27.273,380.686L54.545,380.686L54.545,384.8L81.818,384.8L81.818,389.714L109.091,389.714L109.091,394.629L136.364,394.629L136.364,398.514L163.636,398.514L163.636,399.086L190.909,399.086L190.909,399.314L218.182,399.314L218.182,399.886L245.455,399.886L245.455,399.771L286.364,399.771L286.364,399.886L313.636,399.886L313.636,400L286.364,400L286.364,400L245.455,400L245.455,400L218.182,400L218.182,400L190.909,400L190.909,400L163.636,400L163.636,400L136.364,400L136.364,400L109.091,400L109.091,400L81.818,400L81.818,400L54.545,400L54.545,400L27.273,400L27.273,400L13.636,400Z" fill="#e45756" opacity="0.4"/></g></g><path class="foreground" aria-hidden="true" d="" display="none"/></g></g><g class="mark-group role-scope layer_1_pathgroup" role="graphics-object" aria-roledescription="group mark container"><g transform="translate(0,0)"><path class="background" aria-hidden="true" d="M0,0h600v400h-600Z"/><g><g class="mark-line role-mark layer_1_marks" role="graphics-object" aria-roledescription="line mark container"><path aria-label="Sequence Length: 40; Density: 0.000676569911976; Split: train" role="graphics-symbol" aria-roledescription="line mark" d="M10.909,322.678L13.842,286.826L16.775,245.978L19.709,201.928L22.642,156.842L25.575,113.541L28.508,75.161L31.441,44.414L34.375,23.068L37.308,11.801L40.241,10.131L43.174,16.338L46.107,27.758L49.04,41.688L51.974,56.344L54.907,70.987L57.84,85.128L60.773,97.856L63.706,108.234L66.64,116.327L69.573,123.493L72.506,131.412L75.439,140.899L78.372,151.641L81.305,162.791L84.239,173.601L87.172,183.738L90.105,193.364L93.038,202.97L95.971,212.978L98.905,223.465L101.838,234.249L104.771,245.151L107.704,256.053L110.637,266.79L113.57,277.156L116.504,287.068L119.437,296.582L122.37,305.647L125.303,313.945L128.236,321.116L131.17,327.137L134.103,332.437L137.036,337.613L139.969,343.041L142.902,348.686L145.835,354.183L148.769,359.086L151.702,363.14L154.635,366.409L157.568,369.182L160.501,371.692L163.435,373.921L166.368,375.673L169.301,376.883L172.234,377.814L175.167,378.908L178.1,380.445L181.034,382.317L183.967,384.14L186.9,385.529L189.833,386.316L192.766,386.593L195.7,386.624L198.633,386.704L201.566,387.036L204.499,387.672L207.432,388.544L210.365,389.545L213.299,390.593L216.232,391.655L219.165,392.719L222.098,393.759L225.031,394.711L227.965,395.48L230.898,395.98L233.831,396.178L236.764,396.13L239.697,395.967L242.63,395.857L245.564,395.927L248.497,396.205L251.43,396.613L254.363,397.026L257.296,397.349L260.23,397.545L263.163,397.617L266.096,397.584L269.029,397.475L271.962,397.335L274.895,397.211L277.829,397.137L280.762,397.135L283.695,397.218L286.628,397.396L289.561,397.665L292.495,397.985L295.428,398.284L298.361,398.497L301.294,398.618L304.227,398.697L307.16,398.795L310.094,398.938L313.027,399.109L315.96,399.273L318.893,399.404L321.826,399.481L324.76,399.483L327.693,399.396L330.626,399.25L333.559,399.118L336.492,399.077L339.425,399.159L342.359,399.327L345.292,399.509L348.225,399.646L351.158,399.72L354.091,399.754L357.025,399.778L359.958,399.809L362.891,399.836L365.824,399.842L368.757,399.826L371.69,399.803L374.624,399.795L377.557,399.813L380.49,399.842L383.423,399.856L386.356,399.839L389.29,399.792L392.223,399.736L395.156,399.691L398.089,399.671L401.022,399.674L403.955,399.693L406.889,399.714L409.822,399.731L412.755,399.748L415.688,399.778L418.621,399.826L421.555,399.882L424.488,399.933L427.421,399.968L430.354,399.988L433.287,399.996L436.22,399.999L439.154,400L442.087,400L445.02,400L447.953,400L450.886,399.999L453.82,399.996L456.753,399.988L459.686,399.969L462.619,399.935L465.552,399.887L468.485,399.837L471.419,399.806L474.352,399.809L477.285,399.845L480.218,399.896L483.151,399.942L486.085,399.972L489.018,399.984L491.951,399.981L494.884,399.96L497.817,399.922L500.75,399.872L503.684,399.826L506.617,399.803L509.55,399.817L512.483,399.859L515.416,399.91L518.35,399.953L521.283,399.979L524.216,399.993L527.149,399.998L530.082,399.999L533.015,400L535.949,400L538.882,400L541.815,400L544.748,400L547.681,400L550.615,400L553.548,400L556.481,400L559.414,400L562.347,400L565.28,400L568.214,400L571.147,400L574.08,400L577.013,399.998L579.946,399.994L582.88,399.982L585.813,399.957L588.746,399.916L591.679,399.865L594.612,399.821L597.545,399.803" stroke="#4c78a8" stroke-width="2"/></g></g><path class="foreground" aria-hidden="true" d="" display="none"/></g><g transform="translate(0,0)"><path class="background" aria-hidden="true" d="M0,0h600v400h-600Z"/><g><g class="mark-line role-mark layer_1_marks" role="graphics-object" aria-roledescription="line mark container"><path aria-label="Sequence Length: 40; Density: 0.000949194466356; Split: val" role="graphics-symbol" aria-roledescription="line mark" d="M10.909,291.521L13.842,262.241L16.775,230.91L19.709,198.881L22.642,167.605L25.575,138.481L28.508,112.708L31.441,91.168L34.375,74.349L37.308,62.323L40.241,54.774L43.174,51.106L46.107,50.588L49.04,52.529L51.974,56.425L54.907,62.023L57.84,69.294L60.773,78.304L63.706,89.047L66.64,101.302L69.573,114.579L72.506,128.178L75.439,141.345L78.372,153.449L81.305,164.131L84.239,173.364L87.172,181.42L90.105,188.782L93.038,196.014L95.971,203.659L98.905,212.147L101.838,221.749L104.771,232.54L107.704,244.39L110.637,256.983L113.57,269.871L116.504,282.551L119.437,294.568L122.37,305.589L125.303,315.439L128.236,324.095L131.17,331.64L134.103,338.2L137.036,343.909L139.969,348.888L142.902,353.251L145.835,357.106L148.769,360.56L151.702,363.71L154.635,366.628L157.568,369.359L160.501,371.922L163.435,374.32L166.368,376.546L169.301,378.581L172.234,380.398L175.167,381.958L178.1,383.223L181.034,384.168L183.967,384.798L186.9,385.157L189.833,385.327L192.766,385.419L195.7,385.549L198.633,385.82L201.566,386.304L204.499,387.029L207.432,387.977L210.365,389.089L213.299,390.272L216.232,391.425L219.165,392.456L222.098,393.3L225.031,393.928L227.965,394.354L230.898,394.622L233.831,394.794L236.764,394.934L239.697,395.093L242.63,395.299L245.564,395.562L248.497,395.876L251.43,396.233L254.363,396.622L257.296,397.038L260.23,397.472L263.163,397.912L266.096,398.342L269.029,398.74L271.962,399.089L274.895,399.374L277.829,399.594L280.762,399.751L283.695,399.856L286.628,399.922L289.561,399.96L292.495,399.981L295.428,399.991L298.361,399.996L301.294,399.999L304.227,399.999L307.16,400L310.094,400L313.027,400L315.96,400L318.893,400L321.826,400L324.76,400L327.693,400L330.626,400L333.559,400L336.492,400L339.425,400L342.359,400L345.292,400L348.225,400L351.158,400L354.091,400L357.025,400L359.958,400L362.891,400L365.824,400L368.757,400L371.69,400L374.624,400L377.557,400L380.49,400L383.423,400L386.356,400L389.29,400L392.223,400L395.156,400L398.089,400L401.022,400L403.955,400L406.889,400L409.822,400L412.755,400L415.688,400L418.621,400L421.555,400L424.488,400L427.421,400L430.354,400L433.287,400L436.22,400L439.154,400L442.087,400L445.02,400L447.953,400L450.886,400L453.82,400L456.753,400L459.686,400L462.619,400L465.552,400L468.485,400L471.419,400L474.352,400L477.285,400L480.218,400L483.151,400L486.085,400L489.018,400L491.951,400L494.884,400L497.817,400L500.75,400L503.684,400L506.617,400L509.55,400L512.483,400L515.416,400L518.35,400L521.283,400L524.216,400L527.149,400L530.082,400L533.015,400L535.949,400L538.882,400L541.815,400L544.748,400L547.681,400L550.615,400L553.548,400L556.481,400L559.414,400L562.347,400L565.28,400L568.214,400L571.147,400L574.08,400L577.013,400L579.946,400L582.88,400L585.813,400L588.746,400L591.679,400L594.612,400L597.545,400" stroke="#f58518" stroke-width="2"/></g></g><path class="foreground" aria-hidden="true" d="" display="none"/></g><g transform="translate(0,0)"><path class="background" aria-hidden="true" d="M0,0h600v400h-600Z"/><g><g class="mark-line role-mark layer_1_marks" role="graphics-object" aria-roledescription="line mark container"><path aria-label="Sequence Length: 40; Density: 0.000868576323633; Split: test" role="graphics-symbol" aria-roledescription="line mark" d="M10.909,300.734L13.842,271.937L16.775,240.166L19.709,206.644L22.642,172.871L25.575,140.494L28.508,111.138L31.441,86.229L34.375,66.816L37.308,53.419L40.241,45.963L43.174,43.823L46.107,45.982L49.04,51.273L51.974,58.634L54.907,67.291L57.84,76.82L60.773,87.082L63.706,98.07L66.64,109.739L69.573,121.879L72.506,134.091L75.439,145.851L78.372,156.641L81.305,166.111L84.239,174.185L87.172,181.106L90.105,187.375L93.038,193.624L95.971,200.441L98.905,208.233L101.838,217.15L104.771,227.091L107.704,237.789L110.637,248.92L113.57,260.193L116.504,271.41L119.437,282.454L122.37,293.264L125.303,303.778L128.236,313.91L131.17,323.532L134.103,332.498L137.036,340.67L139.969,347.957L142.902,354.326L145.835,359.816L148.769,364.518L151.702,368.552L154.635,372.036L157.568,375.066L160.501,377.691L163.435,379.917L166.368,381.712L169.301,383.028L172.234,383.83L175.167,384.129L178.1,384L181.034,383.584L183.967,383.078L186.9,382.693L189.833,382.611L192.766,382.949L195.7,383.735L198.633,384.911L201.566,386.357L204.499,387.925L207.432,389.48L210.365,390.918L213.299,392.175L216.232,393.224L219.165,394.061L222.098,394.694L225.031,395.137L227.965,395.407L230.898,395.524L233.831,395.519L236.764,395.429L239.697,395.304L242.63,395.199L245.564,395.171L248.497,395.268L251.43,395.518L254.363,395.92L257.296,396.447L260.23,397.05L263.163,397.667L266.096,398.243L269.029,398.732L271.962,399.108L274.895,399.362L277.829,399.493L280.762,399.512L283.695,399.43L286.628,399.264L289.561,399.033L292.495,398.766L295.428,398.497L298.361,398.265L301.294,398.106L304.227,398.046L307.16,398.097L310.094,398.248L313.027,398.478L315.96,398.751L318.893,399.032L321.826,399.291L324.76,399.51L327.693,399.68L330.626,399.803L333.559,399.885L336.492,399.937L339.425,399.967L342.359,399.984L345.292,399.993L348.225,399.997L351.158,399.999L354.091,399.999L357.025,400L359.958,400L362.891,400L365.824,400L368.757,400L371.69,400L374.624,400L377.557,400L380.49,400L383.423,400L386.356,400L389.29,400L392.223,400L395.156,400L398.089,400L401.022,400L403.955,400L406.889,400L409.822,400L412.755,400L415.688,400L418.621,400L421.555,400L424.488,400L427.421,400L430.354,400L433.287,400L436.22,400L439.154,400L442.087,400L445.02,400L447.953,400L450.886,400L453.82,400L456.753,400L459.686,400L462.619,400L465.552,400L468.485,400L471.419,400L474.352,400L477.285,400L480.218,400L483.151,400L486.085,400L489.018,400L491.951,400L494.884,400L497.817,400L500.75,400L503.684,400L506.617,400L509.55,400L512.483,400L515.416,400L518.35,400L521.283,400L524.216,400L527.149,400L530.082,400L533.015,400L535.949,400L538.882,400L541.815,400L544.748,400L547.681,400L550.615,400L553.548,400L556.481,400L559.414,400L562.347,400L565.28,400L568.214,400L571.147,400L574.08,400L577.013,400L579.946,400L582.88,400L585.813,400L588.746,400L591.679,400L594.612,400L597.545,400" stroke="#e45756" stroke-width="2"/></g></g><path class="foreground" aria-hidden="true" d="" display="none"/></g></g><g class="mark-group role-legend" role="graphics-symbol" aria-roledescription="legend" aria-label="Symbol legend titled 'Split' for fill color and stroke color with 3 values: train, val, test"><g transform="translate(618,0)"><path class="background" aria-hidden="true" d="M0,0h58v85h-58Z" pointer-events="none"/><g><g class="mark-group role-legend-entry"><g transform="translate(0,27)"><path class="background" aria-hidden="true" d="M0,0h0v0h0Z" pointer-events="none"/><g><g class="mark-group role-scope" role="graphics-object" aria-roledescription="group mark container"><g transform="translate(0,0)"><path class="background" aria-hidden="true" d="M0,0h57.015625v18h-57.015625Z" pointer-events="none" opacity="1"/><g><g class="mark-symbol role-legend-symbol" pointer-events="none"><path transform="translate(9,9)" d="M5,0A5,5,0,1,1,-5,0A5,5,0,1,1,5,0" fill="#4c78a8" stroke="#4c78a8" stroke-width="1.5" opacity="0.4"/></g><g class="mark-text role-legend-label" pointer-events="none"><text text-anchor="start" transform="translate(22,14)" font-family="sans-serif" font-size="18px" fill="#000" opacity="1">train</text></g></g><path class="foreground" aria-hidden="true" d="" pointer-events="none" display="none"/></g><g transform="translate(0,20)"><path class="background" aria-hidden="true" d="M0,0h57.015625v18h-57.015625Z" pointer-events="none" opacity="1"/><g><g class="mark-symbol role-legend-symbol" pointer-events="none"><path transform="translate(9,9)" d="M5,0A5,5,0,1,1,-5,0A5,5,0,1,1,5,0" fill="#f58518" stroke="#f58518" stroke-width="1.5" opacity="0.4"/></g><g class="mark-text role-legend-label" pointer-events="none"><text text-anchor="start" transform="translate(22,14)" font-family="sans-serif" font-size="18px" fill="#000" opacity="1">val</text></g></g><path class="foreground" aria-hidden="true" d="" pointer-events="none" display="none"/></g><g transform="translate(0,40)"><path class="background" aria-hidden="true" d="M0,0h57.015625v18h-57.015625Z" pointer-events="none" opacity="1"/><g><g class="mark-symbol role-legend-symbol" pointer-events="none"><path transform="translate(9,9)" d="M5,0A5,5,0,1,1,-5,0A5,5,0,1,1,5,0" fill="#e45756" stroke="#e45756" stroke-width="1.5" opacity="0.4"/></g><g class="mark-text role-legend-label" pointer-events="none"><text text-anchor="start" transform="translate(22,14)" font-family="sans-serif" font-size="18px" fill="#000" opacity="1">test</text></g></g><path class="foreground" aria-hidden="true" d="" pointer-events="none" display="none"/></g></g></g><path class="foreground" aria-hidden="true" d="" pointer-events="none" display="none"/></g></g><g class="mark-text role-legend-title" pointer-events="none"><text text-anchor="start" transform="translate(0,17)" font-family="sans-serif" font-size="22px" font-weight="bold" fill="#000" opacity="1">Split</text></g></g><path class="foreground" aria-hidden="true" d="" pointer-events="none" display="none"/></g></g><g class="mark-group role-title"><g transform="translate(300,-51)"><path class="background" aria-hidden="true" d="M0,0h0v0h0Z" pointer-events="none"/><g><g class="mark-text role-title-text" role="graphics-symbol" aria-roledescription="title" aria-label="Title text 'Sequence Length Distribution'" pointer-events="none"><text text-anchor="middle" transform="translate(0,19)" font-family="Liberation Sans" font-size="24px" font-weight="bold" fill="#000" opacity="1">Sequence Length Distribution</text></g><g class="mark-text role-title-subtitle" role="graphics-symbol" aria-roledescription="subtitle" aria-label="Subtitle text 'test: μ=257.91, σ=151.59 | train: μ=259.85, σ=162.90 | val: μ=254.87, σ=149.03'" pointer-events="none"><text text-anchor="middle" transform="translate(0,36)" font-family="sans-serif" font-size="12px" fill="#000" opacity="1">test: μ=257.91, σ=151.59 | train: μ=259.85, σ=162.90 | val: μ=254.87, σ=149.03</text></g></g><path class="foreground" aria-hidden="true" d="" pointer-events="none" display="none"/></g></g></g><path class="foreground" aria-hidden="true" d="" display="none"/></g></g></g></svg>