<svg xmlns="http://www.w3.org/2000/svg" xmlns:xlink="http://www.w3.org/1999/xlink" version="1.1" class="marks" width="458" height="375" viewBox="0 0 458 375"><rect width="458" height="375" fill="white"/><g fill="none" stroke-miterlimit="10" transform="translate(53,27)"><g class="mark-group role-frame root" role="graphics-object" aria-roledescription="group mark container"><g transform="translate(0,0)"><path class="background" aria-hidden="true" d="M0.5,0.5h400v300h-400Z" stroke="#ddd"/><g><g class="mark-group role-axis" aria-hidden="true"><g transform="translate(0.5,0.5)"><path class="background" aria-hidden="true" d="M0,0h0v0h0Z" pointer-events="none"/><g><g class="mark-rule role-axis-grid" pointer-events="none"><line transform="translate(0,300)" x2="400" y2="0" stroke="#ddd" stroke-width="1" opacity="1"/><line transform="translate(0,263)" x2="400" y2="0" stroke="#ddd" stroke-width="1" opacity="1"/><line transform="translate(0,225)" x2="400" y2="0" stroke="#ddd" stroke-width="1" opacity="1"/><line transform="translate(0,188)" x2="400" y2="0" stroke="#ddd" stroke-width="1" opacity="1"/><line transform="translate(0,150)" x2="400" y2="0" stroke="#ddd" stroke-width="1" opacity="1"/><line transform="translate(0,113)" x2="400" y2="0" stroke="#ddd" stroke-width="1" opacity="1"/><line transform="translate(0,75)" x2="400" y2="0" stroke="#ddd" stroke-width="1" opacity="1"/><line transform="translate(0,38)" x2="400" y2="0" stroke="#ddd" stroke-width="1" opacity="1"/><line transform="translate(0,0)" x2="400" y2="0" stroke="#ddd" stroke-width="1" opacity="1"/></g></g><path class="foreground" aria-hidden="true" d="" pointer-events="none" display="none"/></g></g><g class="mark-group role-axis" role="graphics-symbol" aria-roledescription="axis" aria-label="X-axis titled 'Split' for a discrete scale with 3 values: train, val, test"><g transform="translate(0.5,300.5)"><path class="background" aria-hidden="true" d="M0,0h0v0h0Z" pointer-events="none"/><g><g class="mark-rule role-axis-tick" pointer-events="none"><line transform="translate(66,0)" x2="0" y2="5" stroke="#888" stroke-width="1" opacity="1"/><line transform="translate(200,0)" x2="0" y2="5" stroke="#888" stroke-width="1" opacity="1"/><line transform="translate(333,0)" x2="0" y2="5" stroke="#888" stroke-width="1" opacity="1"/></g><g class="mark-text role-axis-label" pointer-events="none"><text text-anchor="end" transform="translate(66.16666666666666,7) rotate(315) translate(0,8)" font-family="sans-serif" font-size="10px" fill="#000" opacity="1">train</text><text text-anchor="end" transform="translate(199.5,7) rotate(315) translate(0,8)" font-family="sans-serif" font-size="10px" fill="#000" opacity="1">val</text><text text-anchor="end" transform="translate(332.83333333333337,7) rotate(315) translate(0,8)" font-family="sans-serif" font-size="10px" fill="#000" opacity="1">test</text></g><g class="mark-rule role-axis-domain" pointer-events="none"><line transform="translate(0,0)" x2="400" y2="0" stroke="#888" stroke-width="1" opacity="1"/></g><g class="mark-text role-axis-title" pointer-events="none"><text text-anchor="middle" transform="translate(200,40.82650441463504)" font-family="sans-serif" font-size="11px" font-weight="bold" fill="#000" opacity="1">Split</text></g></g><path class="foreground" aria-hidden="true" d="" pointer-events="none" display="none"/></g></g><g class="mark-group role-axis" role="graphics-symbol" aria-roledescription="axis" aria-label="Y-axis titled 'Number of Sequences' for a linear scale with values from 0 to 8,000"><g transform="translate(0.5,0.5)"><path class="background" aria-hidden="true" d="M0,0h0v0h0Z" pointer-events="none"/><g><g class="mark-rule role-axis-tick" pointer-events="none"><line transform="translate(0,300)" x2="-5" y2="0" stroke="#888" stroke-width="1" opacity="1"/><line transform="translate(0,263)" x2="-5" y2="0" stroke="#888" stroke-width="1" opacity="1"/><line transform="translate(0,225)" x2="-5" y2="0" stroke="#888" stroke-width="1" opacity="1"/><line transform="translate(0,188)" x2="-5" y2="0" stroke="#888" stroke-width="1" opacity="1"/><line transform="translate(0,150)" x2="-5" y2="0" stroke="#888" stroke-width="1" opacity="1"/><line transform="translate(0,113)" x2="-5" y2="0" stroke="#888" stroke-width="1" opacity="1"/><line transform="translate(0,75)" x2="-5" y2="0" stroke="#888" stroke-width="1" opacity="1"/><line transform="translate(0,38)" x2="-5" y2="0" stroke="#888" stroke-width="1" opacity="1"/><line transform="translate(0,0)" x2="-5" y2="0" stroke="#888" stroke-width="1" opacity="1"/></g><g class="mark-text role-axis-label" pointer-events="none"><text text-anchor="end" transform="translate(-7,303)" font-family="sans-serif" font-size="10px" fill="#000" opacity="1">0</text><text text-anchor="end" transform="translate(-7,265.5)" font-family="sans-serif" font-size="10px" fill="#000" opacity="1">1,000</text><text text-anchor="end" transform="translate(-7,228)" font-family="sans-serif" font-size="10px" fill="#000" opacity="1">2,000</text><text text-anchor="end" transform="translate(-7,190.5)" font-family="sans-serif" font-size="10px" fill="#000" opacity="1">3,000</text><text text-anchor="end" transform="translate(-7,153)" font-family="sans-serif" font-size="10px" fill="#000" opacity="1">4,000</text><text text-anchor="end" transform="translate(-7,115.5)" font-family="sans-serif" font-size="10px" fill="#000" opacity="1">5,000</text><text text-anchor="end" transform="translate(-7,78)" font-family="sans-serif" font-size="10px" fill="#000" opacity="1">6,000</text><text text-anchor="end" transform="translate(-7,40.5)" font-family="sans-serif" font-size="10px" fill="#000" opacity="1">7,000</text><text text-anchor="end" transform="translate(-7,3)" font-family="sans-serif" font-size="10px" fill="#000" opacity="1">8,000</text></g><g class="mark-rule role-axis-domain" pointer-events="none"><line transform="translate(0,300)" x2="0" y2="-300" stroke="#888" stroke-width="1" opacity="1"/></g><g class="mark-text role-axis-title" pointer-events="none"><text text-anchor="middle" transform="translate(-36.0244140625,150) rotate(-90) translate(0,-2)" font-family="sans-serif" font-size="11px" font-weight="bold" fill="#000" opacity="1">Number of Sequences</text></g></g><path class="foreground" aria-hidden="true" d="" pointer-events="none" display="none"/></g></g><g class="mark-group role-scope" role="graphics-object" aria-roledescription="group mark container"><g transform="translate(6.666666666666657,0.11250000000000426)"><path class="background" aria-hidden="true" d="M4,0L116.00000000000001,0C118.20766009797602,0,120.00000000000001,1.792339902024,120.00000000000001,4L120.00000000000001,295.8875C120.00000000000001,298.09516009797596,118.20766009797602,299.8875,116.00000000000001,299.8875L4,299.8875C1.792339902024,299.8875,0,298.09516009797596,0,295.8875L0,4C0,1.792339902024,1.792339902024,0,4,0Z"/><g clip-path="url(#clip97)"><g class="mark-group role-scope" role="graphics-object" aria-roledescription="group mark container"><g transform="translate(0,-0.11250000000000426)"><path class="background" aria-hidden="true" d="M0,0h120.00000000000001v0h-120.00000000000001Z"/><g><g class="mark-rect role-mark marks" role="graphics-object" aria-roledescription="rect mark container"><path aria-label="Split: train; Number of Sequences: 7997; split: train; Count: 7997; Percentage: 80.0" role="graphics-symbol" aria-roledescription="bar" d="M0,0.11250000000000426h120.00000000000001v299.8875h-120.00000000000001Z" fill="#f58518" opacity="0.8"/></g></g><path class="foreground" aria-hidden="true" d="" display="none"/></g></g></g><path class="foreground" aria-hidden="true" d="" display="none"/></g><g transform="translate(140,262.575)"><path class="background" aria-hidden="true" d="M4,0L116.00000000000001,0C118.20766009797602,0,120.00000000000001,1.792339902024,120.00000000000001,4L120.00000000000001,33.42500000000001C120.00000000000001,35.632660097976014,118.20766009797602,37.42500000000001,116.00000000000001,37.42500000000001L4,37.42500000000001C1.792339902024,37.42500000000001,0,35.632660097976014,0,33.42500000000001L0,4C0,1.792339902024,1.792339902024,0,4,0Z"/><g clip-path="url(#clip98)"><g class="mark-group role-scope" role="graphics-object" aria-roledescription="group mark container"><g transform="translate(0,-262.575)"><path class="background" aria-hidden="true" d="M0,0h120.00000000000001v0h-120.00000000000001Z"/><g><g class="mark-rect role-mark marks" role="graphics-object" aria-roledescription="rect mark container"><path aria-label="Split: val; Number of Sequences: 998; split: val; Count: 998; Percentage: 10.0" role="graphics-symbol" aria-roledescription="bar" d="M0,262.575h120.00000000000001v37.42500000000001h-120.00000000000001Z" fill="#e45756" opacity="0.8"/></g></g><path class="foreground" aria-hidden="true" d="" display="none"/></g></g></g><path class="foreground" aria-hidden="true" d="" display="none"/></g><g transform="translate(273.33333333333337,262.5)"><path class="background" aria-hidden="true" d="M4,0L116.00000000000001,0C118.20766009797602,0,120.00000000000001,1.792339902024,120.00000000000001,4L120.00000000000001,33.5C120.00000000000001,35.707660097976,118.20766009797602,37.5,116.00000000000001,37.5L4,37.5C1.792339902024,37.5,0,35.707660097976,0,33.5L0,4C0,1.792339902024,1.792339902024,0,4,0Z"/><g clip-path="url(#clip99)"><g class="mark-group role-scope" role="graphics-object" aria-roledescription="group mark container"><g transform="translate(0,-262.5)"><path class="background" aria-hidden="true" d="M0,0h120.00000000000001v0h-120.00000000000001Z"/><g><g class="mark-rect role-mark marks" role="graphics-object" aria-roledescription="rect mark container"><path aria-label="Split: test; Number of Sequences: 1000; split: test; Count: 1000; Percentage: 10.0" role="graphics-symbol" aria-roledescription="bar" d="M0,262.5h120.00000000000001v37.5h-120.00000000000001Z" fill="#4c78a8" opacity="0.8"/></g></g><path class="foreground" aria-hidden="true" d="" display="none"/></g></g></g><path class="foreground" aria-hidden="true" d="" display="none"/></g></g><g class="mark-group role-title"><g transform="translate(200,-22)"><path class="background" aria-hidden="true" d="M0,0h0v0h0Z" pointer-events="none"/><g><g class="mark-text role-title-text" role="graphics-symbol" aria-roledescription="title" aria-label="Title text 'Split Distribution'" pointer-events="none"><text text-anchor="middle" transform="translate(0,10)" font-family="sans-serif" font-size="13px" font-weight="bold" fill="#000" opacity="1">Split Distribution</text></g></g><path class="foreground" aria-hidden="true" d="" pointer-events="none" display="none"/></g></g></g><path class="foreground" aria-hidden="true" d="" display="none"/></g></g></g><defs><clipPath id="clip97"><path d="M4,0L116.00000000000001,0C118.20766009797602,0,120.00000000000001,1.792339902024,120.00000000000001,4L120.00000000000001,295.8875C120.00000000000001,298.09516009797596,118.20766009797602,299.8875,116.00000000000001,299.8875L4,299.8875C1.792339902024,299.8875,0,298.09516009797596,0,295.8875L0,4C0,1.792339902024,1.792339902024,0,4,0Z"/></clipPath><clipPath id="clip98"><path d="M4,0L116.00000000000001,0C118.20766009797602,0,120.00000000000001,1.792339902024,120.00000000000001,4L120.00000000000001,33.42500000000001C120.00000000000001,35.632660097976014,118.20766009797602,37.42500000000001,116.00000000000001,37.42500000000001L4,37.42500000000001C1.792339902024,37.42500000000001,0,35.632660097976014,0,33.42500000000001L0,4C0,1.792339902024,1.792339902024,0,4,0Z"/></clipPath><clipPath id="clip99"><path d="M4,0L116.00000000000001,0C118.20766009797602,0,120.00000000000001,1.792339902024,120.00000000000001,4L120.00000000000001,33.5C120.00000000000001,35.707660097976,118.20766009797602,37.5,116.00000000000001,37.5L4,37.5C1.792339902024,37.5,0,35.707660097976,0,33.5L0,4C0,1.792339902024,1.792339902024,0,4,0Z"/></clipPath></defs></svg>