<svg xmlns="http://www.w3.org/2000/svg" xmlns:xlink="http://www.w3.org/1999/xlink" version="1.1" class="marks" width="690" height="586" viewBox="0 0 690 586"><rect width="690" height="586" fill="white"/><g fill="none" stroke-miterlimit="10" transform="translate(85,42)"><g class="mark-group role-frame root" role="graphics-object" aria-roledescription="group mark container"><g transform="translate(0,0)"><path class="background" aria-hidden="true" d="M0.5,0.5h600v400h-600Z" stroke="#ddd"/><g><g class="mark-group role-axis" aria-hidden="true"><g transform="translate(0.5,0.5)"><path class="background" aria-hidden="true" d="M0,0h0v0h0Z" pointer-events="none"/><g><g class="mark-rule role-axis-grid" pointer-events="none"><line transform="translate(0,400)" x2="600" y2="0" stroke="#ddd" stroke-width="1" opacity="1"/><line transform="translate(0,371)" x2="600" y2="0" stroke="#ddd" stroke-width="1" opacity="1"/><line transform="translate(0,343)" x2="600" y2="0" stroke="#ddd" stroke-width="1" opacity="1"/><line transform="translate(0,314)" x2="600" y2="0" stroke="#ddd" stroke-width="1" opacity="1"/><line transform="translate(0,286)" x2="600" y2="0" stroke="#ddd" stroke-width="1" opacity="1"/><line transform="translate(0,257)" x2="600" y2="0" stroke="#ddd" stroke-width="1" opacity="1"/><line transform="translate(0,229)" x2="600" y2="0" stroke="#ddd" stroke-width="1" opacity="1"/><line transform="translate(0,200)" x2="600" y2="0" stroke="#ddd" stroke-width="1" opacity="1"/><line transform="translate(0,171)" x2="600" y2="0" stroke="#ddd" stroke-width="1" opacity="1"/><line transform="translate(0,143)" x2="600" y2="0" stroke="#ddd" stroke-width="1" opacity="1"/><line transform="translate(0,114)" x2="600" y2="0" stroke="#ddd" stroke-width="1" opacity="1"/><line transform="translate(0,86)" x2="600" y2="0" stroke="#ddd" stroke-width="1" opacity="1"/><line transform="translate(0,57)" x2="600" y2="0" stroke="#ddd" stroke-width="1" opacity="1"/><line transform="translate(0,29)" x2="600" y2="0" stroke="#ddd" stroke-width="1" opacity="1"/><line transform="translate(0,0)" x2="600" y2="0" stroke="#ddd" stroke-width="1" opacity="1"/></g></g><path class="foreground" aria-hidden="true" d="" pointer-events="none" display="none"/></g></g><g class="mark-group role-axis" role="graphics-symbol" aria-roledescription="axis" aria-label="X-axis titled 'Split' for a discrete scale with 5 values: train, val, casp14, casp15, selected_protein"><g transform="translate(0.5,400.5)"><path class="background" aria-hidden="true" d="M0,0h0v0h0Z" pointer-events="none"/><g><g class="mark-rule role-axis-tick" pointer-events="none"><line transform="translate(60,0)" x2="0" y2="5" stroke="#888" stroke-width="1" opacity="1"/><line transform="translate(180,0)" x2="0" y2="5" stroke="#888" stroke-width="1" opacity="1"/><line transform="translate(300,0)" x2="0" y2="5" stroke="#888" stroke-width="1" opacity="1"/><line transform="translate(420,0)" x2="0" y2="5" stroke="#888" stroke-width="1" opacity="1"/><line transform="translate(540,0)" x2="0" y2="5" stroke="#888" stroke-width="1" opacity="1"/></g><g class="mark-text role-axis-label" pointer-events="none"><text text-anchor="end" transform="translate(59.5,7) rotate(315) translate(0,14)" font-family="sans-serif" font-size="18px" fill="#000" opacity="1">train</text><text text-anchor="end" transform="translate(179.5,7) rotate(315) translate(0,14)" font-family="sans-serif" font-size="18px" fill="#000" opacity="1">val</text><text text-anchor="end" transform="translate(299.5,7) rotate(315) translate(0,14)" font-family="sans-serif" font-size="18px" fill="#000" opacity="1">casp14</text><text text-anchor="end" transform="translate(419.5,7) rotate(315) translate(0,14)" font-family="sans-serif" font-size="18px" fill="#000" opacity="1">casp15</text><text text-anchor="end" transform="translate(539.5,7) rotate(315) translate(0,14)" font-family="sans-serif" font-size="18px" fill="#000" opacity="1">selected_protein</text></g><g class="mark-rule role-axis-domain" pointer-events="none"><line transform="translate(0,0)" x2="600" y2="0" stroke="#888" stroke-width="1" opacity="1"/></g><g class="mark-text role-axis-title" pointer-events="none"><text text-anchor="middle" transform="translate(300,134.13023683682036)" font-family="sans-serif" font-size="22px" font-weight="bold" fill="#000" opacity="1">Split</text></g></g><path class="foreground" aria-hidden="true" d="" pointer-events="none" display="none"/></g></g><g class="mark-group role-axis" role="graphics-symbol" aria-roledescription="axis" aria-label="Y-axis titled 'Number of Sequences' for a linear scale with values from 0 to 1,400"><g transform="translate(0.5,0.5)"><path class="background" aria-hidden="true" d="M0,0h0v0h0Z" pointer-events="none"/><g><g class="mark-rule role-axis-tick" pointer-events="none"><line transform="translate(0,400)" x2="-5" y2="0" stroke="#888" stroke-width="1" opacity="1"/><line transform="translate(0,371)" x2="-5" y2="0" stroke="#888" stroke-width="1" opacity="1"/><line transform="translate(0,343)" x2="-5" y2="0" stroke="#888" stroke-width="1" opacity="1"/><line transform="translate(0,314)" x2="-5" y2="0" stroke="#888" stroke-width="1" opacity="1"/><line transform="translate(0,286)" x2="-5" y2="0" stroke="#888" stroke-width="1" opacity="1"/><line transform="translate(0,257)" x2="-5" y2="0" stroke="#888" stroke-width="1" opacity="1"/><line transform="translate(0,229)" x2="-5" y2="0" stroke="#888" stroke-width="1" opacity="1"/><line transform="translate(0,200)" x2="-5" y2="0" stroke="#888" stroke-width="1" opacity="1"/><line transform="translate(0,171)" x2="-5" y2="0" stroke="#888" stroke-width="1" opacity="1"/><line transform="translate(0,143)" x2="-5" y2="0" stroke="#888" stroke-width="1" opacity="1"/><line transform="translate(0,114)" x2="-5" y2="0" stroke="#888" stroke-width="1" opacity="1"/><line transform="translate(0,86)" x2="-5" y2="0" stroke="#888" stroke-width="1" opacity="1"/><line transform="translate(0,57)" x2="-5" y2="0" stroke="#888" stroke-width="1" opacity="1"/><line transform="translate(0,29)" x2="-5" y2="0" stroke="#888" stroke-width="1" opacity="1"/><line transform="translate(0,0)" x2="-5" y2="0" stroke="#888" stroke-width="1" opacity="1"/></g><g class="mark-text role-axis-label" pointer-events="none"><text text-anchor="end" transform="translate(-7,405)" font-family="sans-serif" font-size="18px" fill="#000" opacity="1">0</text><text text-anchor="end" transform="translate(-7,376.42857142857144)" font-family="sans-serif" font-size="18px" fill="#000" opacity="1">100</text><text text-anchor="end" transform="translate(-7,347.8571428571429)" font-family="sans-serif" font-size="18px" fill="#000" opacity="1">200</text><text text-anchor="end" transform="translate(-7,319.2857142857143)" font-family="sans-serif" font-size="18px" fill="#000" opacity="1">300</text><text text-anchor="end" transform="translate(-7,290.7142857142857)" font-family="sans-serif" font-size="18px" fill="#000" opacity="1">400</text><text text-anchor="end" transform="translate(-7,262.1428571428571)" font-family="sans-serif" font-size="18px" fill="#000" opacity="1">500</text><text text-anchor="end" transform="translate(-7,233.57142857142856)" font-family="sans-serif" font-size="18px" fill="#000" opacity="1">600</text><text text-anchor="end" transform="translate(-7,205)" font-family="sans-serif" font-size="18px" fill="#000" opacity="1">700</text><text text-anchor="end" transform="translate(-7,176.42857142857144)" font-family="sans-serif" font-size="18px" fill="#000" opacity="1">800</text><text text-anchor="end" transform="translate(-7,147.85714285714283)" font-family="sans-serif" font-size="18px" fill="#000" opacity="1">900</text><text text-anchor="end" transform="translate(-7,119.28571428571428)" font-family="sans-serif" font-size="18px" fill="#000" opacity="1">1,000</text><text text-anchor="end" transform="translate(-7,90.71428571428572)" font-family="sans-serif" font-size="18px" fill="#000" opacity="1">1,100</text><text text-anchor="end" transform="translate(-7,62.14285714285716)" font-family="sans-serif" font-size="18px" fill="#000" opacity="1">1,200</text><text text-anchor="end" transform="translate(-7,33.571428571428555)" font-family="sans-serif" font-size="18px" fill="#000" opacity="1">1,300</text><text text-anchor="end" transform="translate(-7,5)" font-family="sans-serif" font-size="18px" fill="#000" opacity="1">1,400</text></g><g class="mark-rule role-axis-domain" pointer-events="none"><line transform="translate(0,400)" x2="0" y2="-400" stroke="#888" stroke-width="1" opacity="1"/></g><g class="mark-text role-axis-title" pointer-events="none"><text text-anchor="middle" transform="translate(-56.0439453125,200) rotate(-90) translate(0,-5)" font-family="sans-serif" font-size="22px" font-weight="bold" fill="#000" opacity="1">Number of Sequences</text></g></g><path class="foreground" aria-hidden="true" d="" pointer-events="none" display="none"/></g></g><g class="mark-group role-scope" role="graphics-object" aria-roledescription="group mark container"><g transform="translate(6,394.28571428571433)"><path class="background" aria-hidden="true" d="M2.857142857142833,0L105.14285714285717,0C106.71975721284001,0,108,1.280242787159989,108,2.857142857142833L108,2.857142857142833C108,4.4340429271256765,106.71975721284001,5.714285714285666,105.14285714285717,5.714285714285666L2.857142857142833,5.714285714285666C1.280242787159989,5.714285714285666,0,4.4340429271256765,0,2.857142857142833L0,2.857142857142833C0,1.280242787159989,1.280242787159989,0,2.857142857142833,0Z"/><g clip-path="url(#clip170)"><g class="mark-group role-scope" role="graphics-object" aria-roledescription="group mark container"><g transform="translate(0,-394.28571428571433)"><path class="background" aria-hidden="true" d="M0,0h108v0h-108Z"/><g><g class="mark-rect role-mark marks" role="graphics-object" aria-roledescription="rect mark container"><path aria-label="Split: train; Number of Sequences: 20; split: train; Count: 20; Percentage: 1.2" role="graphics-symbol" aria-roledescription="bar" d="M0,394.28571428571433h108v5.714285714285666h-108Z" fill="#72b7b2" opacity="0.8"/></g></g><path class="foreground" aria-hidden="true" d="" display="none"/></g></g></g><path class="foreground" aria-hidden="true" d="" display="none"/></g><g transform="translate(126,394.28571428571433)"><path class="background" aria-hidden="true" d="M2.857142857142833,0L105.14285714285717,0C106.71975721284001,0,108,1.280242787159989,108,2.857142857142833L108,2.857142857142833C108,4.4340429271256765,106.71975721284001,5.714285714285666,105.14285714285717,5.714285714285666L2.857142857142833,5.714285714285666C1.280242787159989,5.714285714285666,0,4.4340429271256765,0,2.857142857142833L0,2.857142857142833C0,1.280242787159989,1.280242787159989,0,2.857142857142833,0Z"/><g clip-path="url(#clip171)"><g class="mark-group role-scope" role="graphics-object" aria-roledescription="group mark container"><g transform="translate(0,-394.28571428571433)"><path class="background" aria-hidden="true" d="M0,0h108v0h-108Z"/><g><g class="mark-rect role-mark marks" role="graphics-object" aria-roledescription="rect mark container"><path aria-label="Split: val; Number of Sequences: 20; split: val; Count: 20; Percentage: 1.2" role="graphics-symbol" aria-roledescription="bar" d="M0,394.28571428571433h108v5.714285714285666h-108Z" fill="#54a24b" opacity="0.8"/></g></g><path class="foreground" aria-hidden="true" d="" display="none"/></g></g></g><path class="foreground" aria-hidden="true" d="" display="none"/></g><g transform="translate(246,373.7142857142857)"><path class="background" aria-hidden="true" d="M4,0L104,0C106.207660097976,0,108,1.792339902024,108,4L108,22.285714285714278C108,24.493374383690277,106.207660097976,26.285714285714278,104,26.285714285714278L4,26.285714285714278C1.792339902024,26.285714285714278,0,24.493374383690277,0,22.285714285714278L0,4C0,1.792339902024,1.792339902024,0,4,0Z"/><g clip-path="url(#clip172)"><g class="mark-group role-scope" role="graphics-object" aria-roledescription="group mark container"><g transform="translate(0,-373.7142857142857)"><path class="background" aria-hidden="true" d="M0,0h108v0h-108Z"/><g><g class="mark-rect role-mark marks" role="graphics-object" aria-roledescription="rect mark container"><path aria-label="Split: casp14; Number of Sequences: 92; split: casp14; Count: 92; Percentage: 5.8" role="graphics-symbol" aria-roledescription="bar" d="M0,373.7142857142857h108v26.285714285714278h-108Z" fill="#4c78a8" opacity="0.8"/></g></g><path class="foreground" aria-hidden="true" d="" display="none"/></g></g></g><path class="foreground" aria-hidden="true" d="" display="none"/></g><g transform="translate(366,376)"><path class="background" aria-hidden="true" d="M4,0L104,0C106.207660097976,0,108,1.792339902024,108,4L108,20C108,22.207660097976,106.207660097976,24,104,24L4,24C1.792339902024,24,0,22.207660097976,0,20L0,4C0,1.792339902024,1.792339902024,0,4,0Z"/><g clip-path="url(#clip173)"><g class="mark-group role-scope" role="graphics-object" aria-roledescription="group mark container"><g transform="translate(0,-376)"><path class="background" aria-hidden="true" d="M0,0h108v0h-108Z"/><g><g class="mark-rect role-mark marks" role="graphics-object" aria-roledescription="rect mark container"><path aria-label="Split: casp15; Number of Sequences: 84; split: casp15; Count: 84; Percentage: 5.2" role="graphics-symbol" aria-roledescription="bar" d="M0,376h108v24h-108Z" fill="#f58518" opacity="0.8"/></g></g><path class="foreground" aria-hidden="true" d="" display="none"/></g></g></g><path class="foreground" aria-hidden="true" d="" display="none"/></g><g transform="translate(486,4.571428571428582)"><path class="background" aria-hidden="true" d="M4,0L104,0C106.207660097976,0,108,1.792339902024,108,4L108,391.42857142857144C108,393.6362315265474,106.207660097976,395.42857142857144,104,395.42857142857144L4,395.42857142857144C1.792339902024,395.42857142857144,0,393.6362315265474,0,391.42857142857144L0,4C0,1.792339902024,1.792339902024,0,4,0Z"/><g clip-path="url(#clip174)"><g class="mark-group role-scope" role="graphics-object" aria-roledescription="group mark container"><g transform="translate(0,-4.571428571428582)"><path class="background" aria-hidden="true" d="M0,0h108v0h-108Z"/><g><g class="mark-rect role-mark marks" role="graphics-object" aria-roledescription="rect mark container"><path aria-label="Split: selected_protein; Number of Sequences: 1384; split: selected_protein; Count: 1384; Percentage: 86.5" role="graphics-symbol" aria-roledescription="bar" d="M0,4.571428571428582h108v395.42857142857144h-108Z" fill="#e45756" opacity="0.8"/></g></g><path class="foreground" aria-hidden="true" d="" display="none"/></g></g></g><path class="foreground" aria-hidden="true" d="" display="none"/></g></g><g class="mark-group role-title"><g transform="translate(300,-37)"><path class="background" aria-hidden="true" d="M0,0h0v0h0Z" pointer-events="none"/><g><g class="mark-text role-title-text" role="graphics-symbol" aria-roledescription="title" aria-label="Title text 'Split Distribution'" pointer-events="none"><text text-anchor="middle" transform="translate(0,19)" font-family="Liberation Sans" font-size="24px" font-weight="bold" fill="#000" opacity="1">Split Distribution</text></g></g><path class="foreground" aria-hidden="true" d="" pointer-events="none" display="none"/></g></g></g><path class="foreground" aria-hidden="true" d="" display="none"/></g></g></g><defs><clipPath id="clip170"><path d="M2.857142857142833,0L105.14285714285717,0C106.71975721284001,0,108,1.280242787159989,108,2.857142857142833L108,2.857142857142833C108,4.4340429271256765,106.71975721284001,5.714285714285666,105.14285714285717,5.714285714285666L2.857142857142833,5.714285714285666C1.280242787159989,5.714285714285666,0,4.4340429271256765,0,2.857142857142833L0,2.857142857142833C0,1.280242787159989,1.280242787159989,0,2.857142857142833,0Z"/></clipPath><clipPath id="clip171"><path d="M2.857142857142833,0L105.14285714285717,0C106.71975721284001,0,108,1.280242787159989,108,2.857142857142833L108,2.857142857142833C108,4.4340429271256765,106.71975721284001,5.714285714285666,105.14285714285717,5.714285714285666L2.857142857142833,5.714285714285666C1.280242787159989,5.714285714285666,0,4.4340429271256765,0,2.857142857142833L0,2.857142857142833C0,1.280242787159989,1.280242787159989,0,2.857142857142833,0Z"/></clipPath><clipPath id="clip172"><path d="M4,0L104,0C106.207660097976,0,108,1.792339902024,108,4L108,22.285714285714278C108,24.493374383690277,106.207660097976,26.285714285714278,104,26.285714285714278L4,26.285714285714278C1.792339902024,26.285714285714278,0,24.493374383690277,0,22.285714285714278L0,4C0,1.792339902024,1.792339902024,0,4,0Z"/></clipPath><clipPath id="clip173"><path d="M4,0L104,0C106.207660097976,0,108,1.792339902024,108,4L108,20C108,22.207660097976,106.207660097976,24,104,24L4,24C1.792339902024,24,0,22.207660097976,0,20L0,4C0,1.792339902024,1.792339902024,0,4,0Z"/></clipPath><clipPath id="clip174"><path d="M4,0L104,0C106.207660097976,0,108,1.792339902024,108,4L108,391.42857142857144C108,393.6362315265474,106.207660097976,395.42857142857144,104,395.42857142857144L4,395.42857142857144C1.792339902024,395.42857142857144,0,393.6362315265474,0,391.42857142857144L0,4C0,1.792339902024,1.792339902024,0,4,0Z"/></clipPath></defs></svg>