<svg xmlns="http://www.w3.org/2000/svg" xmlns:xlink="http://www.w3.org/1999/xlink" version="1.1" class="marks" width="458" height="413" viewBox="0 0 458 413"><rect width="458" height="413" fill="white"/><g fill="none" stroke-miterlimit="10" transform="translate(53,27)"><g class="mark-group role-frame root" role="graphics-object" aria-roledescription="group mark container"><g transform="translate(0,0)"><path class="background" aria-hidden="true" d="M0.5,0.5h400v300h-400Z" stroke="#ddd"/><g><g class="mark-group role-axis" aria-hidden="true"><g transform="translate(0.5,0.5)"><path class="background" aria-hidden="true" d="M0,0h0v0h0Z" pointer-events="none"/><g><g class="mark-rule role-axis-grid" pointer-events="none"><line transform="translate(0,300)" x2="400" y2="0" stroke="#ddd" stroke-width="1" opacity="1"/><line transform="translate(0,263)" x2="400" y2="0" stroke="#ddd" stroke-width="1" opacity="1"/><line transform="translate(0,225)" x2="400" y2="0" stroke="#ddd" stroke-width="1" opacity="1"/><line transform="translate(0,188)" x2="400" y2="0" stroke="#ddd" stroke-width="1" opacity="1"/><line transform="translate(0,150)" x2="400" y2="0" stroke="#ddd" stroke-width="1" opacity="1"/><line transform="translate(0,113)" x2="400" y2="0" stroke="#ddd" stroke-width="1" opacity="1"/><line transform="translate(0,75)" x2="400" y2="0" stroke="#ddd" stroke-width="1" opacity="1"/><line transform="translate(0,38)" x2="400" y2="0" stroke="#ddd" stroke-width="1" opacity="1"/><line transform="translate(0,0)" x2="400" y2="0" stroke="#ddd" stroke-width="1" opacity="1"/></g></g><path class="foreground" aria-hidden="true" d="" pointer-events="none" display="none"/></g></g><g class="mark-group role-axis" role="graphics-symbol" aria-roledescription="axis" aria-label="X-axis titled 'Split' for a discrete scale with 5 values: train, val, casp14, casp15, selected_protein"><g transform="translate(0.5,300.5)"><path class="background" aria-hidden="true" d="M0,0h0v0h0Z" pointer-events="none"/><g><g class="mark-rule role-axis-tick" pointer-events="none"><line transform="translate(40,0)" x2="0" y2="5" stroke="#888" stroke-width="1" opacity="1"/><line transform="translate(120,0)" x2="0" y2="5" stroke="#888" stroke-width="1" opacity="1"/><line transform="translate(200,0)" x2="0" y2="5" stroke="#888" stroke-width="1" opacity="1"/><line transform="translate(280,0)" x2="0" y2="5" stroke="#888" stroke-width="1" opacity="1"/><line transform="translate(360,0)" x2="0" y2="5" stroke="#888" stroke-width="1" opacity="1"/></g><g class="mark-text role-axis-label" pointer-events="none"><text text-anchor="end" transform="translate(39.5,7) rotate(315) translate(0,8)" font-family="sans-serif" font-size="10px" fill="#000" opacity="1">train</text><text text-anchor="end" transform="translate(119.5,7) rotate(315) translate(0,8)" font-family="sans-serif" font-size="10px" fill="#000" opacity="1">val</text><text text-anchor="end" transform="translate(199.5,7) rotate(315) translate(0,8)" font-family="sans-serif" font-size="10px" fill="#000" opacity="1">casp14</text><text text-anchor="end" transform="translate(279.5,7) rotate(315) translate(0,8)" font-family="sans-serif" font-size="10px" fill="#000" opacity="1">casp15</text><text text-anchor="end" transform="translate(359.5,7) rotate(315) translate(0,8)" font-family="sans-serif" font-size="10px" fill="#000" opacity="1">selected_protein</text></g><g class="mark-rule role-axis-domain" pointer-events="none"><line transform="translate(0,0)" x2="400" y2="0" stroke="#888" stroke-width="1" opacity="1"/></g><g class="mark-text role-axis-title" pointer-events="none"><text text-anchor="middle" transform="translate(200,78.96124268712248)" font-family="sans-serif" font-size="11px" font-weight="bold" fill="#000" opacity="1">Split</text></g></g><path class="foreground" aria-hidden="true" d="" pointer-events="none" display="none"/></g></g><g class="mark-group role-axis" role="graphics-symbol" aria-roledescription="axis" aria-label="Y-axis titled 'Number of Sequences' for a linear scale with values from 0 to 1,600"><g transform="translate(0.5,0.5)"><path class="background" aria-hidden="true" d="M0,0h0v0h0Z" pointer-events="none"/><g><g class="mark-rule role-axis-tick" pointer-events="none"><line transform="translate(0,300)" x2="-5" y2="0" stroke="#888" stroke-width="1" opacity="1"/><line transform="translate(0,263)" x2="-5" y2="0" stroke="#888" stroke-width="1" opacity="1"/><line transform="translate(0,225)" x2="-5" y2="0" stroke="#888" stroke-width="1" opacity="1"/><line transform="translate(0,188)" x2="-5" y2="0" stroke="#888" stroke-width="1" opacity="1"/><line transform="translate(0,150)" x2="-5" y2="0" stroke="#888" stroke-width="1" opacity="1"/><line transform="translate(0,113)" x2="-5" y2="0" stroke="#888" stroke-width="1" opacity="1"/><line transform="translate(0,75)" x2="-5" y2="0" stroke="#888" stroke-width="1" opacity="1"/><line transform="translate(0,38)" x2="-5" y2="0" stroke="#888" stroke-width="1" opacity="1"/><line transform="translate(0,0)" x2="-5" y2="0" stroke="#888" stroke-width="1" opacity="1"/></g><g class="mark-text role-axis-label" pointer-events="none"><text text-anchor="end" transform="translate(-7,303)" font-family="sans-serif" font-size="10px" fill="#000" opacity="1">0</text><text text-anchor="end" transform="translate(-7,265.5)" font-family="sans-serif" font-size="10px" fill="#000" opacity="1">200</text><text text-anchor="end" transform="translate(-7,228)" font-family="sans-serif" font-size="10px" fill="#000" opacity="1">400</text><text text-anchor="end" transform="translate(-7,190.5)" font-family="sans-serif" font-size="10px" fill="#000" opacity="1">600</text><text text-anchor="end" transform="translate(-7,153)" font-family="sans-serif" font-size="10px" fill="#000" opacity="1">800</text><text text-anchor="end" transform="translate(-7,115.5)" font-family="sans-serif" font-size="10px" fill="#000" opacity="1">1,000</text><text text-anchor="end" transform="translate(-7,78)" font-family="sans-serif" font-size="10px" fill="#000" opacity="1">1,200</text><text text-anchor="end" transform="translate(-7,40.5)" font-family="sans-serif" font-size="10px" fill="#000" opacity="1">1,400</text><text text-anchor="end" transform="translate(-7,3)" font-family="sans-serif" font-size="10px" fill="#000" opacity="1">1,600</text></g><g class="mark-rule role-axis-domain" pointer-events="none"><line transform="translate(0,300)" x2="0" y2="-300" stroke="#888" stroke-width="1" opacity="1"/></g><g class="mark-text role-axis-title" pointer-events="none"><text text-anchor="middle" transform="translate(-36.0244140625,150) rotate(-90) translate(0,-2)" font-family="sans-serif" font-size="11px" font-weight="bold" fill="#000" opacity="1">Number of Sequences</text></g></g><path class="foreground" aria-hidden="true" d="" pointer-events="none" display="none"/></g></g><g class="mark-group role-scope" role="graphics-object" aria-roledescription="group mark container"><g transform="translate(4,296.25)"><path class="background" aria-hidden="true" d="M1.875,0L70.125,0C71.15984067092624,0,72,0.84015932907375,72,1.875L72,1.875C72,2.90984067092625,71.15984067092624,3.75,70.125,3.75L1.875,3.75C0.84015932907375,3.75,0,2.90984067092625,0,1.875L0,1.875C0,0.84015932907375,0.84015932907375,0,1.875,0Z"/><g clip-path="url(#clip1)"><g class="mark-group role-scope" role="graphics-object" aria-roledescription="group mark container"><g transform="translate(0,-296.25)"><path class="background" aria-hidden="true" d="M0,0h72v0h-72Z"/><g><g class="mark-rect role-mark marks" role="graphics-object" aria-roledescription="rect mark container"><path aria-label="Split: train; Number of Sequences: 20; split: train; Count: 20; Percentage: 1.2" role="graphics-symbol" aria-roledescription="bar" d="M0,296.25h72v3.75h-72Z" fill="#72b7b2" opacity="0.8"/></g></g><path class="foreground" aria-hidden="true" d="" display="none"/></g></g></g><path class="foreground" aria-hidden="true" d="" display="none"/></g><g transform="translate(84,296.25)"><path class="background" aria-hidden="true" d="M1.875,0L70.125,0C71.15984067092624,0,72,0.84015932907375,72,1.875L72,1.875C72,2.90984067092625,71.15984067092624,3.75,70.125,3.75L1.875,3.75C0.84015932907375,3.75,0,2.90984067092625,0,1.875L0,1.875C0,0.84015932907375,0.84015932907375,0,1.875,0Z"/><g clip-path="url(#clip2)"><g class="mark-group role-scope" role="graphics-object" aria-roledescription="group mark container"><g transform="translate(0,-296.25)"><path class="background" aria-hidden="true" d="M0,0h72v0h-72Z"/><g><g class="mark-rect role-mark marks" role="graphics-object" aria-roledescription="rect mark container"><path aria-label="Split: val; Number of Sequences: 20; split: val; Count: 20; Percentage: 1.2" role="graphics-symbol" aria-roledescription="bar" d="M0,296.25h72v3.75h-72Z" fill="#54a24b" opacity="0.8"/></g></g><path class="foreground" aria-hidden="true" d="" display="none"/></g></g></g><path class="foreground" aria-hidden="true" d="" display="none"/></g><g transform="translate(164,282)"><path class="background" aria-hidden="true" d="M4,0L68,0C70.207660097976,0,72,1.792339902024,72,4L72,14C72,16.207660097976,70.207660097976,18,68,18L4,18C1.792339902024,18,0,16.207660097976,0,14L0,4C0,1.792339902024,1.792339902024,0,4,0Z"/><g clip-path="url(#clip3)"><g class="mark-group role-scope" role="graphics-object" aria-roledescription="group mark container"><g transform="translate(0,-282)"><path class="background" aria-hidden="true" d="M0,0h72v0h-72Z"/><g><g class="mark-rect role-mark marks" role="graphics-object" aria-roledescription="rect mark container"><path aria-label="Split: casp14; Number of Sequences: 96; split: casp14; Count: 96; Percentage: 5.8" role="graphics-symbol" aria-roledescription="bar" d="M0,282h72v18h-72Z" fill="#4c78a8" opacity="0.8"/></g></g><path class="foreground" aria-hidden="true" d="" display="none"/></g></g></g><path class="foreground" aria-hidden="true" d="" display="none"/></g><g transform="translate(244,282)"><path class="background" aria-hidden="true" d="M4,0L68,0C70.207660097976,0,72,1.792339902024,72,4L72,14C72,16.207660097976,70.207660097976,18,68,18L4,18C1.792339902024,18,0,16.207660097976,0,14L0,4C0,1.792339902024,1.792339902024,0,4,0Z"/><g clip-path="url(#clip4)"><g class="mark-group role-scope" role="graphics-object" aria-roledescription="group mark container"><g transform="translate(0,-282)"><path class="background" aria-hidden="true" d="M0,0h72v0h-72Z"/><g><g class="mark-rect role-mark marks" role="graphics-object" aria-roledescription="rect mark container"><path aria-label="Split: casp15; Number of Sequences: 96; split: casp15; Count: 96; Percentage: 5.8" role="graphics-symbol" aria-roledescription="bar" d="M0,282h72v18h-72Z" fill="#f58518" opacity="0.8"/></g></g><path class="foreground" aria-hidden="true" d="" display="none"/></g></g></g><path class="foreground" aria-hidden="true" d="" display="none"/></g><g transform="translate(324,31.874999999999986)"><path class="background" aria-hidden="true" d="M4,0L68,0C70.207660097976,0,72,1.792339902024,72,4L72,264.125C72,266.332660097976,70.207660097976,268.125,68,268.125L4,268.125C1.792339902024,268.125,0,266.332660097976,0,264.125L0,4C0,1.792339902024,1.792339902024,0,4,0Z"/><g clip-path="url(#clip5)"><g class="mark-group role-scope" role="graphics-object" aria-roledescription="group mark container"><g transform="translate(0,-31.874999999999986)"><path class="background" aria-hidden="true" d="M0,0h72v0h-72Z"/><g><g class="mark-rect role-mark marks" role="graphics-object" aria-roledescription="rect mark container"><path aria-label="Split: selected_protein; Number of Sequences: 1430; split: selected_protein; Count: 1430; Percentage: 86.0" role="graphics-symbol" aria-roledescription="bar" d="M0,31.874999999999986h72v268.125h-72Z" fill="#e45756" opacity="0.8"/></g></g><path class="foreground" aria-hidden="true" d="" display="none"/></g></g></g><path class="foreground" aria-hidden="true" d="" display="none"/></g></g><g class="mark-group role-title"><g transform="translate(200,-22)"><path class="background" aria-hidden="true" d="M0,0h0v0h0Z" pointer-events="none"/><g><g class="mark-text role-title-text" role="graphics-symbol" aria-roledescription="title" aria-label="Title text 'Split Distribution'" pointer-events="none"><text text-anchor="middle" transform="translate(0,10)" font-family="sans-serif" font-size="13px" font-weight="bold" fill="#000" opacity="1">Split Distribution</text></g></g><path class="foreground" aria-hidden="true" d="" pointer-events="none" display="none"/></g></g></g><path class="foreground" aria-hidden="true" d="" display="none"/></g></g></g><defs><clipPath id="clip1"><path d="M1.875,0L70.125,0C71.15984067092624,0,72,0.84015932907375,72,1.875L72,1.875C72,2.90984067092625,71.15984067092624,3.75,70.125,3.75L1.875,3.75C0.84015932907375,3.75,0,2.90984067092625,0,1.875L0,1.875C0,0.84015932907375,0.84015932907375,0,1.875,0Z"/></clipPath><clipPath id="clip2"><path d="M1.875,0L70.125,0C71.15984067092624,0,72,0.84015932907375,72,1.875L72,1.875C72,2.90984067092625,71.15984067092624,3.75,70.125,3.75L1.875,3.75C0.84015932907375,3.75,0,2.90984067092625,0,1.875L0,1.875C0,0.84015932907375,0.84015932907375,0,1.875,0Z"/></clipPath><clipPath id="clip3"><path d="M4,0L68,0C70.207660097976,0,72,1.792339902024,72,4L72,14C72,16.207660097976,70.207660097976,18,68,18L4,18C1.792339902024,18,0,16.207660097976,0,14L0,4C0,1.792339902024,1.792339902024,0,4,0Z"/></clipPath><clipPath id="clip4"><path d="M4,0L68,0C70.207660097976,0,72,1.792339902024,72,4L72,14C72,16.207660097976,70.207660097976,18,68,18L4,18C1.792339902024,18,0,16.207660097976,0,14L0,4C0,1.792339902024,1.792339902024,0,4,0Z"/></clipPath><clipPath id="clip5"><path d="M4,0L68,0C70.207660097976,0,72,1.792339902024,72,4L72,264.125C72,266.332660097976,70.207660097976,268.125,68,268.125L4,268.125C1.792339902024,268.125,0,266.332660097976,0,264.125L0,4C0,1.792339902024,1.792339902024,0,4,0Z"/></clipPath></defs></svg>